<svg width="945" height="945" xmlns="http://www.w3.org/2000/svg" xmlns:xlink="http://www.w3.org/1999/xlink" overflow="hidden"><defs><clipPath id="clip0"><rect x="0" y="0" width="945" height="945"/></clipPath><clipPath id="clip1"><rect x="162" y="94" width="257" height="259"/></clipPath><clipPath id="clip2"><rect x="162" y="94" width="257" height="259"/></clipPath><clipPath id="clip3"><rect x="162" y="94" width="257" height="259"/></clipPath></defs><g clip-path="url(#clip0)"><rect x="0" y="0" width="945" height="945" fill="#FFC715"/><path d="M103.295 216.141 113.679 220.153 113.679 212.129ZM103.295 425.141 113.679 429.153 113.679 421.129ZM103.295 575.141 113.679 579.153 113.679 571.129ZM99.9317 311.784C99.9317 313.515 100.354 315.078 101.2 316.474 102.046 317.871 103.245 318.982 104.799 319.808 106.353 320.634 108.172 321.047 110.257 321.047 112.341 321.047 114.16 320.634 115.714 319.808 117.268 318.982 118.467 317.871 119.313 316.474 120.159 315.078 120.582 313.515 120.582 311.784 120.582 310.053 120.159 308.49 119.313 307.093 118.467 305.697 117.268 304.586 115.714 303.76 114.16 302.934 112.341 302.521 110.257 302.521 108.172 302.521 106.353 302.934 104.799 303.76 103.245 304.586 102.046 305.697 101.2 307.093 100.354 308.49 99.9317 310.053 99.9317 311.784ZM89.6067 153.437 89.6067 119.866 100.109 119.866 100.109 139.749 104.947 139.749 104.947 122.285 114.977 122.285 114.977 139.749 120.405 139.749 120.405 119.099 130.907 119.099 130.907 153.437ZM89.6067 189.437 89.6067 175.513 120.11 175.513 120.11 156.869 130.907 156.869 130.907 189.437ZM89.6067 222.867 89.6067 209.179 130.907 191.125 130.907 205.521 123.709 208.294 123.709 223.988 130.907 226.761 130.907 240.921ZM89.6067 283.437 89.6067 271.991 108.369 256.297 89.6067 256.297 89.6067 242.727 130.907 242.727 130.907 254.173 112.145 269.867 130.907 269.867 130.907 283.437ZM89.6067 354.437 89.6067 340.513 130.907 340.513 130.907 354.437ZM89.6067 431.867 89.6067 418.179 130.907 400.125 130.907 414.521 123.709 417.294 123.709 432.988 130.907 435.761 130.907 449.921ZM89.6067 492.437 89.6067 480.991 108.369 465.297 89.6067 465.297 89.6067 451.727 130.907 451.727 130.907 463.173 112.145 478.867 130.907 478.867 130.907 492.437ZM89.6067 581.867 89.6067 568.179 130.907 550.125 130.907 564.521 123.709 567.294 123.709 582.988 130.907 585.761 130.907 599.921ZM89.6067 637.564 89.6067 599.45 100.404 599.45 100.404 611.545 130.907 611.545 130.907 625.469 100.404 625.469 100.404 637.564ZM89.6067 681.437 89.6067 669.991 108.369 654.297 89.6067 654.297 89.6067 640.727 130.907 640.727 130.907 652.173 112.145 667.867 130.907 667.867 130.907 681.437ZM89.6067 720.437 89.6067 686.866 100.109 686.866 100.109 706.749 104.947 706.749 104.947 689.285 114.977 689.285 114.977 706.749 120.405 706.749 120.405 686.099 130.907 686.099 130.907 720.437ZM89.6067 766.791 89.6067 752.867 111.909 752.867C114.937 752.867 117.14 752.326 118.517 751.244 119.893 750.163 120.582 748.599 120.582 746.554 120.582 744.509 119.893 742.945 118.517 741.863 117.14 740.782 114.937 740.241 111.909 740.241L89.6067 740.241 89.6067 726.553 112.322 726.553C118.497 726.553 123.296 728.323 126.718 731.863 130.14 735.403 131.851 740.339 131.851 746.672 131.851 753.005 130.14 757.941 126.718 761.481 123.296 765.021 118.497 766.791 112.322 766.791ZM88.6627 96.1499C88.6627 93.3179 88.9675 90.5351 89.5772 87.8014 90.1868 85.0677 91.0817 82.6586 92.2617 80.5739L102.351 84.7629C100.305 88.8143 99.2827 92.6493 99.2827 96.2679 99.2827 99.8473 100.148 101.637 101.879 101.637 102.705 101.637 103.324 101.106 103.737 100.044 104.15 98.9819 104.593 97.2316 105.065 94.7929 105.655 91.6462 106.333 88.9913 107.1 86.8279 107.867 84.6646 109.116 82.7864 110.847 81.1934 112.577 79.6004 114.937 78.8039 117.927 78.8039 120.523 78.8039 122.873 79.5316 124.977 80.9869 127.081 82.4423 128.753 84.6154 129.992 87.5064 131.231 90.3974 131.851 93.9079 131.851 98.0379 131.851 101.46 131.467 104.793 130.7 108.038 129.933 111.283 128.901 113.948 127.603 116.033L117.455 111.549C118.595 109.582 119.51 107.38 120.198 104.941 120.886 102.502 121.231 100.162 121.231 97.9199 121.231 95.9926 121.044 94.6159 120.67 93.7899 120.296 92.9639 119.736 92.5509 118.989 92.5509 118.123 92.5509 117.474 93.0917 117.042 94.1734 116.609 95.2551 116.137 97.0349 115.626 99.5129 114.957 102.699 114.239 105.354 113.472 107.478 112.705 109.602 111.446 111.451 109.696 113.024 107.946 114.597 105.576 115.384 102.587 115.384 99.9907 115.384 97.6307 114.656 95.5067 113.201 93.3827 111.746 91.711 109.572 90.4917 106.681 89.2723 103.79 88.6627 100.28 88.6627 96.1499ZM88.6627 311.784C88.6627 307.339 89.587 303.347 91.4357 299.807 93.2843 296.267 95.8508 293.494 99.1352 291.488 102.419 289.482 106.127 288.479 110.257 288.479 114.387 288.479 118.094 289.482 121.378 291.488 124.662 293.494 127.229 296.267 129.078 299.807 130.926 303.347 131.851 307.339 131.851 311.784 131.851 316.229 130.926 320.221 129.078 323.761 127.229 327.301 124.662 330.074 121.378 332.08 118.094 334.086 114.387 335.089 110.257 335.089 106.127 335.089 102.419 334.086 99.1352 332.08 95.8508 330.074 93.2843 327.301 91.4357 323.761 89.587 320.221 88.6627 316.229 88.6627 311.784ZM88.6627 376.079C88.6627 372.067 89.3707 368.488 90.7867 365.341 92.2027 362.194 94.248 359.598 96.9227 357.553L104.77 366.344C101.544 368.901 99.9317 371.91 99.9317 375.371 99.9317 378.282 100.866 380.622 102.734 382.392 104.602 384.162 107.11 385.047 110.257 385.047 113.403 385.047 115.911 384.162 117.779 382.392 119.647 380.622 120.582 378.282 120.582 375.371 120.582 371.91 118.969 368.901 115.744 366.344L123.591 357.553C126.265 359.598 128.311 362.194 129.727 365.341 131.143 368.488 131.851 372.067 131.851 376.079 131.851 380.445 130.936 384.378 129.107 387.879 127.278 391.38 124.721 394.123 121.437 396.109 118.153 398.096 114.426 399.089 110.257 399.089 106.087 399.089 102.36 398.096 99.0762 396.109 95.7918 394.123 93.2352 391.38 91.4062 387.879 89.5772 384.378 88.6627 380.445 88.6627 376.079ZM88.6627 531.15C88.6627 528.318 88.9675 525.535 89.5772 522.801 90.1868 520.068 91.0817 517.659 92.2617 515.574L102.351 519.763C100.305 523.814 99.2827 527.649 99.2827 531.268 99.2827 534.847 100.148 536.637 101.879 536.637 102.705 536.637 103.324 536.106 103.737 535.044 104.15 533.982 104.593 532.232 105.065 529.793 105.655 526.646 106.333 523.991 107.1 521.828 107.867 519.665 109.116 517.786 110.847 516.193 112.577 514.6 114.937 513.804 117.927 513.804 120.523 513.804 122.873 514.532 124.977 515.987 127.081 517.442 128.753 519.615 129.992 522.506 131.231 525.397 131.851 528.908 131.851 533.038 131.851 536.46 131.467 539.793 130.7 543.038 129.933 546.283 128.901 548.948 127.603 551.033L117.455 546.549C118.595 544.582 119.51 542.38 120.198 539.941 120.886 537.502 121.231 535.162 121.231 532.92 121.231 530.993 121.044 529.616 120.67 528.79 120.296 527.964 119.736 527.551 118.989 527.551 118.123 527.551 117.474 528.092 117.042 529.173 116.609 530.255 116.137 532.035 115.626 534.513 114.957 537.699 114.239 540.354 113.472 542.478 112.705 544.602 111.446 546.451 109.696 548.024 107.946 549.597 105.576 550.384 102.587 550.384 99.9907 550.384 97.6307 549.656 95.5067 548.201 93.3827 546.746 91.711 544.572 90.4917 541.681 89.2723 538.79 88.6627 535.28 88.6627 531.15ZM88.6627 789.079C88.6627 785.067 89.3707 781.488 90.7867 778.341 92.2027 775.194 94.248 772.598 96.9227 770.553L104.77 779.344C101.544 781.901 99.9317 784.91 99.9317 788.371 99.9317 791.282 100.866 793.622 102.734 795.392 104.602 797.162 107.11 798.047 110.257 798.047 113.403 798.047 115.911 797.162 117.779 795.392 119.647 793.622 120.582 791.282 120.582 788.371 120.582 784.91 118.969 781.901 115.744 779.344L123.591 770.553C126.265 772.598 128.311 775.194 129.727 778.341 131.143 781.488 131.851 785.067 131.851 789.079 131.851 793.445 130.936 797.378 129.107 800.879 127.278 804.38 124.721 807.123 121.437 809.109 118.153 811.096 114.426 812.089 110.257 812.089 106.087 812.089 102.36 811.096 99.0762 809.109 95.7918 807.123 93.2352 804.38 91.4062 800.879 89.5772 797.378 88.6627 793.445 88.6627 789.079Z" stroke="#262626" stroke-width="3" stroke-linejoin="round" stroke-miterlimit="10" fill="none" fill-rule="evenodd"/><text fill="#000000" fill-opacity="0" font-family="Arial,Arial_MSFontService,sans-serif" font-size="733.285" x="88.6627" y="720.428">CUENTAS NACIONALES</text><rect x="173" y="380" width="548" height="359" fill="#262626"/><text fill="#FFC715" font-family="Montserrat,Montserrat_MSFontService,sans-serif" font-weight="700" font-size="72" transform="translate(182.917 454)">Estimador <tspan font-size="72" x="0" y="86">Mensual de la </tspan><tspan font-size="72" x="0" y="172">Actividad </tspan><tspan font-size="72" x="0" y="259">Económica</tspan></text><path d="M848.5 823.5 874 823.5 899.5 853.5 874 883.5 848.5 883.5 874 853.5Z" stroke="#262626" stroke-width="3.33392" stroke-miterlimit="8" fill="none" fill-rule="evenodd"/><path d="M805.5 823.5 831 823.5 856.5 853.5 831 883.5 805.5 883.5 831 853.5Z" stroke="#262626" stroke-width="3.33392" stroke-miterlimit="8" fill="none" fill-rule="evenodd"/><g clip-path="url(#clip1)"><g clip-path="url(#clip2)"><g clip-path="url(#clip3)"><path d="M52 40.648 57.116 56 76 56 76 48 62.884 48 52 15.352 39.256 53.576 34.472 44 20 44 20 52 29.528 52 40.744 74.424Z" fill="#262626" transform="matrix(1 0 0 1.00391 163 95)"/><path d="M232 192C243.028 192 252 183.028 252 172L252 68C252 58.28 245.024 50.176 235.816 48.384 233.968 25.812 215.04 8 192 8 169.088 8 150.232 25.608 148.204 48L92 48C92 23.74 72.26 4 48 4 23.74 4 4 23.74 4 48 4 61.872 10.568 74.828 21.456 83.08 15.672 88.212 12 95.676 12 104L12 111.996 12 115.996 12 126.7C12 142.576 21.532 156.712 36 162.756L36 173.988C21.7 182.016 12 197.312 12 214.844L12 252 103.424 252 103.424 251.908C107.572 251.692 111.6 250.756 115.4 249.028L147.944 234.236C149.212 233.66 150.356 232.9 151.368 232L168 232C173.208 232 177.608 228.644 179.264 224L240 224C246.616 224 252 218.616 252 212 252 205.384 246.616 200 240 200L216 200C213.792 200 212 198.208 212 196L212 192ZM232 184 93.952 184C87.244 176.4 78.172 170.992 68 168.94L68 163.06C69.996 162.392 71.836 161.36 73.456 160L244 160 244 172C244 178.616 238.616 184 232 184ZM160 200 152.944 200C144.748 200 136.952 203.8 132 209.904L132 192 164 192 164 200.404C162.708 200.14 161.368 200 160 200ZM107.256 222.492 105.216 208.22C104.38 202.38 102.456 196.916 99.684 192L124 192 124 214.88ZM54.472 107.996 57.368 102.208C58.048 100.844 59.42 99.996 60.948 99.996L84 99.996C86.208 99.996 88 101.792 88 103.996 88 106.2 86.208 107.996 84 107.996ZM192 16C211.852 16 228 32.152 228 52 228 71.848 211.852 88 192 88 172.148 88 156 71.848 156 52 156 32.152 172.148 16 192 16ZM148.204 56C150.232 78.392 169.088 96 192 96 214.688 96 233.412 78.736 235.748 56.66 240.524 58.244 244 62.7 244 68L244 152 78.704 152C79.312 149.948 79.6 147.788 79.376 145.592L76.416 115.996 84 115.996C90.616 115.996 96 110.612 96 103.996 96 97.38 90.616 91.996 84 91.996L75.596 91.996C75.04 89.276 73.876 86.792 72.336 84.592 82.316 77.968 89.04 67.68 91.184 56ZM12 48C12 28.152 28.148 12 48 12 67.852 12 84 28.152 84 48 84 60.828 77.244 72.424 66.312 78.904 63.296 77.076 59.78 76 56.004 76L40 76C36.012 76 32.224 76.852 28.788 78.36 18.416 71.78 12 60.36 12 48ZM20 104C20 92.972 28.972 84 40 84L56.004 84C61.22 84 65.664 87.34 67.312 91.996L60.944 91.996C56.368 91.996 52.256 94.536 50.208 98.628L45.524 107.996 20 107.996ZM20 126.7 20 115.996 30.964 115.996C29.048 118.956 28 122.392 28 126 28 130.864 29.972 135.628 33.416 139.072L36 141.656 36 153.828C26.264 148.416 20 138.144 20 126.7ZM39.072 133.416C37.12 131.464 36 128.76 36 126 36 123.2 37.088 120.568 39.072 118.584L41.66 115.996 68.38 115.996 71.42 146.396C71.684 149.008 70.768 151.58 68.904 153.444 67.28 155.068 65.024 156.004 62.724 156.004L52 156.004 52 164.004 60 164.004 60 168.056C59.612 168.044 59.232 168 58.844 168 53.652 168 48.672 168.884 44 170.452L44 138.344ZM112.088 241.748C108.804 243.244 105.304 244 101.688 244 90.496 244 80.816 236.796 77.604 226.08L71.836 206.852 64.172 209.148 69.94 228.376C71.828 234.676 75.476 239.976 80.176 244L20 244 20 214.844C20 193.424 37.424 176 58.844 176 78.048 176 94.58 190.336 97.292 209.352L99.664 225.94 94.344 228.36 97.656 235.64 121.34 224.872 126.024 235.408ZM144.636 226.952 133.312 232.1 128.628 221.56 139.74 216.508C140.476 216.176 141.292 216 142.264 216 145.424 216 148 218.576 148 221.736 148 223.976 146.68 226.024 144.636 226.952ZM168 224 155.792 224C155.92 223.256 156 222.504 156 221.736 156 215.908 152.34 210.952 147.136 208.96 149 208.356 150.948 208 152.944 208L160 208C166.616 208 172 213.384 172 220 172 222.208 170.208 224 168 224ZM216 208 240 208C242.208 208 244 209.792 244 212 244 214.208 242.208 216 240 216L179.596 216C178.608 211.148 175.812 206.988 172 204.104L172 192 204 192 204 196C204 202.616 209.384 208 216 208Z" fill="#262626" transform="matrix(1 0 0 1.00391 163 95)"/><path d="M228 168 236 168 236 176 228 176Z" fill="#262626" transform="matrix(1 0 0 1.00391 163 95)"/><path d="M196 168 204 168 204 176 196 176Z" fill="#262626" transform="matrix(1 0 0 1.00391 163 95)"/><path d="M212 168 220 168 220 176 212 176Z" fill="#262626" transform="matrix(1 0 0 1.00391 163 95)"/><path d="M168 32 176 32 176 40 168 40Z" fill="#262626" transform="matrix(1 0 0 1.00391 163 95)"/><path d="M184 32 216 32 216 40 184 40Z" fill="#262626" transform="matrix(1 0 0 1.00391 163 95)"/><path d="M168 48 176 48 176 56 168 56Z" fill="#262626" transform="matrix(1 0 0 1.00391 163 95)"/><path d="M184 48 216 48 216 56 184 56Z" fill="#262626" transform="matrix(1 0 0 1.00391 163 95)"/><path d="M168 64 176 64 176 72 168 72Z" fill="#262626" transform="matrix(1 0 0 1.00391 163 95)"/><path d="M184 64 216 64 216 72 184 72Z" fill="#262626" transform="matrix(1 0 0 1.00391 163 95)"/><path d="M144 112 104 112 104 144 144 144ZM136 136 112 136 112 120 136 120Z" fill="#262626" transform="matrix(1 0 0 1.00391 163 95)"/><path d="M104 96 144 96 144 104 104 104Z" fill="#262626" transform="matrix(1 0 0 1.00391 163 95)"/><path d="M104 80 144 80 144 88 104 88Z" fill="#262626" transform="matrix(1 0 0 1.00391 163 95)"/><path d="M104 64 144 64 144 72 104 72Z" fill="#262626" transform="matrix(1 0 0 1.00391 163 95)"/><path d="M152 136 160 136 160 144 152 144Z" fill="#262626" transform="matrix(1 0 0 1.00391 163 95)"/><path d="M168 136 236 136 236 144 168 144Z" fill="#262626" transform="matrix(1 0 0 1.00391 163 95)"/><path d="M152 120 236 120 236 128 152 128Z" fill="#262626" transform="matrix(1 0 0 1.00391 163 95)"/><path d="M152 104 236 104 236 112 152 112Z" fill="#262626" transform="matrix(1 0 0 1.00391 163 95)"/></g></g></g></g></svg>