<svg width="945" height="945" xmlns="http://www.w3.org/2000/svg" xmlns:xlink="http://www.w3.org/1999/xlink" overflow="hidden"><defs><clipPath id="clip0"><rect x="0" y="0" width="945" height="945"/></clipPath><clipPath id="clip1"><rect x="49" y="91" width="110" height="109"/></clipPath><clipPath id="clip2"><rect x="49" y="91" width="110" height="109"/></clipPath><clipPath id="clip3"><rect x="49" y="91" width="110" height="109"/></clipPath><clipPath id="clip4"><rect x="640" y="537" width="170" height="169"/></clipPath><clipPath id="clip5"><rect x="640" y="537" width="170" height="169"/></clipPath><clipPath id="clip6"><rect x="640" y="537" width="170" height="169"/></clipPath></defs><g clip-path="url(#clip0)"><rect x="0" y="0" width="945" height="945" fill="#FFFFFF"/><text fill="#181717" font-family="Montserrat SemiBold,Montserrat SemiBold_MSFontService,sans-serif" font-weight="600" font-size="48" transform="translate(113.976 314)">Las biorrefinerías y la biomasa <tspan font-size="48" x="0" y="58">como fuente de carbono son </tspan><tspan font-family="Montserrat,Montserrat_MSFontService,sans-serif" font-weight="400" font-size="48" x="0" y="116">componentes centrales </tspan>de la <tspan font-size="48" x="0" y="173">bioeconomía.</tspan></text><g clip-path="url(#clip1)"><g clip-path="url(#clip2)"><g clip-path="url(#clip3)"><path d="M53.375 184.812C53.3823 191.333 58.6667 196.618 65.1875 196.625L112.438 196.625C118.961 196.625 124.25 191.336 124.25 184.812 124.25 178.289 118.961 173 112.438 173L108.881 173C113.545 168.445 113.633 160.971 109.078 156.307 106.855 154.03 103.807 152.748 100.625 152.75L87.125 152.75 87.125 146C87.125 145.068 86.3694 144.312 85.4375 144.312L82.0625 144.312C81.4698 144.312 80.9205 144.623 80.6155 145.132L76.0447 152.75 73.625 152.75C67.1054 152.746 61.8168 158.027 61.8125 164.547 61.8104 167.729 63.0929 170.777 65.3692 173L65.1875 173C58.6667 173.007 53.3823 178.292 53.375 184.812ZM83.75 184.812C83.7492 183.651 83.9899 182.501 84.4567 181.438L91.3438 181.438C92.7417 181.438 93.875 182.571 93.875 183.969 93.875 185.367 92.7417 186.5 91.3438 186.5L88.8125 186.5 88.8125 189.875 91.3438 189.875C94.6057 189.875 97.25 187.231 97.25 183.969 97.25 180.707 94.6057 178.062 91.3438 178.062L87.1309 178.062C90.8605 175.271 96.1464 176.032 98.9375 179.762 101.729 183.491 100.968 188.777 97.2382 191.568 93.5086 194.36 88.2227 193.599 85.4316 189.869 84.3394 188.41 83.7494 186.635 83.75 184.812ZM104.182 176.375C103.461 177.079 102.833 177.873 102.313 178.735 101.792 177.873 101.164 177.079 100.443 176.375ZM100.443 193.25C101.164 192.546 101.792 191.752 102.313 190.89 102.833 191.752 103.461 192.546 104.182 193.25ZM120.875 184.812C120.878 189.472 117.103 193.252 112.443 193.255 107.783 193.258 104.003 189.483 104 184.823 103.999 183.658 104.24 182.505 104.707 181.438L111.594 181.438C112.992 181.438 114.125 182.571 114.125 183.969 114.125 185.367 112.992 186.5 111.594 186.5L109.063 186.5 109.063 189.875 111.594 189.875C114.856 189.875 117.5 187.231 117.5 183.969 117.5 180.707 114.856 178.062 111.594 178.062L107.381 178.062C111.107 175.267 116.392 176.021 119.188 179.747 120.284 181.208 120.876 182.986 120.875 184.812ZM109.063 164.562C109.065 169.222 105.29 173.002 100.63 173.005 95.9703 173.008 92.1905 169.233 92.1875 164.573 92.1869 163.408 92.4274 162.255 92.8942 161.187L99.7813 161.187C101.179 161.187 102.313 162.321 102.313 163.719 102.313 165.117 101.179 166.25 99.7813 166.25L97.25 166.25 97.25 169.625 99.7813 169.625C103.043 169.625 105.688 166.981 105.688 163.719 105.688 160.457 103.043 157.812 99.7813 157.812L95.5684 157.812C99.294 155.017 104.58 155.771 107.375 159.497 108.471 160.958 109.064 162.736 109.063 164.562ZM66.8796 169.625 75.3125 169.625 75.3125 166.25 65.3573 166.25C65.1309 165.136 65.1309 163.989 65.3573 162.875L70.25 162.875 70.25 159.5 66.8796 159.5C68.4713 157.376 70.9706 156.125 73.625 156.125L77 156.125C77.5927 156.125 78.142 155.814 78.447 155.306L83.0179 147.687 83.75 147.687 83.75 154.437C83.75 155.369 84.5056 156.125 85.4375 156.125L92.3691 156.125C89.6696 158.756 88.3927 162.52 88.9351 166.25L85.4375 166.25 85.4375 169.625 89.9545 169.625C90.5551 170.883 91.3722 172.025 92.3691 173L73.625 173C70.9706 173 68.4713 171.749 66.8796 169.625ZM83.9316 176.375C82.9347 177.35 82.1176 178.492 81.517 179.75L75.3125 179.75 75.3125 183.125 80.4976 183.125C79.9552 186.855 81.2321 190.619 83.9316 193.25L65.1875 193.25C62.5331 193.25 60.0338 191.999 58.4421 189.875L60.125 189.875 60.125 186.5 56.9198 186.5C56.6934 185.386 56.6934 184.239 56.9198 183.125L71.9375 183.125 71.9375 179.75 58.4421 179.75C60.0338 177.626 62.5331 176.375 65.1875 176.375L83.9316 176.375Z" fill="#70AD47"/><path d="M63.5 186.5 66.875 186.5 66.875 189.875 63.5 189.875Z" fill="#70AD47"/><path d="M70.25 186.5 77 186.5 77 189.875 70.25 189.875Z" fill="#70AD47"/><path d="M78.6875 166.25 82.0625 166.25 82.0625 169.625 78.6875 169.625Z" fill="#70AD47"/><path d="M73.625 159.5 83.75 159.5 83.75 162.875 73.625 162.875Z" fill="#70AD47"/><path d="M152.938 135.875 92.1875 135.875C91.2556 135.875 90.5 136.631 90.5 137.562L90.5 149.375 93.875 149.375 93.875 139.25 151.25 139.25 151.25 162.875 122.563 162.875C121.631 162.875 120.875 163.631 120.875 164.562L120.875 173C120.875 173.932 121.631 174.688 122.563 174.688L151.25 174.688 151.25 178.062 132.688 178.062C131.756 178.062 131 178.818 131 179.75L131 188.188C131 189.119 131.756 189.875 132.688 189.875L151.25 189.875 151.25 193.25 124.25 193.25 124.25 196.625 152.938 196.625C153.869 196.625 154.625 195.869 154.625 194.938L154.625 137.562C154.625 136.631 153.869 135.875 152.938 135.875ZM141.125 166.25 141.125 171.312 134.375 171.312 134.375 166.25ZM124.25 166.25 131 166.25 131 171.312 124.25 171.312ZM144.5 171.312 144.5 166.25 151.25 166.25 151.25 171.312ZM134.375 181.438 141.125 181.438 141.125 186.5 134.375 186.5ZM144.5 186.5 144.5 181.438 151.25 181.438 151.25 186.5Z" fill="#70AD47"/><path d="M97.25 142.625 100.625 142.625 100.625 146 97.25 146Z" fill="#70AD47"/><path d="M104 142.625 107.375 142.625 107.375 146 104 146Z" fill="#70AD47"/><path d="M110.75 142.625 114.125 142.625 114.125 146 110.75 146Z" fill="#70AD47"/><path d="M117.5 142.625 120.875 142.625 120.875 146 117.5 146Z" fill="#70AD47"/><path d="M124.25 142.625 127.625 142.625 127.625 146 124.25 146Z" fill="#70AD47"/><path d="M131 142.625 134.375 142.625 134.375 146 131 146Z" fill="#70AD47"/><path d="M137.75 142.625 141.125 142.625 141.125 146 137.75 146Z" fill="#70AD47"/><path d="M144.5 142.625 147.875 142.625 147.875 146 144.5 146Z" fill="#70AD47"/><path d="M110.75 149.375 114.125 149.375 114.125 152.75 110.75 152.75Z" fill="#70AD47"/><path d="M117.5 149.375 120.875 149.375 120.875 152.75 117.5 152.75Z" fill="#70AD47"/><path d="M124.25 149.375 127.625 149.375 127.625 152.75 124.25 152.75Z" fill="#70AD47"/><path d="M131 149.375 134.375 149.375 134.375 152.75 131 152.75Z" fill="#70AD47"/><path d="M137.75 149.375 141.125 149.375 141.125 152.75 137.75 152.75Z" fill="#70AD47"/><path d="M144.5 149.375 147.875 149.375 147.875 152.75 144.5 152.75Z" fill="#70AD47"/><path d="M117.5 156.125 120.875 156.125 120.875 159.5 117.5 159.5Z" fill="#70AD47"/><path d="M124.25 156.125 127.625 156.125 127.625 159.5 124.25 159.5Z" fill="#70AD47"/><path d="M131 156.125 134.375 156.125 134.375 159.5 131 159.5Z" fill="#70AD47"/><path d="M137.75 156.125 141.125 156.125 141.125 159.5 137.75 159.5Z" fill="#70AD47"/><path d="M144.5 156.125 147.875 156.125 147.875 159.5 144.5 159.5Z" fill="#70AD47"/><path d="M87.1347 96.881 82.3916 140.756 85.7472 141.119 88.5031 115.625 99.247 115.625 101.091 132.681 104.446 132.319 100.615 96.881C100.523 96.0242 99.7992 95.3749 98.9375 95.375L88.8125 95.375C87.9508 95.3749 87.2273 96.0242 87.1347 96.881ZM88.868 112.25 89.4152 107.187 98.3349 107.187 98.882 112.25ZM97.4226 98.75 97.9699 103.812 89.7801 103.812 90.3275 98.75Z" fill="#70AD47"/><path d="M122.872 115.625 124.716 132.681 128.071 132.319 124.24 96.8812C124.148 96.0243 123.424 95.3749 122.563 95.375L112.438 95.375C111.576 95.3749 110.852 96.0243 110.76 96.8812L106.929 132.319 110.284 132.681 112.128 115.625ZM112.493 112.25 113.04 107.187 121.96 107.187 122.507 112.25ZM121.048 98.75 121.595 103.812 113.405 103.812 113.952 98.75Z" fill="#70AD47"/></g></g></g><g clip-path="url(#clip4)"><g clip-path="url(#clip5)"><g clip-path="url(#clip6)"><path d="M785.445 638.71 783.646 638.441C783.306 638.39 775.205 637.207 764.894 638.127 751.048 639.362 739.869 643.875 732.566 651.178 729.568 654.176 727.041 657.829 725.017 662.051 722.993 657.833 720.46 654.19 717.446 651.179 700.648 634.377 670.07 637.943 666.651 638.404 666.474 638.427 666.383 638.44 666.383 638.44L664.571 638.701 664.301 640.51C664.25 640.849 663.066 648.95 663.986 659.261 665.221 673.107 669.734 684.285 677.037 691.588 688.282 702.832 705.507 705 717.113 705 720.214 705 722.911 704.844 724.988 704.666 726.875 704.829 729.526 704.989 732.677 704.989 735.084 704.989 737.782 704.895 740.651 704.639 754.497 703.404 765.676 698.891 772.978 691.588 780.281 684.286 784.794 673.107 786.029 659.261 786.95 648.949 785.766 640.848 785.715 640.508ZM777.573 642.837 742.535 677.875 737.014 653.732C748.9 642.852 768.254 642.352 777.573 642.837ZM712.999 653.732 707.478 677.875 672.418 642.816C681.752 642.288 701.013 642.74 712.999 653.732ZM668.724 646.076 690.618 667.971 671.477 672.348C668.392 662.434 668.381 651.989 668.724 646.076ZM680.514 688.111C677.306 684.903 674.933 681.072 673.187 677.002L694.724 672.076 719.311 696.663C719.386 698.003 719.481 699.139 719.568 700.034 709.545 700.273 691.408 699.006 680.514 688.111ZM719.515 683.505C719.324 685.644 719.225 687.685 719.186 689.584L711.583 681.981 717.019 658.214C719.213 661.184 721.022 664.667 722.421 668.622 720.976 673.132 719.996 678.116 719.515 683.505ZM724.221 696.189C723.763 687.524 724.155 670.174 732.993 658.21L738.43 681.981ZM769.5 688.112C758.355 699.256 739.69 700.337 729.601 699.999L729.521 699.919 729.446 699.994C728.74 699.969 728.078 699.938 727.463 699.902L755.289 672.076 776.828 677.002C775.081 681.072 772.708 684.904 769.5 688.112ZM778.537 672.348 759.394 667.97 781.29 646.074C781.633 651.989 781.622 662.434 778.537 672.348Z" fill="#70AD47"/><path d="M725.006 553.278C691.112 553.278 663.536 580.854 663.536 614.749 663.536 620.435 664.312 626.065 665.842 631.481L670.574 630.145C669.167 625.163 668.454 619.983 668.454 614.749 668.454 600.297 673.905 587.096 682.857 577.089L687.228 594.354 678.534 604.351 680.213 623.407 685.111 622.975 683.616 606.002 692.626 595.64 686.895 573.005C696.955 563.812 710.336 558.197 725.006 558.197 733.797 558.197 742.125 560.213 749.554 563.808L744.971 573.918 750.041 587.711 742.123 600.032 753.446 610.039 759.46 606.518 764.861 613.519 781.493 612.054C781.535 612.948 781.558 613.846 781.558 614.749 781.558 619.98 780.845 625.157 779.438 630.135L784.171 631.472C785.7 626.059 786.476 620.433 786.476 614.749 786.477 580.854 758.901 553.278 725.006 553.278ZM767.111 608.384 760.711 600.086 754.035 603.995 748.542 599.141 755.502 588.311 750.283 574.112 753.893 566.149C768.381 574.793 778.699 589.727 781.048 607.156Z" fill="#70AD47"/><path d="M791.214 664.026 795.332 666.715C796.254 665.303 797.143 663.851 797.974 662.399L793.707 659.956C792.923 661.325 792.084 662.694 791.214 664.026Z" fill="#70AD47"/><path d="M652.17 662.628C652.955 663.99 653.795 665.357 654.664 666.69L658.783 664.005C657.963 662.746 657.171 661.456 656.429 660.171Z" fill="#70AD47"/><path d="M789.307 567.008C776.175 551.128 757.765 540.773 737.471 537.852L736.77 542.719C775.122 548.24 804.043 582.033 804.043 621.322 804.043 633.345 801.322 644.926 795.955 655.745L800.36 657.931C806.067 646.427 808.961 634.11 808.961 621.322 808.961 601.622 801.981 582.332 789.307 567.008Z" fill="#70AD47"/><path d="M722.488 541.923 722.342 537.008C720.659 537.058 718.961 537.157 717.295 537.303L717.724 542.202C719.296 542.064 720.899 541.97 722.488 541.923Z" fill="#70AD47"/><path d="M732.444 537.279C730.779 537.139 729.081 537.045 727.396 537L727.266 541.916C728.857 541.958 730.46 542.047 732.032 542.179Z" fill="#70AD47"/><path d="M645.957 621.304C645.957 582.159 674.774 548.391 712.988 542.758L712.27 537.892C692.058 540.872 673.721 551.24 660.639 567.086 648 582.396 641.039 601.65 641.039 621.304 641.039 634.184 643.977 646.587 649.77 658.169L654.169 655.969C648.72 645.076 645.957 633.413 645.957 621.304Z" fill="#70AD47"/><path d="M717.013 567.253 700.365 577.747 700.251 614.593 725.906 633.546 734.391 614.441 724.366 600.825 732.931 575.415ZM728.736 615.056 723.899 625.949 705.176 612.118 705.274 580.466 717.264 572.908 726.917 577.859 718.888 601.68Z" fill="#70AD47"/><path d="M770.3 626.638 757.579 613.483 744.179 619.28 744.179 631.478 755.17 630.925 765.683 636.406ZM763.422 629.682 756.258 625.947 749.096 626.307 749.096 622.511 756.409 619.347 764.401 627.611Z" fill="#70AD47"/><path d="M716.483 580.079 721.4 580.079 721.4 584.997 716.483 584.997Z" fill="#70AD47"/><path d="M759.635 579.26 764.553 579.26 764.553 584.177 759.635 584.177Z" fill="#70AD47"/><path d="M767.35 592.537 772.268 592.537 772.268 597.455 767.35 597.455Z" fill="#70AD47"/><path d="M709.598 589.915 714.516 589.915 714.516 594.832 709.598 594.832Z" fill="#70AD47"/></g></g></g></g></svg>