<svg width="945" height="945" xmlns="http://www.w3.org/2000/svg" xmlns:xlink="http://www.w3.org/1999/xlink" overflow="hidden"><defs><clipPath id="clip0"><rect x="0" y="0" width="945" height="945"/></clipPath><clipPath id="clip1"><rect x="71" y="53" width="99" height="101"/></clipPath><clipPath id="clip2"><rect x="71" y="53" width="99" height="101"/></clipPath><clipPath id="clip3"><rect x="71" y="53" width="99" height="101"/></clipPath><clipPath id="clip4"><rect x="437" y="834" width="79" height="79"/></clipPath><clipPath id="clip5"><rect x="437" y="834" width="79" height="79"/></clipPath><clipPath id="clip6"><rect x="437" y="834" width="79" height="79"/></clipPath></defs><g clip-path="url(#clip0)"><rect x="0" y="0" width="945" height="945" fill="#F2F2F2"/><text fill="#262626" font-family="Montserrat SemiBold,Montserrat SemiBold_MSFontService,sans-serif" font-weight="600" font-size="48" transform="translate(80.7552 231)">El enfoque de la bioeconomía <tspan font-size="48" x="0" y="57">busca recuperar </tspan><tspan font-family="Montserrat,Montserrat_MSFontService,sans-serif" font-weight="400" font-size="48" x="416.573" y="57">la base </tspan><tspan font-family="Montserrat,Montserrat_MSFontService,sans-serif" font-weight="400" font-size="48" x="0" y="115">biológica de la actividad </tspan><tspan font-family="Montserrat,Montserrat_MSFontService,sans-serif" font-weight="400" font-size="48" x="0" y="173">económica</tspan><tspan font-size="48" x="281.216" y="173">y pone énfasis en la </tspan><tspan font-size="48" x="0" y="230">aplicación de nuevos </tspan><tspan font-size="48" x="0" y="288">conocimientos y en la </tspan><tspan font-family="Montserrat,Montserrat_MSFontService,sans-serif" font-weight="400" font-size="48" x="0" y="345">convergencia de tecnologías </tspan><tspan font-size="48" x="0" y="403">diversas, que cumplen un rol </tspan><tspan font-size="48" x="0" y="461">fundamental para desarrollar </tspan><tspan font-family="Montserrat,Montserrat_MSFontService,sans-serif" font-weight="400" font-size="48" x="0" y="518">nuevos procesos productivos u </tspan><tspan font-family="Montserrat,Montserrat_MSFontService,sans-serif" font-weight="400" font-size="48" x="0" y="576">optimizar los existentes.</tspan></text><path d="M833.5 841.5 854 841.5 874.5 874 854 906.5 833.5 906.5 854 874Z" stroke="#385723" stroke-width="1.33357" stroke-miterlimit="8" fill="none" fill-rule="evenodd"/><path d="M860.5 841.5 881 841.5 901.5 874 881 906.5 860.5 906.5 881 874Z" stroke="#385723" stroke-width="1.33357" stroke-miterlimit="8" fill="none" fill-rule="evenodd"/><g clip-path="url(#clip1)"><g clip-path="url(#clip2)"><g clip-path="url(#clip3)"><path d="M165.595 91.9101 148.918 91.9101C148.166 91.9101 147.558 92.5185 147.558 93.2697L147.558 101.004 137.407 101.004 137.407 93.2697C137.407 92.5185 136.799 91.9101 136.047 91.9101L119.37 91.9101C118.619 91.9101 118.01 92.5185 118.01 93.2697L118.01 109.334 101.469 126.295 99.2326 126.295 94.8265 89.1836C94.7448 88.4994 94.1659 87.9838 93.4759 87.9838L90.2753 87.9838 90.2753 83.495C92.4846 83.375 96.6223 82.753 99.4149 79.9251 103.3 75.9909 102.885 69.5029 102.865 69.2293 102.816 68.5478 102.27 68.0091 101.589 67.9689 101.419 67.9592 98.874 67.8284 96.0375 68.6577 95.1885 62.338 89.7966 57.592 89.5497 57.3773 89.0337 56.9298 88.2666 56.9355 87.7562 57.3887 87.4911 57.6238 81.2694 63.2348 81.313 70.3294 81.3521 76.5347 86.1701 81.5451 87.5562 82.8594L87.5562 87.9844 84.0678 87.9844C83.3784 87.9844 82.7989 88.4994 82.7179 89.1836L81.172 102.204C80.9663 103.938 83.6662 104.261 83.8724 102.525L84.218 99.6143 93.327 99.6143 96.4942 126.295 81.0502 126.295 83.0975 109.051C83.3031 107.315 80.6066 106.968 80.397 108.73L78.3124 126.295 75.5015 126.295C74.7509 126.295 74.1419 126.903 74.1419 127.654L74.1419 148.498C74.1419 149.25 74.7509 149.858 75.5015 149.858L165.595 149.858C166.347 149.858 166.954 149.25 166.954 148.498L166.954 134.631C166.954 132.885 164.235 132.883 164.235 134.631L164.235 147.139 76.8611 147.139 76.8611 129.014 102.043 129.014C102.409 129.014 102.76 128.866 103.016 128.604L120.343 110.836C120.591 110.583 120.729 110.241 120.729 109.887L120.729 94.6292 134.688 94.6292 134.688 109.887C134.688 110.638 135.296 111.246 136.047 111.246L148.918 111.246C149.669 111.246 150.277 110.638 150.277 109.887L150.277 94.6292 164.235 94.6292 164.235 127.561C164.235 129.306 166.954 129.309 166.954 127.561L166.954 93.2697C166.954 92.519 166.347 91.9101 165.595 91.9101ZM137.407 103.724 147.558 103.724 147.558 108.527 137.407 108.527ZM92.2688 90.703 93.004 96.8951 84.5397 96.8951 85.2756 90.703ZM100.147 70.705C100.06 72.5251 99.5962 75.8724 97.4805 78.0143 95.3635 80.1584 92.0195 80.6637 90.2017 80.7725 90.2266 80.2502 90.2833 79.5992 90.4028 78.881 90.6702 77.2795 91.3148 75.0391 92.8715 73.4626 94.9873 71.3202 98.329 70.8143 100.147 70.705ZM90.9371 71.5524C88.7877 73.7283 87.9556 76.6842 87.6435 78.9388 86.0313 76.9505 84.0542 73.8053 84.0321 70.3124 84.0044 65.9244 87.0997 62.0185 88.6711 60.3196 90.1989 61.9307 93.1514 65.5545 93.4137 69.7204 92.5339 70.194 91.6859 70.7933 90.9371 71.5524Z" fill="#385723"/><path d="M129.47 119.548 123.667 119.548C122.916 119.548 122.307 120.157 122.307 120.908L122.307 138.829C122.307 139.581 122.916 140.189 123.667 140.189L129.47 140.189C130.222 140.189 130.83 139.581 130.83 138.829L130.83 120.908C130.83 120.157 130.221 119.548 129.47 119.548ZM128.111 137.469 125.026 137.469 125.026 122.267 128.111 122.267Z" fill="#385723"/><path d="M143.067 119.548 137.263 119.548C136.513 119.548 135.904 120.157 135.904 120.908L135.904 138.829C135.904 139.581 136.513 140.189 137.263 140.189L143.067 140.189C143.818 140.189 144.426 139.581 144.426 138.829L144.426 120.908C144.426 120.157 143.818 119.548 143.067 119.548ZM141.707 137.469 138.623 137.469 138.623 122.267 141.707 122.267Z" fill="#385723"/><path d="M156.663 119.548 150.859 119.548C150.109 119.548 149.5 120.157 149.5 120.908L149.5 138.829C149.5 139.581 150.109 140.189 150.859 140.189L156.663 140.189C157.414 140.189 158.023 139.581 158.023 138.829L158.023 120.908C158.023 120.157 157.414 119.548 156.663 119.548ZM155.303 137.469 152.219 137.469 152.219 122.267 155.303 122.267Z" fill="#385723"/><path d="M113.932 137.531 83.115 137.531C82.3644 137.531 81.7555 138.14 81.7555 138.891 81.7555 139.642 82.3644 140.25 83.115 140.25L113.932 140.25C114.682 140.25 115.291 139.642 115.291 138.891 115.291 138.14 114.682 137.531 113.932 137.531Z" fill="#385723"/><path d="M160.015 63.5984C159.774 63.7004 159.576 63.6693 159.42 63.5056 158.116 59.6416 154.55 57.0454 150.547 57.0454 145.769 57.0454 141.813 60.7105 141.235 65.4321 139.068 65.9159 137.214 67.4466 136.326 69.5692 135.553 71.4159 136.978 73.5119 138.966 73.5119L153.54 73.5119C155.288 73.5119 155.314 70.7928 153.54 70.7928L138.966 70.7928C138.859 70.7769 138.816 70.7191 138.834 70.6183 139.479 69.0775 140.944 68.0465 142.568 67.9915 143.3 67.9666 143.881 67.3656 143.881 66.6325 143.881 66.6263 143.881 66.6189 143.881 66.6127 143.889 62.8348 146.877 59.7645 150.547 59.7645 153.383 59.7645 155.913 61.6169 156.843 64.3745 157.329 65.8123 158.621 66.3176 160.014 66.3176 162.342 66.3176 164.235 68.2719 164.235 70.6863 164.235 70.7407 164.17 70.7928 164.1 70.7928L161.154 70.7928C159.406 70.7928 159.38 73.5119 161.154 73.5119L164.101 73.5119C165.67 73.5119 166.95 72.2475 166.954 70.6936 166.954 70.6919 166.954 70.6755 166.954 70.6749 166.954 66.7724 163.841 63.5984 160.015 63.5984Z" fill="#385723"/><path d="M107.605 86.4118 132.74 86.4118C134.304 86.4118 135.57 85.1225 135.594 83.5754 135.594 79.6729 132.48 76.4979 128.654 76.4979 128.415 76.5998 128.217 76.5692 128.059 76.4055 126.756 72.5414 123.19 69.9459 119.187 69.9459 114.409 69.9459 110.452 73.611 109.874 78.3326 107.708 78.8159 105.854 80.3471 104.966 82.469 104.193 84.3159 105.618 86.4118 107.605 86.4118ZM132.875 83.5869C132.875 83.6412 132.809 83.6927 132.74 83.6927L107.605 83.6927C107.499 83.6775 107.456 83.619 107.474 83.5188 108.119 81.978 109.585 80.9469 111.207 80.8915 111.94 80.8666 112.521 80.2655 112.521 79.5324 112.521 79.5285 112.521 79.5234 112.521 79.5183 112.526 75.7387 115.514 72.665 119.187 72.665 122.023 72.665 124.553 74.5173 125.483 77.275 125.969 78.7151 127.26 79.217 128.654 79.217 130.982 79.217 132.875 81.1718 132.875 83.5754Z" fill="#385723"/></g></g></g><g clip-path="url(#clip4)"><g clip-path="url(#clip5)"><g clip-path="url(#clip6)"><path d="M512.528 906.057 507.087 906.057C507.052 903.895 505.553 902.083 503.54 901.572L503.54 882.837C503.54 882.793 503.537 882.75 503.533 882.708L509.641 876.599C510.093 876.147 510.093 875.414 509.641 874.962 509.19 874.511 508.457 874.51 508.005 874.962L488.689 894.278C488.47 894.497 488.18 894.617 487.871 894.617 487.562 894.617 487.271 894.497 487.052 894.278 486.834 894.059 486.714 893.769 486.714 893.46 486.714 893.151 486.834 892.86 487.052 892.641L511.71 867.984C512.161 867.533 512.896 867.533 513.347 867.984 513.798 868.435 513.798 869.169 513.347 869.62L511.495 871.472C511.043 871.924 511.043 872.656 511.495 873.108 511.947 873.56 512.68 873.56 513.132 873.108L514.983 871.257C516.337 869.903 516.337 867.701 514.983 866.347 513.63 864.994 511.427 864.994 510.074 866.347L485.416 891.005C484.76 891.661 484.399 892.532 484.399 893.46 484.399 894.387 484.76 895.259 485.416 895.914 486.072 896.57 486.943 896.931 487.871 896.931 488.798 896.931 489.67 896.57 490.326 895.915L501.226 885.014 501.226 901.572C499.213 902.083 497.714 903.895 497.679 906.056L483.388 906.056C483.353 903.895 481.854 902.083 479.841 901.572L479.841 882.837C479.841 882.793 479.838 882.75 479.833 882.708L491.284 871.257 491.284 871.257C492.637 869.904 492.637 867.701 491.284 866.347 489.93 864.994 487.728 864.994 486.374 866.347L461.716 891.005C461.061 891.661 460.7 892.532 460.7 893.46 460.7 894.387 461.061 895.259 461.716 895.914 462.372 896.57 463.244 896.931 464.171 896.931 465.099 896.931 465.97 896.57 466.626 895.915L477.526 885.014 477.526 901.572C475.513 902.083 474.014 903.895 473.979 906.056L459.688 906.056C459.653 903.895 458.154 902.083 456.141 901.572L456.141 882.837C456.141 882.793 456.138 882.75 456.134 882.708L467.584 871.257C468.938 869.904 468.938 867.701 467.584 866.347 466.231 864.994 464.028 864.994 462.675 866.347L444.239 884.782C443.787 885.235 443.787 885.967 444.239 886.419 444.691 886.871 445.424 886.871 445.876 886.419L464.311 867.984C464.762 867.533 465.496 867.533 465.947 867.984 466.399 868.435 466.399 869.169 465.947 869.62L441.29 894.278C441.071 894.497 440.781 894.617 440.472 894.617 440.163 894.617 439.872 894.497 439.653 894.278 439.435 894.059 439.314 893.769 439.314 893.46 439.314 893.151 439.435 892.86 439.653 892.641L442.385 889.91C442.837 889.458 442.837 888.725 442.385 888.273 441.933 887.821 441.201 887.821 440.749 888.273L438.017 891.005C437.361 891.661 437 892.532 437 893.46 437 894.387 437.361 895.259 438.017 895.914 438.673 896.57 439.544 896.931 440.472 896.931 441.399 896.931 442.271 896.57 442.927 895.915L453.827 885.014 453.827 901.572C451.814 902.083 450.315 903.895 450.28 906.056L440.472 906.056C438.557 906.057 437 907.614 437 909.528 437 911.443 438.557 913 440.472 913L512.528 913C514.443 913 516 911.443 516 909.528 516 907.614 514.443 906.057 512.528 906.057ZM464.989 894.278C464.771 894.497 464.48 894.617 464.171 894.617 463.862 894.617 463.572 894.497 463.353 894.278 463.134 894.059 463.014 893.769 463.014 893.46 463.014 893.151 463.134 892.86 463.353 892.641L488.011 867.984C488.236 867.758 488.533 867.646 488.829 867.646 489.125 867.646 489.422 867.758 489.647 867.984 490.098 868.435 490.098 869.169 489.647 869.62ZM502.383 903.742C503.676 903.742 504.732 904.773 504.773 906.057L499.993 906.057C500.033 904.773 501.09 903.742 502.383 903.742ZM478.683 903.742C479.976 903.742 481.033 904.773 481.074 906.057L476.293 906.057C476.334 904.773 477.39 903.742 478.683 903.742ZM454.984 903.742C456.277 903.742 457.333 904.773 457.374 906.057L452.594 906.057C452.634 904.773 453.691 903.742 454.984 903.742ZM512.528 910.686 440.472 910.686C439.833 910.686 439.314 910.166 439.314 909.528 439.314 908.89 439.833 908.371 440.472 908.371L512.528 908.371C513.166 908.371 513.686 908.89 513.686 909.528 513.686 910.166 513.166 910.686 512.528 910.686Z" fill="#385723"/><path d="M453.587 858.842C458.139 858.842 461.842 855.139 461.842 850.587 461.842 846.035 458.139 842.332 453.587 842.332 452.379 842.332 451.214 842.587 450.125 843.091 449.545 843.359 449.293 844.047 449.561 844.627 449.829 845.207 450.517 845.46 451.097 845.192 451.879 844.83 452.717 844.646 453.587 844.646 456.862 844.646 459.527 847.311 459.527 850.587 459.527 853.862 456.862 856.527 453.587 856.527 450.311 856.527 447.646 853.862 447.646 850.587 447.646 849.696 447.839 848.84 448.217 848.042 448.491 847.465 448.246 846.775 447.668 846.5 447.091 846.227 446.401 846.472 446.126 847.049 445.599 848.16 445.332 849.35 445.332 850.587 445.332 855.139 449.035 858.842 453.587 858.842Z" fill="#385723"/><path d="M453.587 838.166C454.226 838.166 454.744 837.648 454.744 837.009L454.744 835.157C454.744 834.518 454.226 834 453.587 834 452.948 834 452.43 834.518 452.43 835.157L452.43 837.009C452.43 837.648 452.948 838.166 453.587 838.166Z" fill="#385723"/><path d="M452.43 864.165 452.43 866.017C452.43 866.656 452.948 867.174 453.587 867.174 454.226 867.174 454.744 866.656 454.744 866.017L454.744 864.165C454.744 863.526 454.226 863.008 453.587 863.008 452.948 863.008 452.43 863.526 452.43 864.165Z" fill="#385723"/><path d="M463.188 842.143C463.484 842.143 463.781 842.03 464.006 841.804L465.316 840.495C465.768 840.043 465.768 839.31 465.316 838.858 464.864 838.406 464.131 838.406 463.679 838.858L462.37 840.168C461.918 840.62 461.918 841.352 462.37 841.804 462.596 842.03 462.892 842.143 463.188 842.143Z" fill="#385723"/><path d="M442.677 862.655C442.973 862.655 443.269 862.542 443.495 862.316L444.804 861.006C445.256 860.555 445.256 859.822 444.804 859.37 444.352 858.918 443.619 858.918 443.168 859.37L441.858 860.679C441.406 861.131 441.406 861.864 441.858 862.316 442.084 862.542 442.38 862.655 442.677 862.655Z" fill="#385723"/><path d="M467.165 851.744 469.017 851.744C469.656 851.744 470.174 851.226 470.174 850.587 470.174 849.948 469.656 849.43 469.017 849.43L467.165 849.43C466.526 849.43 466.008 849.948 466.008 850.587 466.008 851.226 466.526 851.744 467.165 851.744Z" fill="#385723"/><path d="M438.157 851.744 440.009 851.744C440.648 851.744 441.166 851.226 441.166 850.587 441.166 849.948 440.648 849.43 440.009 849.43L438.157 849.43C437.518 849.43 437 849.948 437 850.587 437 851.226 437.518 851.744 438.157 851.744Z" fill="#385723"/><path d="M463.679 862.316C463.905 862.542 464.201 862.655 464.497 862.655 464.793 862.655 465.09 862.542 465.315 862.316 465.767 861.864 465.767 861.131 465.315 860.679L464.006 859.37C463.554 858.918 462.822 858.918 462.37 859.37 461.918 859.822 461.918 860.555 462.37 861.006Z" fill="#385723"/><path d="M443.167 841.804C443.393 842.03 443.69 842.143 443.986 842.143 444.282 842.143 444.578 842.03 444.804 841.804 445.256 841.352 445.256 840.619 444.804 840.168L443.495 838.858C443.043 838.406 442.31 838.406 441.858 838.858 441.406 839.31 441.406 840.043 441.858 840.495Z" fill="#385723"/></g></g></g></g></svg>