<svg width="945" height="945" xmlns="http://www.w3.org/2000/svg" xmlns:xlink="http://www.w3.org/1999/xlink" overflow="hidden"><defs><clipPath id="clip0"><rect x="0" y="0" width="945" height="945"/></clipPath><clipPath id="clip1"><rect x="721" y="49" width="151" height="149"/></clipPath><clipPath id="clip2"><rect x="721" y="49" width="151" height="149"/></clipPath><clipPath id="clip3"><rect x="721" y="49" width="151" height="149"/></clipPath></defs><g clip-path="url(#clip0)"><rect x="0" y="0" width="945" height="945" fill="#92D050"/><text fill="#181717" font-family="Montserrat SemiBold,Montserrat SemiBold_MSFontService,sans-serif" font-style="oblique" font-weight="600" font-size="48" transform="translate(163.393 420)">“es la utilización intensiva de <tspan font-size="48" x="0" y="57">conocimientos en recursos, </tspan><tspan font-size="48" x="0" y="115">procesos, tecnologías y </tspan><tspan font-size="48" x="0" y="173">principios biológicos para la </tspan><tspan font-size="48" x="0" y="230">producción sostenible de </tspan><tspan font-size="48" x="0" y="288">bienes y servicios en todos </tspan><tspan font-size="48" x="0" y="345">los sectores de la economía”</tspan></text><path d="M831 841 851.5 841 872 873.5 851.5 906 831 906 851.5 873.5Z" stroke="#385723" stroke-width="3.66731" stroke-miterlimit="8" fill="none" fill-rule="evenodd"/><path d="M860 841 880.5 841 901 873.5 880.5 906 860 906 880.5 873.5Z" stroke="#385723" stroke-width="3.66731" stroke-miterlimit="8" fill="none" fill-rule="evenodd"/><g clip-path="url(#clip1)"><g clip-path="url(#clip2)"><g clip-path="url(#clip3)"><path d="M39.5781 121.062 44.2344 121.062 44.2344 125.719 39.5781 125.719ZM39.5781 97.7812 44.2344 97.7812 44.2344 93.125 39.5781 93.125ZM44.2344 83.8125 39.5781 83.8125 39.5781 88.4687 44.2344 88.4687ZM44.2344 74.5 39.5781 74.5 39.5781 79.1562 44.2344 79.1562ZM48.8906 121.062 48.8906 125.719 53.5468 125.719 53.5468 121.062ZM58.2031 121.062 58.2031 125.719 62.8593 125.719 62.8593 121.062ZM76.9445 88.6474C76.4538 87.4589 75.0928 86.8931 73.9043 87.3838 73.4834 87.5575 73.1226 87.8509 72.8668 88.2274L63.1672 102.501 60.2862 96.7388C59.7108 95.589 58.3125 95.1231 57.1624 95.6984 56.7518 95.9039 56.4107 96.2263 56.1829 96.625L46.8704 112.922 50.9132 115.232 58.0675 102.712 60.7783 108.134C61.3533 109.284 62.752 109.75 63.9018 109.175 64.258 108.997 64.5624 108.73 64.7862 108.401L74.289 94.4171 77.0053 100.997C77.496 102.185 78.857 102.751 80.0456 102.261 80.4562 102.091 80.8101 101.807 81.0647 101.443L93.125 84.2138 93.125 86.1406 97.7812 86.1406 97.7812 76.8281C97.7812 75.5424 96.7388 74.5 95.4531 74.5 95.2628 74.5 95.073 74.5232 94.8885 74.5695L85.576 76.8976 86.7052 81.4148 89.9724 80.5979 79.6861 95.2921ZM60.5312 74.5 48.8906 74.5 48.8906 79.1562 60.5312 79.1562ZM48.8906 88.4687 53.5468 88.4687 53.5468 83.8125 48.8906 83.8125ZM100.109 102.437 100.109 109.952C102.515 109.102 105.194 109.633 107.094 111.336 109.742 108.96 113.754 108.959 116.404 111.334 117.767 110.104 119.563 109.466 121.397 109.561L121.397 109.561C125.157 109.771 128.087 112.902 128.047 116.668L128.047 135.162C128.041 140.303 123.875 144.469 118.734 144.474L86.1406 144.474C85.5847 144.474 85.0472 144.276 84.6253 143.914L74.2613 135.031 32.5937 135.031C32.3132 135.031 32.0353 134.979 31.7731 134.88 29.7421 140.552 24.3679 144.339 18.3424 144.344L6.98437 144.344C5.69858 144.344 4.65625 143.301 4.65625 142.016L4.65625 113.399C4.62229 103.461 9.96609 94.282 18.625 89.4049L18.625 69.8437C18.6308 64.7029 22.7967 60.537 27.9375 60.5312L60.5312 60.5312 60.5312 65.1875 34.9219 65.1875 34.9219 100.117C36.8437 100.191 38.6576 101.025 39.9634 102.437L44.2344 102.437 44.2344 107.094 41.899 107.094C41.9027 107.188 41.9062 107.281 41.9062 107.376L41.9062 107.689C41.9042 109.136 41.4717 110.55 40.6645 111.75L44.2344 111.75 44.2344 116.406 39.5781 116.406 39.5781 113.149 34.9219 118.969 34.9219 130.375 69.0393 130.375C67.7146 128.693 67.2185 126.504 67.6885 124.415 68.4704 121.15 71.3966 118.852 74.7543 118.866L75.1498 118.866C76.7644 118.868 78.3303 119.417 79.5924 120.424L86.1403 125.662 86.1403 102.306C86.1441 100.397 86.9254 98.5722 88.304 97.2521 89.6828 95.9263 91.5491 95.2304 93.4593 95.3294 97.2201 95.5392 100.15 98.6711 100.109 102.437ZM23.2812 108.458 29.5011 102.238C29.7403 101.999 29.9958 101.777 30.2656 101.573L30.2656 65.1875 27.9375 65.1875C25.3672 65.1904 23.2843 67.2735 23.2812 69.8437ZM36.6778 109.32C37.0474 108.857 37.2491 108.282 37.25 107.69L37.25 107.377C37.2503 105.935 36.0816 104.766 34.6402 104.766 33.9472 104.766 33.2831 105.041 32.7934 105.531L22.5994 115.724C21.6902 116.633 20.2161 116.633 19.3069 115.724 18.8703 115.288 18.625 114.696 18.625 114.078L18.625 94.9365C12.7478 99.2479 9.28665 106.11 9.3125 113.399L9.3125 139.687 18.3424 139.687C23.6416 139.687 27.9375 135.391 27.9375 130.092L27.9375 122.795C27.9395 121.145 28.5009 119.545 29.5299 118.255ZM100.109 116.538C100.109 117.823 99.0669 118.866 97.7812 118.866 96.4955 118.866 95.4531 117.823 95.4531 116.538L95.4531 102.437C95.4755 101.165 94.5093 100.092 93.2414 99.9807 91.9571 99.9164 90.8641 100.905 90.7997 102.19 90.7977 102.228 90.7968 102.267 90.7968 102.306L90.7968 130.505C90.7971 131.791 89.755 132.834 88.4693 132.834 87.9402 132.834 87.4266 132.654 87.0136 132.323L76.6826 124.058C76.2466 123.711 75.7059 123.521 75.1483 123.52L74.7529 123.52C73.5713 123.495 72.5275 124.285 72.2312 125.429 72.0292 126.319 72.336 127.247 73.028 127.841L87.0002 139.817 118.734 139.817C121.305 139.814 123.388 137.731 123.391 135.161L123.391 116.668C123.413 115.395 122.447 114.323 121.179 114.211 120.542 114.181 119.919 114.412 119.457 114.852 118.994 115.29 118.732 115.9 118.734 116.538 118.734 117.823 117.692 118.866 116.406 118.866 115.12 118.866 114.078 117.823 114.078 116.538 114.078 115.252 113.036 114.21 111.75 114.21 110.464 114.21 109.422 115.252 109.422 116.538 109.422 117.823 108.379 118.866 107.094 118.866 105.808 118.866 104.766 117.823 104.766 116.538 104.766 115.252 103.723 114.21 102.437 114.21 101.152 114.21 100.109 115.252 100.109 116.538ZM144.344 16.8579 144.344 57.642C144.336 64.3776 138.878 69.8362 132.142 69.8437L124.355 69.8437 121.062 73.136 121.062 104.766 116.406 104.766 116.406 77.7925 109.422 84.7769 109.422 104.766 104.766 104.766 104.766 69.8437 77.3892 69.8437C70.6536 69.8362 65.195 64.3776 65.1875 57.642L65.1875 16.8579C65.195 10.1223 70.6536 4.66396 77.3892 4.65625L132.142 4.65625C138.878 4.66396 144.336 10.1223 144.344 16.8579ZM139.687 16.8579C139.683 12.6926 136.307 9.31715 132.142 9.3125L77.3892 9.3125C73.2239 9.31715 69.8484 12.6926 69.8437 16.8579L69.8437 57.642C69.8484 61.8073 73.2239 65.1828 77.3892 65.1875L107.094 65.1875C108.379 65.1875 109.422 66.2299 109.422 67.5156L109.422 78.1921 121.744 65.8693C122.181 65.4328 122.773 65.1875 123.391 65.1875L132.142 65.1875C136.307 65.1828 139.683 61.8073 139.687 57.642ZM132.703 39.5781 132.703 41.9062C132.703 43.1919 131.661 44.2344 130.375 44.2344L107.094 44.2344 107.094 55.875 132.703 55.875 132.703 60.5312 76.8281 60.5312 76.8281 55.875 102.437 55.875 102.437 51.2187 100.109 51.2187C95.8646 51.2135 92.1585 48.3429 91.0916 44.2344L79.1562 44.2344C77.8705 44.2344 76.8281 43.1919 76.8281 41.9062L76.8281 39.5781C76.8339 34.4373 80.9998 30.2714 86.1406 30.2656 86.1464 25.1248 90.3123 20.9589 95.4531 20.9531 95.4531 15.81 99.6225 11.6406 104.766 11.6406 109.909 11.6406 114.078 15.81 114.078 20.9531 119.219 20.9589 123.385 25.1248 123.391 30.2656 128.531 30.2714 132.697 34.4373 132.703 39.5781ZM102.437 44.2344 96.0831 44.2344C96.9137 45.6731 98.4479 46.5602 100.109 46.5625L102.437 46.5625ZM128.047 39.5781C128.044 37.0079 125.961 34.9248 123.391 34.9219L121.062 34.9219C119.777 34.9219 118.734 33.8794 118.734 32.5937L118.734 30.2656C118.731 27.6953 116.648 25.6124 114.078 25.6094L111.75 25.6094C110.464 25.6094 109.422 24.567 109.422 23.2812L109.422 20.9531C109.422 18.3815 107.337 16.2969 104.766 16.2969 102.194 16.2969 100.109 18.3815 100.109 20.9531L100.109 23.2812C100.109 24.567 99.0669 25.6094 97.7812 25.6094L95.4531 25.6094C92.8828 25.6124 90.7997 27.6953 90.7968 30.2656L90.7968 32.5937C90.7968 33.8794 89.7544 34.9219 88.4687 34.9219L86.1406 34.9219C83.5703 34.9248 81.4872 37.0079 81.4843 39.5781L102.437 39.5781 102.437 30.2656 107.094 30.2656 107.094 39.5781C109.664 39.5752 111.747 37.4921 111.75 34.9219L116.406 34.9219C116.407 36.5574 115.975 38.1641 115.153 39.5781ZM86.1406 13.9687 76.8281 13.9687 76.8281 18.625 86.1406 18.625ZM81.4843 23.2812 74.5 23.2812 74.5 27.9375 81.4843 27.9375ZM128.047 13.9687 118.734 13.9687 118.734 18.625 128.047 18.625ZM128.047 27.9375 135.031 27.9375 135.031 23.2812 128.047 23.2812Z" fill="#548235" transform="matrix(1.00671 0 0 1 722 49)"/></g></g></g><text fill="#385723" font-family="Archistico,Archistico_MSFontService,sans-serif" font-weight="700" font-size="101" transform="translate(51.067 312)">BIOECONOMÍA</text></g></svg>