<svg width="945" height="945" xmlns="http://www.w3.org/2000/svg" xmlns:xlink="http://www.w3.org/1999/xlink" overflow="hidden"><defs><clipPath id="clip0"><rect x="0" y="0" width="945" height="945"/></clipPath><clipPath id="clip1"><rect x="81" y="717" width="141" height="140"/></clipPath><clipPath id="clip2"><rect x="81" y="717" width="141" height="140"/></clipPath><clipPath id="clip3"><rect x="81" y="717" width="141" height="140"/></clipPath><clipPath id="clip4"><rect x="687" y="40" width="100" height="99"/></clipPath><clipPath id="clip5"><rect x="687" y="40" width="100" height="99"/></clipPath><clipPath id="clip6"><rect x="687" y="40" width="100" height="99"/></clipPath></defs><g clip-path="url(#clip0)"><rect x="0" y="0" width="945" height="945" fill="#92D050"/><text fill="#181717" font-family="Montserrat SemiBold,Montserrat SemiBold_MSFontService,sans-serif" font-weight="600" font-size="48" transform="translate(90.5446 223)">Este planteo de la economía <tspan font-size="48" x="0" y="57">permite migrar a </tspan><tspan font-family="Montserrat,Montserrat_MSFontService,sans-serif" font-weight="400" font-size="48" x="433.41" y="57">estrategias </tspan><tspan font-family="Montserrat,Montserrat_MSFontService,sans-serif" font-weight="400" font-size="48" x="0" y="115">industriales más circulares </tspan><tspan font-size="48" x="650.448" y="115">en </tspan><tspan font-size="48" x="0" y="173">las que se aprovechan las </tspan><tspan font-size="48" x="0" y="230">tecnologías en cascada y los </tspan><tspan font-size="48" x="0" y="288">procesos de reciclado para el </tspan><tspan font-family="Montserrat,Montserrat_MSFontService,sans-serif" font-weight="400" font-size="48" x="0" y="345">desarrollo de cadenas de valor </tspan><tspan font-family="Montserrat,Montserrat_MSFontService,sans-serif" font-weight="400" font-size="48" x="0" y="403">completamente nuevas</tspan></text><path d="M833.5 841.5 854 841.5 874.5 874 854 906.5 833.5 906.5 854 874Z" stroke="#385723" stroke-width="1.33357" stroke-miterlimit="8" fill="none" fill-rule="evenodd"/><path d="M860.5 841.5 881 841.5 901.5 874 881 906.5 860.5 906.5 881 874Z" stroke="#385723" stroke-width="1.33357" stroke-miterlimit="8" fill="none" fill-rule="evenodd"/><g clip-path="url(#clip1)"><g clip-path="url(#clip2)"><g clip-path="url(#clip3)"><path d="M109.438 852.625 168.5 852.625C181.789 852.625 192.563 841.852 192.563 828.562 192.563 815.273 181.789 804.5 168.5 804.5L137.875 804.5 137.875 795.75C137.875 794.542 136.896 793.562 135.688 793.562L124.75 793.562C123.982 793.562 123.27 793.966 122.874 794.625L116.949 804.5 109.438 804.5C96.1481 804.5 85.375 815.273 85.375 828.562 85.375 841.852 96.1481 852.625 109.438 852.625ZM188.188 828.562C188.188 839.435 179.373 848.25 168.5 848.25 157.627 848.25 148.813 839.435 148.813 828.562 148.813 817.69 157.627 808.875 168.5 808.875 179.368 808.887 188.175 817.694 188.188 828.562ZM118.188 808.875C118.956 808.875 119.668 808.472 120.063 807.813L125.988 797.938 133.5 797.938 133.5 804.5 129.125 804.5 129.125 808.875 154.681 808.875C152.917 810.117 151.327 811.588 149.952 813.25L124.75 813.25 124.75 817.625 147.07 817.625C146.353 819.023 145.776 820.489 145.347 822L131.313 822 131.313 826.375 144.538 826.375C144.473 827.096 144.438 827.825 144.438 828.562 144.438 829.3 144.473 830.029 144.538 830.75L118.188 830.75 118.188 835.125 145.347 835.125C145.776 836.636 146.353 838.102 147.07 839.5L133.5 839.5 133.5 843.875 149.952 843.875C151.327 845.537 152.917 847.008 154.681 848.25L109.438 848.25C104.939 848.254 100.576 846.709 97.0822 843.875L116 843.875 116 839.5 93.0769 839.5C92.1645 838.139 91.4261 836.669 90.8789 835.125L100.688 835.125 100.688 830.75 89.8745 830.75C89.7085 829.296 89.7085 827.829 89.8745 826.375L116 826.375 116 822 90.8789 822C91.4261 820.456 92.1645 818.986 93.0769 817.625L109.438 817.625 109.438 813.25 97.0822 813.25C100.576 810.416 104.939 808.871 109.438 808.875Z" fill="#548235"/><path d="M120.375 839.5 124.75 839.5 124.75 843.875 120.375 843.875Z" fill="#548235"/><path d="M113.813 813.25 118.188 813.25 118.188 817.625 113.813 817.625Z" fill="#548235"/><path d="M109.438 830.75 113.813 830.75 113.813 835.125 109.438 835.125Z" fill="#548235"/><path d="M168.5 841.688C175.749 841.688 181.625 835.811 181.625 828.562 181.625 821.314 175.749 815.438 168.5 815.438L168.5 819.812C173.332 819.812 177.25 823.73 177.25 828.562 177.25 833.395 173.332 837.312 168.5 837.312 163.668 837.312 159.75 833.395 159.75 828.562L155.375 828.562C155.383 835.808 161.255 841.679 168.5 841.688Z" fill="#548235"/><path d="M107.25 769.5 122.563 769.5 122.563 789.188 126.938 789.188 126.938 769.5 142.25 769.5 142.25 800.125 146.625 800.125 146.625 769.5 161.938 769.5 161.938 800.125 166.313 800.125 166.313 784.812 210.063 784.812 210.063 848.25 194.75 848.25 194.75 852.625 212.25 852.625C213.458 852.625 214.438 851.646 214.438 850.438L214.438 782.625C214.438 781.417 213.458 780.438 212.25 780.438L196.938 780.438 196.938 753.171 198.886 751.872C201.771 749.953 203.504 746.716 203.5 743.25 203.498 741.248 204.499 739.377 206.166 738.268 208.603 736.648 210.066 733.914 210.063 730.988L210.063 721.375 205.688 721.375 205.688 730.988C205.689 732.451 204.957 733.818 203.739 734.628 200.854 736.547 199.121 739.784 199.125 743.25 199.127 745.252 198.126 747.123 196.459 748.232L194.088 749.813 177.912 749.813 175.541 748.232C173.874 747.123 172.873 745.252 172.875 743.25 172.879 739.784 171.146 736.547 168.261 734.628 167.043 733.818 166.311 732.451 166.313 730.988L166.313 721.375 161.938 721.375 161.938 730.988C161.935 733.914 163.397 736.648 165.834 738.268 167.501 739.377 168.502 741.248 168.5 743.25 168.496 746.716 170.229 749.953 173.114 751.872L175.063 753.171 175.063 780.438 166.313 780.438 166.313 767.312C166.313 766.518 165.882 765.786 165.187 765.4L145.5 754.463C144.444 753.876 143.112 754.257 142.525 755.313 142.345 755.638 142.25 756.003 142.25 756.375L142.25 763.595 125.812 754.463C124.756 753.876 123.424 754.257 122.838 755.313 122.657 755.638 122.563 756.003 122.563 756.375L122.563 763.595 106.125 754.463C105.069 753.876 103.737 754.257 103.15 755.313 102.97 755.638 102.875 756.003 102.875 756.375L102.875 800.125 107.25 800.125ZM188.188 780.438 188.188 762.938 192.563 762.938 192.563 780.438ZM192.563 758.563 188.188 758.563 188.188 754.188 192.563 754.188ZM183.813 754.188 183.813 758.563 179.438 758.563 179.438 754.188ZM179.438 762.938 183.813 762.938 183.813 780.438 179.438 780.438ZM155.683 765.125 146.625 765.125 146.625 760.093ZM135.996 765.125 126.938 765.125 126.938 760.093ZM107.25 760.093 116.308 765.125 107.25 765.125Z" fill="#548235"/><path d="M111.625 773.875 118.188 773.875 118.188 778.25 111.625 778.25Z" fill="#548235"/><path d="M131.313 773.875 137.875 773.875 137.875 778.25 131.313 778.25Z" fill="#548235"/><path d="M151 773.875 157.563 773.875 157.563 778.25 151 778.25Z" fill="#548235"/><path d="M172.875 791.375 177.25 791.375 177.25 795.75 172.875 795.75Z" fill="#548235"/><path d="M181.625 791.375 186 791.375 186 795.75 181.625 795.75Z" fill="#548235"/><path d="M190.375 791.375 194.75 791.375 194.75 795.75 190.375 795.75Z" fill="#548235"/><path d="M199.125 791.375 203.5 791.375 203.5 795.75 199.125 795.75Z" fill="#548235"/><path d="M190.375 800.125 194.75 800.125 194.75 804.5 190.375 804.5Z" fill="#548235"/><path d="M199.125 800.125 203.5 800.125 203.5 804.5 199.125 804.5Z" fill="#548235"/><path d="M199.125 808.875 203.5 808.875 203.5 813.25 199.125 813.25Z" fill="#548235"/><path d="M199.125 817.625 203.5 817.625 203.5 822 199.125 822Z" fill="#548235"/><path d="M199.125 826.375 203.5 826.375 203.5 830.75 199.125 830.75Z" fill="#548235"/><path d="M199.125 835.125 203.5 835.125 203.5 839.5 199.125 839.5Z" fill="#548235"/><path d="M171.319 732.965 175.694 728.591 178.787 731.684 174.413 736.058Z" fill="#548235"/><path d="M175.691 739.524 180.065 735.15 183.158 738.243 178.784 742.617Z" fill="#548235"/><path d="M191.003 731.682 194.096 728.589 198.47 732.963 195.377 736.057Z" fill="#548235"/><path d="M188.814 740.431 191.907 737.338 196.282 741.712 193.189 744.805Z" fill="#548235"/></g></g></g><g clip-path="url(#clip4)"><g clip-path="url(#clip5)"><g clip-path="url(#clip6)"><path d="M699.319 92.6316C698.35 81.7305 702.165 71.0331 709.784 63.2824 715.474 57.4951 722.721 53.7967 730.741 52.5875 738.492 51.4188 746.566 52.7468 753.473 56.3277 753.942 56.5709 753.995 57.045 753.625 57.4537L750.284 60.8007C748.065 63.0245 749.594 66.9665 752.834 66.9654L752.842 66.9654 770.268 66.9292C772.263 66.9246 773.885 65.2988 773.884 63.3046L773.866 45.9052C773.896 42.7111 769.859 41.1487 767.691 43.364L763.576 47.4864C763.338 47.7244 762.969 47.7723 762.698 47.6009 752.338 41.0576 739.934 38.6248 727.772 40.7512 726.983 40.889 726.455 41.6403 726.593 42.4292 726.731 43.2182 727.482 43.746 728.271 43.608 739.724 41.6065 751.4 43.8951 761.149 50.0526 762.557 50.9426 764.441 50.7253 765.629 49.5354L769.744 45.413C770.291 44.9223 770.933 45.2357 770.966 45.907L770.984 63.3071C770.984 63.7045 770.66 64.0281 770.261 64.0291L752.836 64.0652 752.834 64.0652C752.139 64.0326 751.853 63.3794 752.337 62.8497L755.678 59.503C757.376 57.8234 756.918 54.8467 754.808 53.753 747.361 49.8925 738.661 48.461 730.309 49.7199 721.662 51.0238 713.85 55.0105 707.716 61.2494 699.5 69.6074 695.386 81.1394 696.43 92.8888 696.516 93.8541 696.181 94.7928 695.511 95.4635 694.608 96.368 693.353 96.6487 692.154 96.2156 690.977 95.7895 690.206 94.7926 690.093 93.5488 688.848 79.8084 693.676 66.3492 703.34 56.6214 708.56 51.3654 714.758 47.5349 721.761 45.2359 722.522 44.9861 722.936 44.1669 722.686 43.4059 722.437 42.6451 721.618 42.2308 720.856 42.4804 713.414 44.9237 706.829 48.9937 701.283 54.5774 691.013 64.9148 685.882 79.2145 687.205 93.8102 687.419 96.1688 688.937 98.1355 691.168 98.9423 691.857 99.1917 692.565 99.3133 693.265 99.3133 694.849 99.3131 696.388 98.689 697.563 97.5121 698.841 96.2328 699.481 94.4539 699.319 92.6316ZM734.19 119.263C734.395 119.364 734.613 119.412 734.828 119.412 735.363 119.412 735.879 119.114 736.131 118.6 737.961 114.871 739.928 109.718 740.886 103.503 744.536 101.166 750.328 96.3865 751.686 88.9943 752.696 83.4982 751.089 77.4996 747.163 72.1026 743.142 66.5762 736.964 62.1836 729.769 59.7342 728.916 59.4434 727.994 59.6139 727.304 60.1899 726.614 60.7653 726.282 61.6403 726.414 62.5309 726.979 66.3171 726.105 70.1654 724.463 73.3193 724.017 74.1756 723.557 75.0608 723.099 76.169 721.55 79.9208 720.224 86.0085 721.585 90.8169 722.759 94.9668 726.106 98.5314 731.264 101.126 733.869 102.435 736.396 103.227 737.926 103.637 736.992 109.249 735.199 113.915 733.527 117.322 733.174 118.041 733.471 118.91 734.19 119.263ZM724.375 90.0271C723.594 87.266 723.725 82.2521 725.78 77.2755 726.188 76.286 726.619 75.4586 727.036 74.6584 729.017 70.8521 729.932 67.3053 729.359 62.6623 735.768 64.9515 741.242 68.8949 744.818 73.8085 748.272 78.5564 749.698 83.7633 748.833 88.4698 748.374 90.9695 746.778 95.4904 741.329 99.6592 741.638 95.6887 741.398 91.2088 740.727 87.1599 741.473 86.471 742.117 85.6905 742.645 84.8289 743.987 82.6394 744.276 80.4457 744.282 78.9912 744.285 78.1904 743.639 77.5384 742.838 77.5353L742.832 77.5353C742.034 77.5353 741.385 78.1807 741.382 78.9796 741.377 80.1294 741.053 82.0282 739.979 83.6142 739.038 79.8345 737.661 76.1584 735.852 72.6243 735.487 71.9112 734.614 71.6293 733.901 71.9942 733.188 72.359 732.906 73.2327 733.271 73.9456 735.613 78.5218 737.193 83.3478 737.986 88.3331 737.733 88.0993 737.478 87.8689 737.217 87.645 735.358 86.048 733.291 84.6977 731.073 83.6312 730.352 83.2843 729.485 83.5883 729.137 84.3098 728.791 85.0316 729.094 85.8981 729.816 86.2452 731.806 87.2016 733.661 88.4129 735.328 89.845 736.478 90.8326 737.542 91.9314 738.499 93.1138 738.651 95.7887 738.57 98.3367 738.32 100.738 734.71 99.7246 726.258 96.6821 724.375 90.0271ZM784.468 77.3872C783.926 75.2597 782.335 73.6422 780.212 73.0603 778.068 72.4727 775.847 73.062 774.274 74.6375 772.765 76.1485 772.154 78.3704 772.679 80.4353 774.677 88.2956 774.028 96.7533 770.851 104.25 770.539 104.988 770.883 105.839 771.621 106.151 772.358 106.464 773.209 106.12 773.521 105.382 776.944 97.3051 777.643 88.1917 775.49 79.7209 775.216 78.6411 775.536 77.4783 776.327 76.6866 777.153 75.8587 778.32 75.5484 779.446 75.8573 780.55 76.1599 781.377 76.9994 781.658 78.1032 783.869 86.7829 783.531 95.8869 780.681 104.431 777.762 113.186 772.363 120.79 765.068 126.424 756.654 132.92 746.164 136.35 735.54 136.084 725.066 135.822 714.905 132.01 706.929 125.352 705.649 124.285 703.754 124.253 702.422 125.276L697.803 128.825C697.224 129.228 696.598 128.887 696.658 128.174L698.93 110.913C698.982 110.518 699.346 110.238 699.742 110.29L717.009 112.542C717.723 112.672 717.875 113.358 717.344 113.814L713.592 116.695C711.688 118.131 711.722 121.128 713.698 122.51 720.568 127.317 728.994 129.878 737.441 129.727 746.18 129.569 754.444 126.639 761.341 121.256 764.823 118.539 767.805 115.294 770.205 111.613 770.643 110.942 770.453 110.043 769.782 109.606 769.111 109.168 768.213 109.358 767.776 110.029 765.551 113.442 762.785 116.45 759.557 118.97 753.159 123.964 745.493 126.681 737.388 126.828 729.555 126.964 721.732 124.593 715.36 120.133 714.935 119.836 714.934 119.352 715.358 118.995L719.111 116.113C721.641 114.203 720.445 110.035 717.384 109.666L700.117 107.414C698.139 107.157 696.316 108.556 696.055 110.534L693.783 127.796C693.592 129.248 694.287 130.659 695.555 131.391 696.826 132.125 698.402 132.021 699.57 131.125L704.189 127.576C704.454 127.373 704.826 127.374 705.071 127.579 713.547 134.655 724.342 138.705 735.468 138.983 746.737 139.266 757.904 135.62 766.841 128.719 774.593 122.733 780.33 114.651 783.433 105.349 786.459 96.2759 786.817 86.6069 784.468 77.3872Z" fill="#548235"/></g></g></g></g></svg>