<svg width="945" height="945" xmlns="http://www.w3.org/2000/svg" xmlns:xlink="http://www.w3.org/1999/xlink" overflow="hidden"><defs><clipPath id="clip0"><rect x="0" y="0" width="945" height="945"/></clipPath><clipPath id="clip1"><rect x="702" y="593" width="93" height="95"/></clipPath><clipPath id="clip2"><rect x="702" y="593" width="93" height="95"/></clipPath><clipPath id="clip3"><rect x="702" y="593" width="93" height="95"/></clipPath><clipPath id="clip4"><rect x="425" y="218" width="94" height="95"/></clipPath><clipPath id="clip5"><rect x="425" y="218" width="94" height="95"/></clipPath><clipPath id="clip6"><rect x="425" y="218" width="94" height="95"/></clipPath><clipPath id="clip7"><rect x="168" y="768" width="101" height="94"/></clipPath><clipPath id="clip8"><rect x="168" y="768" width="101" height="94"/></clipPath><clipPath id="clip9"><rect x="168" y="768" width="101" height="94"/></clipPath></defs><g clip-path="url(#clip0)"><rect x="0" y="0" width="945" height="945" fill="#F2F2F2"/><g clip-path="url(#clip1)"><g clip-path="url(#clip2)"><g clip-path="url(#clip3)"><path d="M713.572 643.442C712.662 633.201 716.245 623.152 723.403 615.871 728.748 610.435 735.556 606.961 743.09 605.825 750.372 604.727 757.956 605.974 764.444 609.338 764.885 609.567 764.935 610.012 764.587 610.396L761.449 613.54C759.364 615.629 760.801 619.332 763.844 619.331L763.851 619.331 780.221 619.297C782.095 619.293 783.619 617.766 783.618 615.892L783.601 599.547C783.629 596.547 779.837 595.079 777.801 597.16L773.935 601.033C773.712 601.256 773.365 601.301 773.11 601.14 763.378 594.993 751.726 592.708 740.301 594.706 739.56 594.835 739.064 595.541 739.193 596.282 739.323 597.023 740.029 597.519 740.77 597.389 751.528 595.509 762.497 597.659 771.655 603.443 772.978 604.279 774.747 604.075 775.863 602.958L779.729 599.085C780.243 598.624 780.846 598.918 780.877 599.549L780.894 615.895C780.894 616.268 780.589 616.572 780.215 616.573L763.846 616.607 763.844 616.607C763.191 616.576 762.923 615.963 763.377 615.465L766.515 612.321C768.111 610.743 767.68 607.947 765.698 606.919 758.703 603.293 750.53 601.948 742.684 603.131 734.562 604.356 727.223 608.101 721.46 613.962 713.742 621.813 709.878 632.646 710.859 643.683 710.939 644.59 710.625 645.472 709.995 646.102 709.147 646.952 707.968 647.215 706.842 646.809 705.736 646.408 705.012 645.472 704.906 644.303 703.736 631.396 708.271 618.752 717.35 609.614 722.254 604.677 728.076 601.078 734.654 598.919 735.369 598.684 735.758 597.914 735.524 597.199 735.289 596.485 734.52 596.096 733.805 596.33 726.813 598.625 720.627 602.449 715.417 607.694 705.77 617.405 700.95 630.838 702.192 644.549 702.393 646.765 703.82 648.612 705.915 649.37 706.563 649.604 707.228 649.719 707.885 649.719 709.373 649.718 710.819 649.132 711.923 648.027 713.123 646.825 713.725 645.154 713.572 643.442ZM746.33 668.459C746.523 668.554 746.727 668.599 746.929 668.599 747.432 668.599 747.916 668.319 748.153 667.836 749.872 664.333 751.721 659.493 752.62 653.655 756.049 651.459 761.49 646.969 762.766 640.025 763.714 634.862 762.205 629.227 758.516 624.157 754.739 618.966 748.936 614.839 742.177 612.538 741.375 612.265 740.509 612.425 739.861 612.966 739.213 613.507 738.901 614.329 739.025 615.165 739.556 618.722 738.735 622.337 737.193 625.3 736.774 626.104 736.341 626.936 735.911 627.977 734.456 631.501 733.211 637.22 734.489 641.737 735.592 645.635 738.736 648.984 743.581 651.421 746.028 652.651 748.402 653.395 749.84 653.78 748.962 659.052 747.278 663.435 745.707 666.636 745.376 667.312 745.655 668.128 746.33 668.459ZM737.11 640.995C736.376 638.401 736.5 633.691 738.43 629.016 738.813 628.087 739.218 627.31 739.609 626.558 741.47 622.982 742.33 619.65 741.792 615.289 747.812 617.439 752.955 621.144 756.313 625.76 759.558 630.22 760.898 635.111 760.086 639.532 759.654 641.88 758.155 646.127 753.036 650.044 753.327 646.314 753.102 642.105 752.471 638.302 753.172 637.655 753.777 636.921 754.273 636.112 755.533 634.055 755.805 631.994 755.81 630.628 755.813 629.876 755.206 629.263 754.454 629.26L754.448 629.26C753.698 629.26 753.089 629.867 753.086 630.617 753.082 631.697 752.777 633.481 751.768 634.971 750.884 631.42 749.591 627.967 747.892 624.647 747.549 623.977 746.728 623.712 746.058 624.055 745.389 624.398 745.124 625.219 745.467 625.888 747.667 630.187 749.151 634.721 749.896 639.404 749.658 639.184 749.419 638.968 749.174 638.757 747.427 637.257 745.485 635.989 743.402 634.987 742.724 634.661 741.91 634.947 741.584 635.624 741.258 636.302 741.543 637.116 742.221 637.442 744.091 638.341 745.833 639.479 747.399 640.824 748.479 641.752 749.479 642.784 750.378 643.895 750.521 646.408 750.445 648.801 750.209 651.057 746.818 650.105 738.879 647.247 737.11 640.995ZM793.561 629.121C793.052 627.123 791.557 625.603 789.563 625.057 787.548 624.505 785.463 625.058 783.985 626.538 782.567 627.958 781.993 630.045 782.487 631.985 784.363 639.369 783.754 647.314 780.769 654.357 780.476 655.049 780.799 655.849 781.492 656.142 782.184 656.436 782.984 656.112 783.278 655.419 786.493 647.832 787.149 639.271 785.127 631.314 784.869 630.299 785.17 629.207 785.913 628.463 786.689 627.685 787.786 627.394 788.843 627.684 789.88 627.968 790.657 628.757 790.921 629.794 792.998 637.948 792.681 646.5 790.004 654.527 787.261 662.75 782.189 669.894 775.336 675.186 767.432 681.288 757.578 684.51 747.598 684.261 737.759 684.014 728.214 680.434 720.721 674.179 719.519 673.176 717.738 673.147 716.487 674.108L712.149 677.442C711.605 677.82 711.016 677.5 711.072 676.831L713.207 660.615C713.256 660.244 713.598 659.982 713.969 660.03L730.19 662.145C730.861 662.268 731.004 662.912 730.505 663.34L726.98 666.047C725.191 667.396 725.224 670.211 727.08 671.51 733.534 676.025 741.449 678.43 749.384 678.289 757.593 678.14 765.356 675.389 771.835 670.331 775.106 667.779 777.908 664.731 780.163 661.272 780.573 660.642 780.395 659.798 779.765 659.387 779.134 658.976 778.291 659.154 777.88 659.785 775.79 662.991 773.192 665.817 770.159 668.184 764.149 672.875 756.948 675.427 749.335 675.566 741.976 675.693 734.627 673.466 728.641 669.277 728.242 668.998 728.241 668.543 728.64 668.208L732.164 665.5C734.541 663.706 733.418 659.791 730.543 659.444L714.322 657.329C712.464 657.087 710.752 658.401 710.506 660.259L708.372 676.475C708.192 677.839 708.846 679.165 710.036 679.852 711.231 680.542 712.711 680.444 713.808 679.603L718.147 676.269C718.396 676.077 718.745 676.079 718.976 676.271 726.938 682.918 737.079 686.723 747.531 686.984 758.117 687.25 768.607 683.825 777.002 677.343 784.284 671.719 789.674 664.127 792.589 655.389 795.431 646.865 795.767 637.782 793.561 629.121Z" fill="#385723"/></g></g></g><g clip-path="url(#clip4)"><g clip-path="url(#clip5)"><g clip-path="url(#clip6)"><path d="M85.9555 32.7517 70.289 32.7517C69.5834 32.7517 69.0119 33.3232 69.0119 34.0289L69.0119 41.2949 59.4758 41.2949 59.4758 34.0289C59.4758 33.3232 58.9048 32.7517 58.1986 32.7517L42.5321 32.7517C41.827 32.7517 41.2549 33.3232 41.2549 34.0289L41.2549 49.1195 25.7162 65.0522 23.6153 65.0522 19.4762 30.1904C19.3995 29.5477 18.8557 29.0634 18.2075 29.0634L15.2009 29.0634 15.2009 24.8467C17.2762 24.7339 21.1631 24.1496 23.7865 21.4931 27.4365 17.7973 27.046 11.7025 27.0274 11.4455 26.9817 10.8053 26.4686 10.2992 25.829 10.2614 25.6694 10.2524 23.2784 10.1295 20.6138 10.9085 19.8162 4.97188 14.7512 0.513525 14.5192 0.31184 14.0345-0.108559 13.3139-0.103237 12.8344 0.322483 12.5853 0.543325 6.74075 5.81427 6.78171 12.4789 6.81844 18.3081 11.3444 23.0149 12.6465 24.2496L12.6465 29.0639 9.36956 29.0639C8.72194 29.0639 8.17755 29.5477 8.10146 30.1904L6.64922 42.4219C6.45604 44.0504 8.99227 44.3542 9.18598 42.7231L9.51059 39.9889 18.0676 39.9889 21.0428 65.0522 6.53481 65.0522 8.45799 48.8535C8.65116 47.2231 6.11814 46.8973 5.92123 48.5523L3.96292 65.0522 1.32239 65.0522C0.617294 65.0522 0.0452327 65.6242 0.0452327 66.3294L0.0452327 85.9103C0.0452327 86.616 0.617294 87.1875 1.32239 87.1875L85.9555 87.1875C86.6618 87.1875 87.2327 86.616 87.2327 85.9103L87.2327 72.8833C87.2327 71.2438 84.6784 71.241 84.6784 72.8833L84.6784 84.6332 2.59955 84.6332 2.59955 67.6065 26.2553 67.6065C26.599 67.6065 26.9289 67.4676 27.169 67.2213L43.4463 50.5303C43.6789 50.2925 43.8093 49.972 43.8093 49.639L43.8093 35.306 56.9214 35.306 56.9214 49.639C56.9214 50.3446 57.4929 50.9161 58.1986 50.9161L70.289 50.9161C70.9953 50.9161 71.5662 50.3446 71.5662 49.639L71.5662 35.306 84.6784 35.306 84.6784 66.2421C84.6784 67.8816 87.2327 67.8843 87.2327 66.2421L87.2327 34.0289C87.2327 33.3237 86.6618 32.7517 85.9555 32.7517ZM59.4758 43.8492 69.0119 43.8492 69.0119 48.3618 59.4758 48.3618ZM17.0735 31.6177 17.7642 37.4346 9.81284 37.4346 10.5041 31.6177ZM24.4746 12.8317C24.3927 14.5415 23.9568 17.686 21.9693 19.6981 19.9806 21.7123 16.8393 22.1869 15.1317 22.2891 15.1551 21.7985 15.2084 21.187 15.3206 20.5122 15.5718 19.0078 16.1774 16.9032 17.6397 15.4222 19.6273 13.4097 22.7664 12.9344 24.4746 12.8317ZM15.8225 13.6278C13.8034 15.6718 13.0217 18.4486 12.7285 20.5666 11.214 18.6987 9.3568 15.7442 9.33603 12.463 9.30996 8.34093 12.2176 4.67175 13.6939 3.07582 15.1291 4.58926 17.9026 7.99343 18.149 11.9069 17.3225 12.3517 16.526 12.9148 15.8225 13.6278Z" fill="#385723" transform="matrix(1 0 0 1.01075 428.906 220.892)"/><path d="M52.0203 58.7148 46.5685 58.7148C45.8633 58.7148 45.2913 59.2863 45.2913 59.9919L45.2913 76.827C45.2913 77.5332 45.8633 78.1042 46.5685 78.1042L52.0203 78.1042C52.7265 78.1042 53.2974 77.5332 53.2974 76.827L53.2974 59.9919C53.2974 59.2868 52.7254 58.7148 52.0203 58.7148ZM50.7431 75.5499 47.8456 75.5499 47.8456 61.2691 50.7431 61.2691Z" fill="#385723" transform="matrix(1 0 0 1.01075 428.906 220.892)"/><path d="M64.793 58.7148 59.3412 58.7148C58.636 58.7148 58.064 59.2863 58.064 59.9919L58.064 76.827C58.064 77.5332 58.636 78.1042 59.3412 78.1042L64.793 78.1042C65.4981 78.1042 66.0701 77.5332 66.0701 76.827L66.0701 59.9919C66.0701 59.2868 65.4981 58.7148 64.793 58.7148ZM63.5158 75.5499 60.6183 75.5499 60.6183 61.2691 63.5158 61.2691Z" fill="#385723" transform="matrix(1 0 0 1.01075 428.906 220.892)"/><path d="M77.5651 58.7148 72.1133 58.7148C71.4082 58.7148 70.8362 59.2863 70.8362 59.9919L70.8362 76.827C70.8362 77.5332 71.4082 78.1042 72.1133 78.1042L77.5651 78.1042C78.2702 78.1042 78.8423 77.5332 78.8423 76.827L78.8423 59.9919C78.8423 59.2868 78.2702 58.7148 77.5651 58.7148ZM76.288 75.5499 73.3905 75.5499 73.3905 61.2691 76.288 61.2691Z" fill="#385723" transform="matrix(1 0 0 1.01075 428.906 220.892)"/><path d="M37.4235 75.6079 8.47449 75.6079C7.76939 75.6079 7.19733 76.1794 7.19733 76.8851 7.19733 77.5907 7.76939 78.1622 8.47449 78.1622L37.4235 78.1622C38.1286 78.1622 38.7006 77.5907 38.7006 76.8851 38.7006 76.1794 38.1286 75.6079 37.4235 75.6079Z" fill="#385723" transform="matrix(1 0 0 1.01075 428.906 220.892)"/><path d="M80.7138 6.15591C80.4877 6.2517 80.3014 6.22243 80.1546 6.06864 78.9301 2.43884 75.5802 0 71.82 0 67.3314 0 63.6148 3.44301 63.072 7.87848 61.0365 8.33294 59.2948 9.77081 58.461 11.7648 57.7341 13.4996 59.0735 15.4686 60.9402 15.4686L74.6314 15.4686C76.2731 15.4686 76.298 12.9142 74.6314 12.9142L60.9402 12.9142C60.8402 12.8993 60.7998 12.845 60.8168 12.7503 61.4229 11.3029 62.7991 10.3344 64.3247 10.2827 65.0123 10.2593 65.5578 9.69472 65.5578 9.00611 65.5578 9.00025 65.5578 8.99333 65.5578 8.98749 65.5651 5.43858 68.3717 2.55432 71.82 2.55432 74.484 2.55432 76.8605 4.29445 77.7338 6.88496 78.1904 8.23555 79.4048 8.71023 80.7134 8.71023 82.8999 8.71023 84.6784 10.5462 84.6784 12.8142 84.6784 12.8653 84.6167 12.9142 84.5517 12.9142L81.7835 12.9142C80.1418 12.9142 80.1174 15.4686 81.7835 15.4686L84.5522 15.4686C86.0264 15.4686 87.229 14.2808 87.2327 12.8211 87.2327 12.8195 87.2327 12.8041 87.2327 12.8035 87.2327 9.13755 84.308 6.15591 80.7138 6.15591Z" fill="#385723" transform="matrix(1 0 0 1.01075 428.906 220.892)"/><path d="M31.4804 27.5867 55.0924 27.5867C56.5612 27.5867 57.7505 26.3754 57.7729 24.9221 57.7729 21.2562 54.8481 18.2735 51.254 18.2735 51.0289 18.3693 50.8427 18.3406 50.6948 18.1868 49.4703 14.5569 46.1209 12.1187 42.3602 12.1187 37.8715 12.1187 34.155 15.5616 33.6121 19.9971 31.5773 20.451 29.835 21.8895 29.0011 23.8828 28.2748 25.6177 29.6136 27.5867 31.4804 27.5867ZM55.2186 24.9329C55.2186 24.984 55.1568 25.0323 55.0924 25.0323L31.4804 25.0323C31.381 25.018 31.3399 24.9631 31.357 24.869 31.9631 23.4216 33.3402 22.453 34.8638 22.4009 35.5525 22.3775 36.0979 21.8128 36.0979 21.1242 36.0979 21.1205 36.0979 21.1157 36.0979 21.1109 36.1027 17.5604 38.9103 14.673 42.3602 14.673 45.0242 14.673 47.4007 16.413 48.275 19.0036 48.7311 20.3564 49.9444 20.8279 51.254 20.8279 53.4406 20.8279 55.2186 22.6642 55.2186 24.9221Z" fill="#385723" transform="matrix(1 0 0 1.01075 428.906 220.892)"/></g></g></g><path d="M107 644.5C107 524.93 205.721 428 327.5 428 449.279 428 548 524.93 548 644.5 548 764.07 449.279 861 327.5 861 205.721 861 107 764.07 107 644.5Z" stroke="#385723" stroke-width="2.00035" stroke-miterlimit="8" stroke-opacity="0.560784" fill="none" fill-rule="evenodd"/><path d="M397 644.5C397 524.93 495.721 428 617.5 428 739.279 428 838 524.93 838 644.5 838 764.07 739.279 861 617.5 861 495.721 861 397 764.07 397 644.5Z" stroke="#385723" stroke-width="2.00035" stroke-miterlimit="8" stroke-opacity="0.560784" fill="none" fill-rule="evenodd"/><path d="M252 421.5C252 301.93 350.721 205 472.5 205 594.279 205 693 301.93 693 421.5 693 541.07 594.279 638 472.5 638 350.721 638 252 541.07 252 421.5Z" stroke="#385723" stroke-width="2.00035" stroke-miterlimit="8" stroke-opacity="0.560784" fill="none" fill-rule="evenodd"/><text font-family="Montserrat SemiBold,Montserrat SemiBold_MSFontService,sans-serif" font-style="oblique" font-weight="600" font-size="27" transform="translate(526.102 487)">Simbiosis <tspan font-size="27" x="-0.166687" y="32">Industrial</tspan><tspan font-size="27" x="-237.146" y="0">Resiliencia </tspan><tspan font-size="27" x="-228.144" y="32">territorial</tspan><tspan font-size="27" x="-136.295" y="184">Eficiencia de </tspan><tspan font-size="27" x="-118.625" y="216">recursos y </tspan><tspan font-size="27" x="-128.627" y="248">tecnologías </tspan><tspan font-size="27" x="-98.2886" y="280">limpias</tspan><tspan fill="#111111" font-family="Montserrat,Montserrat_MSFontService,sans-serif" font-style="normal" font-weight="700" font-size="32" x="-165.809" y="110">Sostenibilidad</tspan></text><rect x="71.5" y="153.5" width="251" height="54.9999" stroke="#262626" stroke-width="1.00018" stroke-linejoin="round" stroke-miterlimit="10" fill="#262626"/><text fill="#FFFFFF" font-family="Montserrat SemiBold,Montserrat SemiBold_MSFontService,sans-serif" font-weight="600" font-size="37" transform="translate(80.7536 194)">ECONOMÍA</text><rect x="71.5" y="29.5" width="383" height="55" stroke="#262626" stroke-width="1.00018" stroke-linejoin="round" stroke-miterlimit="10" fill="#262626"/><text fill="#FFFFFF" font-family="Montserrat SemiBold,Montserrat SemiBold_MSFontService,sans-serif" font-weight="600" font-size="37" transform="translate(80.7536 70)">RELACIÓN ENTRE</text><rect x="71.5" y="91.5" width="622" height="54.9999" stroke="#262626" stroke-width="1.00018" stroke-linejoin="round" stroke-miterlimit="10" fill="#262626"/><text fill="#FFFFFF" font-family="Montserrat SemiBold,Montserrat SemiBold_MSFontService,sans-serif" font-weight="600" font-size="37" transform="translate(80.7536 132)">DISTINTOS ABORDAJES DE LA</text><g clip-path="url(#clip7)"><g clip-path="url(#clip8)"><g clip-path="url(#clip9)"><path d="M79.1008 55.6985 78.1157 55.5511C77.9296 55.5232 73.4935 54.8751 67.8469 55.3789 60.2645 56.0555 54.1426 58.5268 50.1435 62.5259 48.5015 64.1679 47.1177 66.1682 46.0095 68.4801 44.901 66.1707 43.5138 64.1756 41.8635 62.5264 32.6643 53.3256 15.9193 55.2782 14.047 55.5306 13.9502 55.5432 13.9003 55.5503 13.9003 55.5503L12.908 55.6934 12.7599 56.6839C12.7321 56.8699 12.0836 61.3058 12.5875 66.9524 13.264 74.5346 15.7355 80.6563 19.7347 84.6554 25.8923 90.8128 35.3251 92.0001 41.6808 91.9999 43.3793 91.9999 44.856 91.9148 45.9935 91.8173 47.0267 91.9065 48.4787 91.9938 50.204 91.9938 51.5222 91.9938 52.9995 91.9428 54.5706 91.8026 62.153 91.1259 68.2749 88.6546 72.2739 84.6556 76.2729 80.6565 78.7443 74.5348 79.421 66.9523 79.9249 61.3052 79.2764 56.8692 79.2486 56.6832ZM74.7901 57.9584 55.6026 77.1457 52.5789 63.9244C59.088 57.9668 69.6865 57.6925 74.7901 57.9584ZM39.4282 63.9248 36.4045 77.1461 17.2053 57.9469C22.3164 57.6575 32.8645 57.9054 39.4282 63.9248ZM15.182 59.732 27.172 71.7221 16.6899 74.1194C15.0005 68.6901 14.9942 62.9704 15.182 59.732ZM21.6387 82.7513C19.8819 80.9946 18.5825 78.8964 17.6261 76.6676L29.4203 73.9704 42.8845 87.4346C42.9258 88.1683 42.9775 88.7906 43.0256 89.2805 37.5364 89.4114 27.6045 88.7175 21.6387 82.7513ZM42.9962 80.2292C42.8917 81.4003 42.8373 82.5179 42.8161 83.5577L38.6528 79.3944 41.6294 66.379C42.8308 68.0056 43.8215 69.9129 44.5877 72.0788 43.7962 74.5486 43.2597 77.2777 42.9962 80.2292ZM45.5734 87.1751C45.3226 82.4299 45.5373 72.9285 50.3773 66.377L53.3543 79.3942ZM70.3691 82.7516C64.2661 88.8545 54.0444 89.4466 48.5199 89.2615L48.476 89.2177 48.4349 89.2588C48.0479 89.2451 47.6854 89.2277 47.3489 89.2082L62.5867 73.9704 74.3818 76.6678C73.4253 78.8967 72.1258 80.9949 70.3691 82.7516ZM75.3179 74.1194 64.835 71.7219 76.8256 59.7313C77.0134 62.97 77.0071 68.6901 75.3179 74.1194Z" fill="#385723" transform="matrix(1.08696 0 0 1 168 769)"/><path d="M46.0035 8.91432C27.442 8.91432 12.3412 24.0151 12.3412 42.5766 12.3412 45.6906 12.766 48.7735 13.6037 51.7398L16.1954 51.0078C15.4249 48.2798 15.0342 45.4432 15.0342 42.5768 15.0342 34.6627 18.0197 27.4338 22.9214 21.9534L25.3153 31.4079 20.5545 36.8829 21.4739 47.3181 24.1562 47.0818 23.3374 37.7867 28.2713 32.1124 25.1327 19.7168C30.642 14.6827 37.97 11.6077 46.0032 11.6077 50.8173 11.6077 55.3782 12.7121 59.4464 14.6805L56.9367 20.2168 59.713 27.7706 55.3769 34.5176 61.5778 39.9978 64.8709 38.0693 67.8289 41.9034 76.9366 41.1012C76.9597 41.5904 76.9725 42.0822 76.9725 42.577 76.9725 45.4416 76.5818 48.2764 75.8113 51.0026L78.403 51.7349C79.2407 48.7705 79.6655 45.6893 79.6655 42.577 79.6658 24.0153 64.565 8.91432 46.0035 8.91432ZM69.061 39.0912 65.5559 34.5472 61.9002 36.688 58.892 34.0294 62.7034 28.099 59.8455 20.3232 61.8223 15.9624C69.7564 20.6961 75.4064 28.8745 76.6928 38.419Z" fill="#385723" transform="matrix(1.08696 0 0 1 168 769)"/><path d="M82.2602 69.5621 84.5154 71.0343C85.0202 70.261 85.5067 69.4661 85.9622 68.6711L83.6251 67.3329C83.1958 68.0826 82.7365 68.8327 82.2602 69.5621Z" fill="#385723" transform="matrix(1.08696 0 0 1 168 769)"/><path d="M6.11666 68.7961C6.547 69.5422 7.00661 70.2908 7.48255 71.021L9.73855 69.5504C9.28918 68.861 8.85543 68.1546 8.44933 67.4506Z" fill="#385723" transform="matrix(1.08696 0 0 1 168 769)"/><path d="M81.2159 16.4328C74.0242 7.73658 63.9429 2.06624 52.8292 0.466425L52.4455 3.13194C73.4477 6.15544 89.2855 24.6607 89.2855 46.1764 89.2855 52.7602 87.7952 59.1026 84.8561 65.0271L87.2687 66.2239C90.394 59.9243 91.9785 53.1793 91.9785 46.1764 91.9785 35.3881 88.1563 24.8248 81.2159 16.4328Z" fill="#385723" transform="matrix(1.08696 0 0 1 168 769)"/><path d="M44.6244 2.69604 44.5445 0.00430877C43.6228 0.0315977 42.693 0.0861755 41.7804 0.165888L42.0154 2.84846C42.8764 2.77324 43.7542 2.72189 44.6244 2.69604Z" fill="#385723" transform="matrix(1.08696 0 0 1 168 769)"/><path d="M50.0768 0.152782C49.1649 0.0759422 48.2348 0.0245959 47.3121 0L47.2407 2.69209C48.112 2.71525 48.9901 2.76372 49.8507 2.83625Z" fill="#385723" transform="matrix(1.08696 0 0 1 168 769)"/><path d="M2.71435 46.1665C2.71435 24.7302 18.4951 6.23821 39.4219 3.15295L39.0291 0.488687C27.9604 2.12064 17.9189 7.79834 10.7549 16.4759 3.83337 24.8595 0.0213643 35.4038 0.0213643 46.1665 0.0213643 53.2197 1.63015 60.0119 4.80285 66.3548L7.21145 65.1499C4.22745 59.1844 2.71435 52.7976 2.71435 46.1665Z" fill="#385723" transform="matrix(1.08696 0 0 1 168 769)"/><path d="M41.6262 16.5669 32.5095 22.3139 32.4469 42.4913 46.496 52.8703 51.1425 42.4082 45.6527 34.9517 50.3432 21.0371ZM48.0461 42.745 45.3969 48.7102 35.144 41.1359 35.1978 23.8027 41.7635 19.664 47.05 22.3751 42.6531 35.4197Z" fill="#385723" transform="matrix(1.08696 0 0 1 168 769)"/><path d="M70.8072 49.0874 63.8408 41.8836 56.5026 45.0583 56.5026 51.738 62.5219 51.4353 68.2788 54.4369ZM67.0408 50.7543 63.1176 48.7089 59.1954 48.906 59.1954 46.8274 63.2 45.0949 67.5765 49.6206Z" fill="#385723" transform="matrix(1.08696 0 0 1 168 769)"/><path d="M41.3357 23.5911 44.0287 23.5911 44.0287 26.2841 41.3357 26.2841Z" fill="#385723" transform="matrix(1.08696 0 0 1 168 769)"/><path d="M64.9668 23.1422 67.6598 23.1422 67.6598 25.8352 64.9668 25.8352Z" fill="#385723" transform="matrix(1.08696 0 0 1 168 769)"/><path d="M69.1919 30.4133 71.8849 30.4133 71.8849 33.1063 69.1919 33.1063Z" fill="#385723" transform="matrix(1.08696 0 0 1 168 769)"/><path d="M37.5655 28.977 40.2585 28.977 40.2585 31.67 37.5655 31.67Z" fill="#385723" transform="matrix(1.08696 0 0 1 168 769)"/></g></g></g><text fill="#002060" font-family="Archistico,Archistico_MSFontService,sans-serif" font-weight="700" font-size="59" transform="translate(574.822 769)">ECONOMÍA<tspan font-size="59" x="6.24774" y="70">CIRCULAR</tspan><tspan font-size="59" x="0" y="0">ECONOMÍA</tspan><tspan font-size="59" x="6.24774" y="70">CIRCULAR</tspan><tspan fill="#385723" font-size="59" x="-550.529" y="-100">ECONOMÍA</tspan><tspan fill="#385723" font-size="59" x="-486.604" y="-30">VERDE</tspan><tspan fill="#385723" font-size="59" x="-550.529" y="-100">ECONOMÍA</tspan><tspan fill="#385723" font-size="59" x="-486.604" y="-30">VERDE</tspan><tspan fill="#7030A0" font-size="64" x="-347.041" y="-381">BIOECONOMÍA</tspan><tspan fill="#7030A0" font-size="64" x="-347.041" y="-381">BIOECONOMÍA</tspan></text></g></svg>