<svg width="945" height="945" xmlns="http://www.w3.org/2000/svg" xmlns:xlink="http://www.w3.org/1999/xlink" overflow="hidden"><defs><filter id="fx0" x="-10%" y="-10%" width="120%" height="120%" filterUnits="userSpaceOnUse" primitiveUnits="userSpaceOnUse"><feComponentTransfer color-interpolation-filters="sRGB"><feFuncR type="discrete" tableValues="0 0"/><feFuncG type="discrete" tableValues="0 0"/><feFuncB type="discrete" tableValues="0 0"/><feFuncA type="linear" slope="0.431373" intercept="0"/></feComponentTransfer><feGaussianBlur stdDeviation="1.22285 1.22285"/></filter><clipPath id="clip1"><rect x="0" y="0" width="945" height="945"/></clipPath><clipPath id="clip2"><rect x="1" y="1" width="709" height="91"/></clipPath><clipPath id="clip3"><rect x="0" y="0" width="712" height="93"/></clipPath><clipPath id="clip4"><rect x="656" y="324" width="260" height="260"/></clipPath><clipPath id="clip5"><rect x="656" y="324" width="260" height="260"/></clipPath><clipPath id="clip6"><rect x="656" y="324" width="260" height="260"/></clipPath></defs><g clip-path="url(#clip1)"><rect x="0" y="0" width="945" height="945" fill="#FFFFFF"/><g clip-path="url(#clip2)" filter="url(#fx0)" transform="translate(201 637)"><g clip-path="url(#clip3)"><path d="M25.9058 61.8284 25.9058 71.5084 38.4018 71.5084C42.9778 71.5084 45.2658 69.8951 45.2658 66.6684 45.2658 63.4418 42.9778 61.8284 38.4018 61.8284ZM668.762 44.8444 662.778 60.3324 674.746 60.3324ZM481.786 39.8284C479.204 39.8284 476.872 40.4591 474.79 41.7204 472.707 42.9818 471.05 44.7711 469.818 47.0884 468.586 49.4058 467.97 52.1191 467.97 55.2284 467.97 58.3378 468.586 61.0511 469.818 63.3684 471.05 65.6858 472.707 67.4751 474.79 68.7364 476.872 69.9978 479.204 70.6284 481.786 70.6284 484.367 70.6284 486.699 69.9978 488.782 68.7364 490.864 67.4751 492.522 65.6858 493.754 63.3684 494.986 61.0511 495.602 58.3378 495.602 55.2284 495.602 52.1191 494.986 49.4058 493.754 47.0884 492.522 44.7711 490.864 42.9818 488.782 41.7204 486.699 40.4591 484.367 39.8284 481.786 39.8284ZM335.786 39.8284C333.204 39.8284 330.872 40.4591 328.79 41.7204 326.707 42.9818 325.05 44.7711 323.818 47.0884 322.586 49.4058 321.97 52.1191 321.97 55.2284 321.97 58.3378 322.586 61.0511 323.818 63.3684 325.05 65.6858 326.707 67.4751 328.79 68.7364 330.872 69.9978 333.204 70.6284 335.786 70.6284 338.367 70.6284 340.699 69.9978 342.782 68.7364 344.864 67.4751 346.522 65.6858 347.754 63.3684 348.986 61.0511 349.602 58.3378 349.602 55.2284 349.602 52.1191 348.986 49.4058 347.754 47.0884 346.522 44.7711 344.864 42.9818 342.782 41.7204 340.699 40.4591 338.367 39.8284 335.786 39.8284ZM136.786 39.8284C134.204 39.8284 131.872 40.4591 129.79 41.7204 127.707 42.9818 126.05 44.7711 124.818 47.0884 123.586 49.4058 122.97 52.1191 122.97 55.2284 122.97 58.3378 123.586 61.0511 124.818 63.3684 126.05 65.6858 127.707 67.4751 129.79 68.7364 131.872 69.9978 134.204 70.6284 136.786 70.6284 139.367 70.6284 141.699 69.9978 143.782 68.7364 145.864 67.4751 147.522 65.6858 148.754 63.3684 149.986 61.0511 150.602 58.3378 150.602 55.2284 150.602 52.1191 149.986 49.4058 148.754 47.0884 147.522 44.7711 145.864 42.9818 143.782 41.7204 141.699 40.4591 139.367 39.8284 136.786 39.8284ZM25.9058 38.9484 25.9058 48.1004 35.5858 48.1004C40.1031 48.1004 42.3618 46.5751 42.3618 43.5244 42.3618 40.4738 40.1031 38.9484 35.5858 38.9484ZM658.73 24.4284 679.146 24.4284 706.074 86.0284 684.602 86.0284 680.466 75.2924 657.058 75.2924 652.922 86.0284 631.802 86.0284ZM607.49 24.4284 628.258 24.4284 628.258 86.0284 607.49 86.0284ZM523.49 24.4284 540.562 24.4284 560.626 57.2524 580.162 24.4284 597.234 24.4284 597.41 86.0284 578.49 86.0284 578.314 57.9564 564.938 80.4844 555.786 80.4844 542.41 58.9244 542.41 86.0284 523.49 86.0284ZM378.49 24.4284 395.562 24.4284 418.97 52.4124 418.97 24.4284 439.21 24.4284 439.21 86.0284 422.138 86.0284 398.73 58.0444 398.73 86.0284 378.49 86.0284ZM179.49 24.4284 229.562 24.4284 229.562 40.0924 199.906 40.0924 199.906 47.3084 225.954 47.3084 225.954 62.2684 199.906 62.2684 199.906 70.3644 230.706 70.3644 230.706 86.0284 179.49 86.0284ZM73.4898 24.4284 94.2578 24.4284 94.2578 86.0284 73.4898 86.0284ZM5.48976 24.4284 38.4018 24.4284C46.6151 24.4284 52.8191 25.8951 57.0138 28.8284 61.2084 31.7618 63.3058 35.6631 63.3058 40.5324 63.3058 43.4071 62.5871 45.9884 61.1498 48.2764 59.7124 50.5644 57.5858 52.4124 54.7698 53.8204 58.4071 55.1698 61.2231 57.1351 63.2178 59.7164 65.2124 62.2978 66.2098 65.4071 66.2098 69.0444 66.2098 74.4418 63.9804 78.6218 59.5218 81.5844 55.0631 84.5471 48.6098 86.0284 40.1618 86.0284L5.48976 86.0284ZM481.786 23.0204C488.415 23.0204 494.37 24.3991 499.65 27.1564 504.93 29.9138 509.066 33.7418 512.058 38.6404 515.05 43.5391 516.546 49.0684 516.546 55.2284 516.546 61.3884 515.05 66.9178 512.058 71.8164 509.066 76.7151 504.93 80.5431 499.65 83.3004 494.37 86.0578 488.415 87.4364 481.786 87.4364 475.156 87.4364 469.202 86.0578 463.922 83.3004 458.642 80.5431 454.506 76.7151 451.514 71.8164 448.522 66.9178 447.026 61.3884 447.026 55.2284 447.026 49.0684 448.522 43.5391 451.514 38.6404 454.506 33.7418 458.642 29.9138 463.922 27.1564 469.202 24.3991 475.156 23.0204 481.786 23.0204ZM335.786 23.0204C342.415 23.0204 348.37 24.3991 353.65 27.1564 358.93 29.9138 363.066 33.7418 366.058 38.6404 369.05 43.5391 370.546 49.0684 370.546 55.2284 370.546 61.3884 369.05 66.9178 366.058 71.8164 363.066 76.7151 358.93 80.5431 353.65 83.3004 348.37 86.0578 342.415 87.4364 335.786 87.4364 329.156 87.4364 323.202 86.0578 317.922 83.3004 312.642 80.5431 308.506 76.7151 305.514 71.8164 302.522 66.9178 301.026 61.3884 301.026 55.2284 301.026 49.0684 302.522 43.5391 305.514 38.6404 308.506 33.7418 312.642 29.9138 317.922 27.1564 323.202 24.3991 329.156 23.0204 335.786 23.0204ZM270.346 23.0204C276.33 23.0204 281.668 24.0764 286.362 26.1884 291.055 28.3004 294.927 31.3511 297.978 35.3404L284.866 47.0444C281.052 42.2338 276.564 39.8284 271.402 39.8284 267.06 39.8284 263.57 41.2218 260.93 44.0084 258.29 46.7951 256.97 50.5351 256.97 55.2284 256.97 59.9218 258.29 63.6618 260.93 66.4484 263.57 69.2351 267.06 70.6284 271.402 70.6284 276.564 70.6284 281.052 68.2231 284.866 63.4124L297.978 75.1164C294.927 79.1058 291.055 82.1564 286.362 84.2684 281.668 86.3804 276.33 87.4364 270.346 87.4364 263.834 87.4364 257.967 86.0724 252.746 83.3444 247.524 80.6164 243.432 76.8031 240.47 71.9044 237.507 67.0058 236.026 61.4471 236.026 55.2284 236.026 49.0098 237.507 43.4511 240.47 38.5524 243.432 33.6538 247.524 29.8404 252.746 27.1124 257.967 24.3844 263.834 23.0204 270.346 23.0204ZM136.786 23.0204C143.415 23.0204 149.37 24.3991 154.65 27.1564 159.93 29.9138 164.066 33.7418 167.058 38.6404 170.05 43.5391 171.546 49.0684 171.546 55.2284 171.546 61.3884 170.05 66.9178 167.058 71.8164 164.066 76.7151 159.93 80.5431 154.65 83.3004 149.37 86.0578 143.415 87.4364 136.786 87.4364 130.156 87.4364 124.202 86.0578 118.922 83.3004 113.642 80.5431 109.506 76.7151 106.514 71.8164 103.522 66.9178 102.026 61.3884 102.026 55.2284 102.026 49.0684 103.522 43.5391 106.514 38.6404 109.506 33.7418 113.642 29.9138 118.922 27.1564 124.202 24.3991 130.156 23.0204 136.786 23.0204ZM620.25 5.33244 639.17 5.33244 621.834 19.4124 608.634 19.4124Z" stroke="#2A421A" stroke-linejoin="round" stroke-miterlimit="10" fill="#385723" fill-rule="evenodd"/></g></g><path d="M224.312 696.234 224.312 705.914 236.808 705.914C241.384 705.914 243.672 704.301 243.672 701.074 243.672 697.848 241.384 696.234 236.808 696.234ZM867.168 679.25 861.184 694.738 873.152 694.738ZM680.192 674.234C677.61 674.234 675.278 674.865 673.196 676.126 671.113 677.388 669.456 679.177 668.224 681.494 666.992 683.812 666.376 686.525 666.376 689.634 666.376 692.744 666.992 695.457 668.224 697.774 669.456 700.092 671.113 701.881 673.196 703.142 675.278 704.404 677.61 705.034 680.192 705.034 682.773 705.034 685.105 704.404 687.188 703.142 689.27 701.881 690.928 700.092 692.16 697.774 693.392 695.457 694.008 692.744 694.008 689.634 694.008 686.525 693.392 683.812 692.16 681.494 690.928 679.177 689.27 677.388 687.188 676.126 685.105 674.865 682.773 674.234 680.192 674.234ZM534.192 674.234C531.61 674.234 529.278 674.865 527.196 676.126 525.113 677.388 523.456 679.177 522.224 681.494 520.992 683.812 520.376 686.525 520.376 689.634 520.376 692.744 520.992 695.457 522.224 697.774 523.456 700.092 525.113 701.881 527.196 703.142 529.278 704.404 531.61 705.034 534.192 705.034 536.773 705.034 539.105 704.404 541.188 703.142 543.27 701.881 544.928 700.092 546.16 697.774 547.392 695.457 548.008 692.744 548.008 689.634 548.008 686.525 547.392 683.812 546.16 681.494 544.928 679.177 543.27 677.388 541.188 676.126 539.105 674.865 536.773 674.234 534.192 674.234ZM335.192 674.234C332.61 674.234 330.278 674.865 328.196 676.126 326.113 677.388 324.456 679.177 323.224 681.494 321.992 683.812 321.376 686.525 321.376 689.634 321.376 692.744 321.992 695.457 323.224 697.774 324.456 700.092 326.113 701.881 328.196 703.142 330.278 704.404 332.61 705.034 335.192 705.034 337.773 705.034 340.105 704.404 342.188 703.142 344.27 701.881 345.928 700.092 347.16 697.774 348.392 695.457 349.008 692.744 349.008 689.634 349.008 686.525 348.392 683.812 347.16 681.494 345.928 679.177 344.27 677.388 342.188 676.126 340.105 674.865 337.773 674.234 335.192 674.234ZM224.312 673.354 224.312 682.506 233.992 682.506C238.509 682.506 240.768 680.981 240.768 677.93 240.768 674.88 238.509 673.354 233.992 673.354ZM857.136 658.834 877.552 658.834 904.48 720.434 883.008 720.434 878.872 709.698 855.464 709.698 851.328 720.434 830.208 720.434ZM805.896 658.834 826.664 658.834 826.664 720.434 805.896 720.434ZM721.896 658.834 738.968 658.834 759.032 691.658 778.568 658.834 795.64 658.834 795.816 720.434 776.896 720.434 776.72 692.362 763.344 714.89 754.192 714.89 740.816 693.33 740.816 720.434 721.896 720.434ZM576.896 658.834 593.968 658.834 617.376 686.818 617.376 658.834 637.616 658.834 637.616 720.434 620.544 720.434 597.136 692.45 597.136 720.434 576.896 720.434ZM377.896 658.834 427.968 658.834 427.968 674.498 398.312 674.498 398.312 681.714 424.36 681.714 424.36 696.674 398.312 696.674 398.312 704.77 429.112 704.77 429.112 720.434 377.896 720.434ZM271.896 658.834 292.664 658.834 292.664 720.434 271.896 720.434ZM203.896 658.834 236.808 658.834C245.021 658.834 251.225 660.301 255.42 663.234 259.614 666.168 261.712 670.069 261.712 674.938 261.712 677.813 260.993 680.394 259.556 682.682 258.118 684.97 255.992 686.818 253.176 688.226 256.813 689.576 259.629 691.541 261.624 694.122 263.618 696.704 264.616 699.813 264.616 703.45 264.616 708.848 262.386 713.028 257.928 715.99 253.469 718.953 247.016 720.434 238.568 720.434L203.896 720.434ZM680.192 657.426C686.821 657.426 692.776 658.805 698.056 661.562 703.336 664.32 707.472 668.148 710.464 673.046 713.456 677.945 714.952 683.474 714.952 689.634 714.952 695.794 713.456 701.324 710.464 706.222 707.472 711.121 703.336 714.949 698.056 717.706 692.776 720.464 686.821 721.842 680.192 721.842 673.562 721.842 667.608 720.464 662.328 717.706 657.048 714.949 652.912 711.121 649.92 706.222 646.928 701.324 645.432 695.794 645.432 689.634 645.432 683.474 646.928 677.945 649.92 673.046 652.912 668.148 657.048 664.32 662.328 661.562 667.608 658.805 673.562 657.426 680.192 657.426ZM534.192 657.426C540.821 657.426 546.776 658.805 552.056 661.562 557.336 664.32 561.472 668.148 564.464 673.046 567.456 677.945 568.952 683.474 568.952 689.634 568.952 695.794 567.456 701.324 564.464 706.222 561.472 711.121 557.336 714.949 552.056 717.706 546.776 720.464 540.821 721.842 534.192 721.842 527.562 721.842 521.608 720.464 516.328 717.706 511.048 714.949 506.912 711.121 503.92 706.222 500.928 701.324 499.432 695.794 499.432 689.634 499.432 683.474 500.928 677.945 503.92 673.046 506.912 668.148 511.048 664.32 516.328 661.562 521.608 658.805 527.562 657.426 534.192 657.426ZM468.752 657.426C474.736 657.426 480.074 658.482 484.768 660.594 489.461 662.706 493.333 665.757 496.384 669.746L483.272 681.45C479.458 676.64 474.97 674.234 469.808 674.234 465.466 674.234 461.976 675.628 459.336 678.414 456.696 681.201 455.376 684.941 455.376 689.634 455.376 694.328 456.696 698.068 459.336 700.854 461.976 703.641 465.466 705.034 469.808 705.034 474.97 705.034 479.458 702.629 483.272 697.818L496.384 709.522C493.333 713.512 489.461 716.562 484.768 718.674 480.074 720.786 474.736 721.842 468.752 721.842 462.24 721.842 456.373 720.478 451.152 717.75 445.93 715.022 441.838 711.209 438.876 706.31 435.913 701.412 434.432 695.853 434.432 689.634 434.432 683.416 435.913 677.857 438.876 672.958 441.838 668.06 445.93 664.246 451.152 661.518 456.373 658.79 462.24 657.426 468.752 657.426ZM335.192 657.426C341.821 657.426 347.776 658.805 353.056 661.562 358.336 664.32 362.472 668.148 365.464 673.046 368.456 677.945 369.952 683.474 369.952 689.634 369.952 695.794 368.456 701.324 365.464 706.222 362.472 711.121 358.336 714.949 353.056 717.706 347.776 720.464 341.821 721.842 335.192 721.842 328.562 721.842 322.608 720.464 317.328 717.706 312.048 714.949 307.912 711.121 304.92 706.222 301.928 701.324 300.432 695.794 300.432 689.634 300.432 683.474 301.928 677.945 304.92 673.046 307.912 668.148 312.048 664.32 317.328 661.562 322.608 658.805 328.562 657.426 335.192 657.426ZM818.656 639.738 837.576 639.738 820.24 653.818 807.04 653.818Z" stroke="#2A421A" stroke-linejoin="round" stroke-miterlimit="10" fill="#385723" fill-rule="evenodd"/><text fill="#000000" fill-opacity="0" font-family="Arial,Arial_MSFontService,sans-serif" font-size="82.104" x="203.896" y="711.579">BIOECONOMÍA</text><path d="M85.2962 828.133 124.14 828.133 124.14 816.55C124.14 810.622 122.444 805.884 119.051 802.335 115.658 798.786 110.88 797.011 104.718 797.011 98.5562 797.011 93.7787 798.786 90.3857 802.335 86.9927 805.884 85.2962 810.622 85.2962 816.55ZM84.2432 256.806C84.2432 260.238 85.0817 263.339 86.7587 266.108 88.4357 268.877 90.8147 271.08 93.8957 272.718 96.9767 274.356 100.584 275.175 104.718 275.175 108.852 275.175 112.46 274.356 115.541 272.718 118.622 271.08 121.001 268.877 122.678 266.108 124.355 263.339 125.193 260.238 125.193 256.806 125.193 253.374 124.355 250.274 122.678 247.505 121.001 244.736 118.622 242.532 115.541 240.894 112.46 239.256 108.852 238.437 104.718 238.437 100.584 238.437 96.9767 239.256 93.8957 240.894 90.8147 242.532 88.4357 244.736 86.7587 247.505 85.0817 250.274 84.2432 253.374 84.2432 256.806ZM63.7682 199.745 63.7682 177.047 100.974 145.925 63.7682 145.925 63.7682 119.015 145.668 119.015 145.668 141.713 108.462 172.835 145.668 172.835 145.668 199.745ZM63.7682 340.745 63.7682 313.133 145.668 313.133 145.668 340.745ZM63.7682 468.745 63.7682 441.133 145.668 441.133 145.668 468.745ZM63.7682 562.745 63.7682 540.047 100.974 508.925 63.7682 508.925 63.7682 482.015 145.668 482.015 145.668 504.713 108.462 535.835 145.668 535.835 145.668 562.745ZM63.7682 603.745 63.7682 576.133 145.668 576.133 145.668 603.745ZM63.7682 679.745 63.7682 613.172 84.5942 613.172 84.5942 652.133 98.6342 652.133 98.6342 617.969 119.46 617.969 119.46 652.133 145.668 652.133 145.668 679.745ZM63.7682 758.745 63.7682 692.172 84.5942 692.172 84.5942 731.601 94.1882 731.601 94.1882 696.969 114.078 696.969 114.078 731.601 124.842 731.601 124.842 690.651 145.668 690.651 145.668 758.745ZM63.7682 855.745 63.7682 815.38C63.7682 806.254 65.4257 798.201 68.7407 791.22 72.0557 784.239 76.7942 778.818 82.9562 774.957 89.1182 771.096 96.3722 769.165 104.718 769.165 113.064 769.165 120.318 771.096 126.48 774.957 132.642 778.818 137.381 784.239 140.696 791.22 144.011 798.201 145.668 806.254 145.668 815.38L145.668 855.745ZM61.8962 256.806C61.8962 247.992 63.7292 240.075 67.3952 233.055 71.0612 226.035 76.1507 220.536 82.6637 216.558 89.1767 212.58 96.5282 210.591 104.718 210.591 112.908 210.591 120.26 212.58 126.773 216.558 133.286 220.536 138.375 226.035 142.041 233.055 145.707 240.075 147.54 247.992 147.54 256.806 147.54 265.62 145.707 273.537 142.041 280.557 138.375 287.577 133.286 293.076 126.773 297.054 120.26 301.032 112.908 303.021 104.718 303.021 96.5282 303.021 89.1767 301.032 82.6637 297.054 76.1507 293.076 71.0612 287.577 67.3952 280.557 63.7292 273.537 61.8962 265.62 61.8962 256.806ZM61.8962 385.391C61.8962 377.435 63.3002 370.337 66.1082 364.097 68.9162 357.857 72.9722 352.709 78.2762 348.653L93.8372 366.086C87.4412 371.156 84.2432 377.123 84.2432 383.987 84.2432 389.759 86.0957 394.4 89.8007 397.91 93.5057 401.42 98.4782 403.175 104.718 403.175 110.958 403.175 115.931 401.42 119.636 397.91 123.341 394.4 125.193 389.759 125.193 383.987 125.193 377.123 121.995 371.156 115.599 366.086L131.16 348.653C136.464 352.709 140.52 357.857 143.328 364.097 146.136 370.337 147.54 377.435 147.54 385.391 147.54 394.049 145.727 401.849 142.1 408.791 138.473 415.733 133.403 421.174 126.89 425.113 120.377 429.052 112.986 431.021 104.718 431.021 96.4502 431.021 89.0597 429.052 82.5467 425.113 76.0337 421.174 70.9637 415.733 67.3367 408.791 63.7097 401.849 61.8962 394.049 61.8962 385.391ZM38.3792 253.647 38.3792 228.492 57.0992 251.541 57.0992 269.091Z" stroke="#262626" stroke-linejoin="round" stroke-miterlimit="10" fill="none" fill-rule="evenodd"/><text fill="#000000" fill-opacity="0" font-family="Arial,Arial_MSFontService,sans-serif" font-size="736.73" x="38.3792" y="763.654">DEFINICIÓN</text><g clip-path="url(#clip4)"><g clip-path="url(#clip5)"><g clip-path="url(#clip6)"><path d="M904.475 423.179 860.845 423.179C858.88 423.179 857.288 424.771 857.288 426.736L857.288 446.971 830.73 446.971 830.73 426.736C830.73 424.771 829.14 423.179 827.174 423.179L783.543 423.179C781.58 423.179 779.987 424.771 779.987 426.736L779.987 468.763 736.712 513.134 730.861 513.134 719.334 416.046C719.12 414.256 717.606 412.907 715.801 412.907L707.427 412.907 707.427 401.164C713.207 400.85 724.032 399.223 731.338 391.824 741.503 381.532 740.415 364.558 740.364 363.842 740.236 362.06 738.807 360.65 737.026 360.545 736.581 360.52 729.923 360.177 722.502 362.347 720.281 345.814 706.175 333.397 705.529 332.836 704.179 331.665 702.172 331.68 700.837 332.865 700.143 333.48 683.866 348.16 683.98 366.72 684.083 382.954 696.687 396.063 700.314 399.501L700.314 412.909 691.187 412.909C689.384 412.909 687.868 414.256 687.656 416.046L683.611 450.11C683.073 454.645 690.137 455.491 690.676 450.949L691.58 443.334 715.411 443.334 723.697 513.134 683.293 513.134 688.649 468.022C689.187 463.481 682.132 462.574 681.584 467.183L676.13 513.134 668.777 513.134C666.813 513.134 665.22 514.727 665.22 516.691L665.22 571.223C665.22 573.188 666.813 574.78 668.777 574.78L904.475 574.78C906.442 574.78 908.032 573.188 908.032 571.223L908.032 534.943C908.032 530.377 900.918 530.37 900.918 534.943L900.918 567.666 672.333 567.666 672.333 520.248 738.213 520.248C739.17 520.248 740.089 519.861 740.758 519.175L786.089 472.692C786.737 472.029 787.1 471.137 787.1 470.209L787.1 430.293 823.617 430.293 823.617 470.209C823.617 472.174 825.208 473.766 827.174 473.766L860.845 473.766C862.812 473.766 864.402 472.174 864.402 470.209L864.402 430.293 900.918 430.293 900.918 516.448C900.918 521.014 908.032 521.021 908.032 516.448L908.032 426.736C908.032 424.772 906.442 423.179 904.475 423.179ZM830.73 454.085 857.288 454.085 857.288 466.652 830.73 466.652ZM712.642 420.021 714.566 436.221 692.422 436.221 694.347 420.021ZM733.254 367.703C733.026 372.465 731.812 381.222 726.277 386.825 720.739 392.435 711.99 393.757 707.235 394.041 707.3 392.675 707.448 390.972 707.761 389.093 708.46 384.903 710.147 379.042 714.219 374.917 719.755 369.312 728.497 367.989 733.254 367.703ZM709.159 369.92C703.536 375.612 701.359 383.346 700.542 389.244 696.324 384.042 691.152 375.814 691.094 366.676 691.021 355.196 699.119 344.978 703.23 340.533 707.227 344.748 714.951 354.229 715.638 365.127 713.336 366.366 711.118 367.934 709.159 369.92Z" fill="#385723"/><path d="M809.967 495.485 794.784 495.485C792.821 495.485 791.228 497.076 791.228 499.042L791.228 545.926C791.228 547.893 792.821 549.483 794.784 549.483L809.967 549.483C811.934 549.483 813.524 547.893 813.524 545.926L813.524 499.042C813.524 497.078 811.931 495.485 809.967 495.485ZM806.411 542.37 798.341 542.37 798.341 502.598 806.411 502.598Z" fill="#385723"/><path d="M845.539 495.485 830.356 495.485C828.392 495.485 826.799 497.076 826.799 499.042L826.799 545.926C826.799 547.893 828.392 549.483 830.356 549.483L845.539 549.483C847.502 549.483 849.095 547.893 849.095 545.926L849.095 499.042C849.095 497.078 847.502 495.485 845.539 495.485ZM841.982 542.37 833.912 542.37 833.912 502.598 841.982 502.598Z" fill="#385723"/><path d="M881.108 495.485 865.925 495.485C863.962 495.485 862.369 497.076 862.369 499.042L862.369 545.926C862.369 547.893 863.962 549.483 865.925 549.483L881.108 549.483C883.072 549.483 884.665 547.893 884.665 545.926L884.665 499.042C884.665 497.078 883.072 495.485 881.108 495.485ZM877.552 542.37 869.482 542.37 869.482 502.598 877.552 502.598Z" fill="#385723"/><path d="M769.316 542.531 688.695 542.531C686.731 542.531 685.138 544.123 685.138 546.088 685.138 548.053 686.731 549.645 688.695 549.645L769.316 549.645C771.28 549.645 772.873 548.053 772.873 546.088 772.873 544.123 771.28 542.531 769.316 542.531Z" fill="#385723"/><path d="M889.877 349.111C889.248 349.378 888.729 349.296 888.32 348.868 884.91 338.759 875.581 331.967 865.109 331.967 852.608 331.967 842.258 341.556 840.746 353.908 835.077 355.174 830.227 359.178 827.904 364.732 825.88 369.563 829.61 375.046 834.809 375.046L872.938 375.046C877.51 375.046 877.58 367.933 872.938 367.933L834.809 367.933C834.531 367.891 834.418 367.74 834.465 367.476 836.153 363.445 839.986 360.748 844.235 360.604 846.149 360.539 847.669 358.967 847.669 357.049 847.669 357.033 847.669 357.013 847.669 356.997 847.689 347.113 855.505 339.081 865.109 339.081 872.528 339.081 879.146 343.927 881.578 351.142 882.85 354.903 886.232 356.225 889.876 356.225 895.965 356.225 900.918 361.338 900.918 367.654 900.918 367.796 900.747 367.933 900.566 367.933L892.856 367.933C888.284 367.933 888.216 375.046 892.856 375.046L900.567 375.046C904.673 375.046 908.022 371.738 908.032 367.673 908.032 367.669 908.032 367.626 908.032 367.624 908.032 357.415 899.887 349.111 889.877 349.111Z" fill="#385723"/><path d="M752.765 408.795 818.523 408.795C822.614 408.795 825.926 405.421 825.988 401.374 825.988 391.165 817.843 382.858 807.833 382.858 807.207 383.125 806.688 383.045 806.276 382.616 802.866 372.508 793.538 365.717 783.065 365.717 770.564 365.717 760.214 375.306 758.702 387.658 753.035 388.922 748.183 392.928 745.86 398.48 743.837 403.311 747.566 408.795 752.765 408.795ZM818.874 401.404C818.874 401.546 818.703 401.681 818.523 401.681L752.765 401.681C752.488 401.641 752.374 401.488 752.421 401.226 754.109 397.195 757.944 394.498 762.188 394.353 764.105 394.287 765.625 392.715 765.625 390.797 765.625 390.787 765.625 390.773 765.625 390.76 765.638 380.872 773.457 372.831 783.065 372.831 790.484 372.831 797.102 377.677 799.537 384.891 800.807 388.659 804.186 389.972 807.833 389.972 813.923 389.972 818.874 395.086 818.874 401.374Z" fill="#385723"/></g></g></g><path d="M831 841 851.5 841 872 873.5 851.5 906 831 906 851.5 873.5Z" stroke="#385723" stroke-width="3.66731" stroke-miterlimit="8" fill="none" fill-rule="evenodd"/><path d="M860 841 880.5 841 901 873.5 880.5 906 860 906 880.5 873.5Z" stroke="#385723" stroke-width="3.66731" stroke-miterlimit="8" fill="none" fill-rule="evenodd"/></g></svg>