<svg width="945" height="945" xmlns="http://www.w3.org/2000/svg" xmlns:xlink="http://www.w3.org/1999/xlink" overflow="hidden"><defs><clipPath id="clip0"><rect x="0" y="0" width="945" height="945"/></clipPath><clipPath id="clip1"><rect x="166" y="93" width="234" height="232"/></clipPath><clipPath id="clip2"><rect x="166" y="93" width="234" height="232"/></clipPath><clipPath id="clip3"><rect x="166" y="93" width="234" height="232"/></clipPath></defs><g clip-path="url(#clip0)"><rect x="0" y="0" width="945" height="945" fill="#D6DCE5"/><path d="M107.22 379.805 115.668 383.069 115.668 376.541ZM107.22 525.805 115.668 529.068 115.668 522.541ZM104.82 172.989 112.692 172.989 112.692 168.861C112.692 167.325 112.348 166.173 111.66 165.405 110.972 164.637 110.004 164.253 108.756 164.253 107.508 164.253 106.54 164.637 105.852 165.405 105.164 166.173 104.82 167.325 104.82 168.861ZM104.82 240.989 112.692 240.989 112.692 236.861C112.692 235.325 112.348 234.173 111.66 233.405 110.972 232.637 110.004 232.253 108.756 232.253 107.508 232.253 106.54 232.637 105.852 233.405 105.164 234.173 104.82 235.325 104.82 236.861ZM104.82 689.989 112.692 689.989 112.692 685.861C112.692 684.325 112.348 683.173 111.66 682.405 110.972 681.637 110.004 681.253 108.756 681.253 107.508 681.253 106.54 681.637 105.852 682.405 105.164 683.173 104.82 684.325 104.82 685.861ZM104.484 130.701C104.484 132.109 104.828 133.381 105.516 134.517 106.204 135.653 107.18 136.557 108.444 137.229 109.708 137.901 111.188 138.237 112.884 138.237 114.58 138.237 116.06 137.901 117.324 137.229 118.588 136.557 119.564 135.653 120.252 134.517 120.94 133.381 121.284 132.109 121.284 130.701 121.284 129.293 120.94 128.021 120.252 126.885 119.564 125.749 118.588 124.845 117.324 124.173 116.06 123.501 114.58 123.165 112.884 123.165 111.188 123.165 109.708 123.501 108.444 124.173 107.18 124.845 106.204 125.749 105.516 126.885 104.828 128.021 104.484 129.293 104.484 130.701ZM104.484 724.701C104.484 726.109 104.828 727.381 105.516 728.517 106.204 729.653 107.18 730.557 108.444 731.229 109.708 731.901 111.188 732.237 112.884 732.237 114.58 732.237 116.06 731.901 117.324 731.229 118.588 730.557 119.564 729.653 120.252 728.517 120.94 727.381 121.284 726.109 121.284 724.701 121.284 723.293 120.94 722.021 120.252 720.885 119.564 719.749 118.588 718.845 117.324 718.173 116.06 717.501 114.58 717.165 112.884 717.165 111.188 717.165 109.708 717.501 108.444 718.173 107.18 718.845 106.204 719.749 105.516 720.885 104.828 722.021 104.484 723.293 104.484 724.701ZM96.0837 184.317 96.0837 168.141C96.0837 165.037 96.5957 162.333 97.6197 160.029 98.6437 157.725 100.116 155.949 102.036 154.701 103.956 153.453 106.196 152.829 108.756 152.829 111.156 152.829 113.252 153.373 115.044 154.461 116.836 155.549 118.26 157.117 119.316 159.165L129.684 152.109 129.684 164.205 121.236 169.917 121.236 172.989 129.684 172.989 129.684 184.317ZM96.0837 217.317 96.0837 190.005 104.628 190.005 104.628 206.181 108.564 206.181 108.564 191.973 116.724 191.973 116.724 206.181 121.14 206.181 121.14 189.381 129.684 189.381 129.684 217.317ZM96.0837 252.317 96.0837 236.141C96.0837 233.037 96.5957 230.333 97.6197 228.029 98.6437 225.725 100.116 223.949 102.036 222.701 103.956 221.453 106.196 220.829 108.756 220.829 111.156 220.829 113.252 221.373 115.044 222.461 116.836 223.549 118.26 225.117 119.316 227.165L129.684 220.109 129.684 232.205 121.236 237.917 121.236 240.989 129.684 240.989 129.684 252.317ZM96.0837 290.605 96.0837 279.277 114.228 279.277C116.692 279.277 118.484 278.837 119.604 277.957 120.724 277.077 121.284 275.805 121.284 274.141 121.284 272.477 120.724 271.205 119.604 270.325 118.484 269.445 116.692 269.005 114.228 269.005L96.0837 269.005 96.0837 257.869 114.564 257.869C119.588 257.869 123.492 259.309 126.276 262.189 129.06 265.069 130.452 269.085 130.452 274.237 130.452 279.389 129.06 283.405 126.276 286.285 123.492 289.165 119.588 290.605 114.564 290.605ZM96.0837 323.861 96.0837 292.853 104.868 292.853 104.868 302.693 129.684 302.693 129.684 314.021 104.868 314.021 104.868 323.861ZM96.0837 385.277 96.0837 374.141 129.684 359.453 129.684 371.165 123.828 373.421 123.828 386.189 129.684 388.445 129.684 399.965ZM96.0837 427.317 96.0837 400.005 104.628 400.005 104.628 415.989 110.388 415.989 110.388 401.973 118.932 401.973 118.932 415.989 129.684 415.989 129.684 427.317ZM96.0837 464.605 96.0837 453.277 114.228 453.277C116.692 453.277 118.484 452.837 119.604 451.957 120.724 451.077 121.284 449.805 121.284 448.141 121.284 446.477 120.724 445.205 119.604 444.325 118.484 443.445 116.692 443.005 114.228 443.005L96.0837 443.005 96.0837 431.869 114.564 431.869C119.588 431.869 123.492 433.309 126.276 436.189 129.06 439.069 130.452 443.085 130.452 448.237 130.452 453.389 129.06 457.405 126.276 460.285 123.492 463.165 119.588 464.605 114.564 464.605ZM96.0837 503.317 96.0837 494.005 111.348 481.237 96.0837 481.237 96.0837 470.197 129.684 470.197 129.684 479.509 114.42 492.277 129.684 492.277 129.684 503.317ZM96.0837 531.277 96.0837 520.141 129.684 505.453 129.684 517.165 123.828 519.421 123.828 532.188 129.684 534.445 129.684 545.965ZM96.0837 587.317 96.0837 578.005 113.988 567.061 96.0837 556.405 96.0837 547.093 129.684 546.997 129.684 557.317 114.372 557.412 126.66 564.708 126.66 569.701 114.9 576.997 129.684 576.997 129.684 587.317ZM96.0837 666.317 96.0837 639.005 104.628 639.005 104.628 655.181 108.564 655.181 108.564 640.973 116.724 640.973 116.724 655.181 121.14 655.181 121.14 638.381 129.684 638.381 129.684 666.317ZM96.0837 701.317 96.0837 685.141C96.0837 682.036 96.5957 679.333 97.6197 677.029 98.6437 674.725 100.116 672.949 102.036 671.701 103.956 670.453 106.196 669.828 108.756 669.828 111.156 669.828 113.252 670.373 115.044 671.461 116.836 672.549 118.26 674.117 119.316 676.165L129.684 669.109 129.684 681.205 121.236 686.917 121.236 689.989 129.684 689.989 129.684 701.317ZM96.0837 775.861 96.0837 744.853 104.868 744.853 104.868 754.693 129.684 754.693 129.684 766.021 104.868 766.021 104.868 775.861ZM96.0837 841.317 96.0837 814.005 104.628 814.005 104.628 830.181 108.564 830.181 108.564 815.973 116.724 815.973 116.724 830.181 121.14 830.181 121.14 813.381 129.684 813.381 129.684 841.317ZM95.3157 94.2526C95.3157 91.9485 95.5637 89.6845 96.0597 87.4606 96.5557 85.2365 97.2837 83.2766 98.2437 81.5806L106.452 84.9885C104.788 88.2845 103.956 91.4045 103.956 94.3486 103.956 97.2606 104.66 98.7166 106.068 98.7166 106.74 98.7166 107.244 98.2845 107.58 97.4205 107.916 96.5566 108.276 95.1325 108.66 93.1486 109.14 90.5886 109.692 88.4285 110.316 86.6686 110.94 84.9086 111.956 83.3806 113.364 82.0845 114.772 80.7886 116.692 80.1406 119.124 80.1406 121.236 80.1406 123.148 80.7326 124.86 81.9166 126.572 83.1005 127.932 84.8685 128.94 87.2206 129.948 89.5726 130.452 92.4285 130.452 95.7886 130.452 98.5726 130.14 101.285 129.516 103.925 128.892 106.565 128.052 108.733 126.996 110.429L118.74 106.781C119.668 105.181 120.412 103.389 120.972 101.405 121.532 99.4206 121.812 97.5165 121.812 95.6926 121.812 94.1245 121.66 93.0046 121.356 92.3326 121.052 91.6605 120.596 91.3245 119.988 91.3245 119.284 91.3245 118.756 91.7646 118.404 92.6445 118.052 93.5245 117.668 94.9725 117.252 96.9885 116.708 99.5806 116.124 101.741 115.5 103.469 114.876 105.197 113.852 106.701 112.428 107.981 111.004 109.261 109.076 109.901 106.644 109.901 104.532 109.901 102.612 109.309 100.884 108.125 99.1557 106.941 97.7957 105.173 96.8037 102.821 95.8117 100.469 95.3157 97.6125 95.3157 94.2526ZM95.3157 130.701C95.3157 127.085 96.0677 123.837 97.5717 120.957 99.0757 118.077 101.164 115.821 103.836 114.189 106.508 112.557 109.524 111.741 112.884 111.741 116.244 111.741 119.26 112.557 121.932 114.189 124.604 115.821 126.692 118.077 128.196 120.957 129.7 123.837 130.452 127.085 130.452 130.701 130.452 134.317 129.7 137.565 128.196 140.445 126.692 143.325 124.604 145.581 121.932 147.213 119.26 148.845 116.244 149.661 112.884 149.661 109.524 149.661 106.508 148.845 103.836 147.213 101.164 145.581 99.0757 143.325 97.5717 140.445 96.0677 137.565 95.3157 134.317 95.3157 130.701ZM95.3157 339.941C95.3157 336.677 95.8917 333.765 97.0437 331.205 98.1957 328.645 99.8597 326.533 102.036 324.869L108.42 332.021C105.796 334.101 104.484 336.549 104.484 339.365 104.484 341.733 105.244 343.637 106.764 345.077 108.284 346.517 110.324 347.237 112.884 347.237 115.444 347.237 117.484 346.517 119.004 345.077 120.524 343.637 121.284 341.733 121.284 339.365 121.284 336.549 119.972 334.101 117.348 332.021L123.732 324.869C125.908 326.533 127.572 328.645 128.724 331.205 129.876 333.765 130.452 336.677 130.452 339.941 130.452 343.493 129.708 346.693 128.22 349.541 126.732 352.389 124.652 354.621 121.98 356.237 119.308 357.853 116.276 358.661 112.884 358.661 109.492 358.661 106.46 357.853 103.788 356.237 101.116 354.621 99.0357 352.389 97.5477 349.541 96.0597 346.693 95.3157 343.493 95.3157 339.941ZM95.3157 619.253C95.3157 616.949 95.5637 614.685 96.0597 612.461 96.5557 610.237 97.2837 608.277 98.2437 606.581L106.452 609.989C104.788 613.285 103.956 616.405 103.956 619.349 103.956 622.26 104.66 623.717 106.068 623.717 106.74 623.717 107.244 623.285 107.58 622.421 107.916 621.557 108.276 620.133 108.66 618.149 109.14 615.589 109.692 613.429 110.316 611.669 110.94 609.909 111.956 608.381 113.364 607.085 114.772 605.789 116.692 605.141 119.124 605.141 121.236 605.141 123.148 605.733 124.86 606.917 126.572 608.101 127.932 609.869 128.94 612.221 129.948 614.573 130.452 617.429 130.452 620.789 130.452 623.573 130.14 626.285 129.516 628.925 128.892 631.565 128.052 633.733 126.996 635.429L118.74 631.781C119.668 630.181 120.412 628.389 120.972 626.405 121.532 624.421 121.812 622.517 121.812 620.693 121.812 619.125 121.66 618.005 121.356 617.333 121.052 616.661 120.596 616.325 119.988 616.325 119.284 616.325 118.756 616.765 118.404 617.645 118.052 618.525 117.668 619.973 117.252 621.989 116.708 624.581 116.124 626.741 115.5 628.469 114.876 630.197 113.852 631.701 112.428 632.981 111.004 634.26 109.076 634.901 106.644 634.901 104.532 634.901 102.612 634.309 100.884 633.125 99.1557 631.941 97.7957 630.173 96.8037 627.821 95.8117 625.469 95.3157 622.613 95.3157 619.253ZM95.3157 724.701C95.3157 721.085 96.0677 717.837 97.5717 714.957 99.0757 712.077 101.164 709.821 103.836 708.189 106.508 706.557 109.524 705.741 112.884 705.741 116.244 705.741 119.26 706.557 121.932 708.189 124.604 709.821 126.692 712.077 128.196 714.957 129.7 717.837 130.452 721.085 130.452 724.701 130.452 728.317 129.7 731.565 128.196 734.445 126.692 737.325 124.604 739.581 121.932 741.213 119.26 742.845 116.244 743.661 112.884 743.661 109.524 743.661 106.508 742.845 103.836 741.213 101.164 739.581 99.0757 737.325 97.5717 734.445 96.0677 731.565 95.3157 728.317 95.3157 724.701ZM95.3157 791.941C95.3157 788.677 95.8917 785.765 97.0437 783.205 98.1957 780.645 99.8597 778.533 102.036 776.869L108.42 784.021C105.796 786.101 104.484 788.549 104.484 791.365 104.484 793.733 105.244 795.637 106.764 797.077 108.284 798.517 110.324 799.237 112.884 799.237 115.444 799.237 117.484 798.517 119.004 797.077 120.524 795.637 121.284 793.733 121.284 791.365 121.284 788.549 119.972 786.101 117.348 784.021L123.732 776.869C125.908 778.533 127.572 780.645 128.724 783.205 129.876 785.765 130.452 788.677 130.452 791.941 130.452 795.493 129.708 798.693 128.22 801.541 126.732 804.389 124.652 806.621 121.98 808.237 119.308 809.853 116.276 810.661 112.884 810.661 109.492 810.661 106.46 809.853 103.788 808.237 101.116 806.621 99.0357 804.389 97.5477 801.541 96.0597 798.693 95.3157 795.493 95.3157 791.941ZM95.3157 859.253C95.3157 856.949 95.5637 854.685 96.0597 852.461 96.5557 850.237 97.2837 848.277 98.2437 846.581L106.452 849.989C104.788 853.285 103.956 856.405 103.956 859.349 103.956 862.261 104.66 863.717 106.068 863.717 106.74 863.717 107.244 863.285 107.58 862.421 107.916 861.557 108.276 860.133 108.66 858.149 109.14 855.589 109.692 853.429 110.316 851.669 110.94 849.909 111.956 848.381 113.364 847.085 114.772 845.789 116.692 845.141 119.124 845.141 121.236 845.141 123.148 845.733 124.86 846.917 126.572 848.101 127.932 849.869 128.94 852.221 129.948 854.573 130.452 857.429 130.452 860.789 130.452 863.573 130.14 866.285 129.516 868.925 128.892 871.565 128.052 873.733 126.996 875.429L118.74 871.781C119.668 870.181 120.412 868.389 120.972 866.405 121.532 864.421 121.812 862.517 121.812 860.693 121.812 859.125 121.66 858.005 121.356 857.333 121.052 856.661 120.596 856.325 119.988 856.325 119.284 856.325 118.756 856.765 118.404 857.645 118.052 858.525 117.668 859.973 117.252 861.989 116.708 864.581 116.124 866.741 115.5 868.469 114.876 870.197 113.852 871.701 112.428 872.981 111.004 874.261 109.076 874.901 106.644 874.901 104.532 874.901 102.612 874.309 100.884 873.125 99.1557 871.941 97.7957 870.173 96.8037 867.821 95.8117 865.469 95.3157 862.613 95.3157 859.253Z" stroke="#44546A" stroke-width="3" stroke-linejoin="round" stroke-miterlimit="10" fill="none" fill-rule="evenodd"/><text fill="#000000" fill-opacity="0" font-family="Arial,Arial_MSFontService,sans-serif" font-size="795.288" x="95.3157" y="776.018">SECTORES MANUFACTUREROS</text><g clip-path="url(#clip1)"><g clip-path="url(#clip2)"><g clip-path="url(#clip3)"><path d="M389.36 194.067C388.18 193.374 386.721 193.356 385.525 194.021L374.884 199.933 371.933 96.7584C371.875 94.6651 370.16 92.9991 368.067 93L341 93C338.906 92.9991 337.192 94.6651 337.133 96.7584L333.53 222.92 321.667 229.493 321.667 197.4C321.666 195.265 319.933 193.534 317.798 193.535 317.143 193.536 316.498 193.703 315.925 194.021L252.067 229.493 252.067 197.4C252.066 195.265 250.333 193.534 248.198 193.535 247.543 193.536 246.898 193.703 246.325 194.021L176.725 232.687C175.496 233.368 174.734 234.662 174.733 236.067L174.733 321.133C174.733 323.269 176.465 325 178.6 325L387.4 325C389.535 325 391.267 323.269 391.267 321.133L391.267 197.4C391.267 196.03 390.542 194.762 389.36 194.067ZM344.758 100.733 364.308 100.733 364.533 108.467 344.538 108.467 344.758 100.733ZM344.314 116.2 364.753 116.2 367.266 204.163 341.387 218.535 344.314 116.2ZM279.133 317.267 255.933 317.267 255.933 297.933 279.133 297.933 279.133 317.267ZM310.067 317.267 286.867 317.267 286.867 297.933 310.067 297.933 310.067 317.267ZM383.533 317.267 317.8 317.267 317.8 294.067C317.8 291.931 316.069 290.2 313.933 290.2L252.067 290.2C249.931 290.2 248.2 291.931 248.2 294.067L248.2 317.267 182.467 317.267 182.467 238.344 244.333 203.973 244.333 236.067C244.334 238.202 246.067 239.932 248.202 239.931 248.857 239.931 249.502 239.764 250.075 239.446L313.933 203.973 313.933 236.067C313.934 238.202 315.667 239.932 317.802 239.931 318.457 239.931 319.102 239.764 319.675 239.446L356.142 219.189 373.093 209.773 383.533 203.973 383.533 317.267Z" fill="#333F50"/><path d="M228.867 247.667 197.933 247.667C195.798 247.667 194.067 249.398 194.067 251.533L194.067 267C194.067 269.135 195.798 270.867 197.933 270.867L228.867 270.867C231.002 270.867 232.733 269.135 232.733 267L232.733 251.533C232.733 249.398 231.002 247.667 228.867 247.667ZM225 263.133 201.8 263.133 201.8 255.4 225 255.4 225 263.133Z" fill="#333F50"/><path d="M298.467 247.667 267.533 247.667C265.398 247.667 263.667 249.398 263.667 251.533L263.667 267C263.667 269.135 265.398 270.867 267.533 270.867L298.467 270.867C300.602 270.867 302.333 269.135 302.333 267L302.333 251.533C302.333 249.398 300.602 247.667 298.467 247.667ZM294.6 263.133 271.4 263.133 271.4 255.4 294.6 255.4 294.6 263.133Z" fill="#333F50"/><path d="M368.067 247.667 337.133 247.667C334.998 247.667 333.267 249.398 333.267 251.533L333.267 267C333.267 269.135 334.998 270.867 337.133 270.867L368.067 270.867C370.202 270.867 371.933 269.135 371.933 267L371.933 251.533C371.933 249.398 370.202 247.667 368.067 247.667ZM364.2 263.133 341 263.133 341 255.4 364.2 255.4 364.2 263.133Z" fill="#333F50"/></g></g></g><rect x="167" y="350" width="482" height="271" fill="#44546A"/><text fill="#DAE3F3" font-family="Montserrat,Montserrat_MSFontService,sans-serif" font-weight="700" font-size="72" transform="translate(176.273 423)">Índice de la <tspan font-size="72" x="0" y="86">Producción </tspan><tspan font-size="72" x="0" y="172">Industrial</tspan></text><path d="M848.5 823.5 874 823.5 899.5 853.5 874 883.5 848.5 883.5 874 853.5Z" stroke="#333F50" stroke-width="3.33392" stroke-miterlimit="8" fill="none" fill-rule="evenodd"/><path d="M805.5 823.5 831 823.5 856.5 853.5 831 883.5 805.5 883.5 831 853.5Z" stroke="#333F50" stroke-width="3.33392" stroke-miterlimit="8" fill="none" fill-rule="evenodd"/></g></svg>