<svg width="945" height="945" xmlns="http://www.w3.org/2000/svg" xmlns:xlink="http://www.w3.org/1999/xlink" overflow="hidden"><defs><clipPath id="clip0"><rect x="0" y="0" width="945" height="945"/></clipPath></defs><g clip-path="url(#clip0)"><rect x="0" y="0" width="945" height="945" fill="#54C2AE"/><rect x="95" y="265" width="549" height="586" fill="#C5488C"/><text fill="#FFFFFF" font-family="Montserrat SemiBold,Montserrat SemiBold_MSFontService,sans-serif" font-weight="600" font-size="43" transform="translate(263.899 522)">TRABAJO<tspan font-size="43" x="42.6742" y="51">70,3%</tspan></text><rect x="648" y="265" width="231" height="192" fill="#8F2D63"/><text fill="#FFFFFF" font-family="Montserrat SemiBold,Montserrat SemiBold_MSFontService,sans-serif" font-weight="600" font-size="24" transform="translate(696.441 341)">SERVICIOS <tspan font-size="24" x="2.33374" y="29">PÚBLICOS</tspan><tspan font-size="24" x="38.5935" y="57">9,8%</tspan></text><rect x="648" y="462" width="115" height="238" fill="#D67CAD"/><text fill="#FFFFFF" font-family="Montserrat SemiBold,Montserrat SemiBold_MSFontService,sans-serif" font-weight="600" font-size="19" transform="matrix(6.12323e-17 -1 1 6.12323e-17 689.876 638)">VIVIENDA Y <tspan font-size="19" x="-22" y="22">CONSTRUCCIÓN</tspan><tspan font-size="19" x="36" y="45">6,2%</tspan></text><rect x="767" y="462" width="112" height="238" fill="#BE3C83"/><text fill="#FFFFFF" font-family="Montserrat SemiBold,Montserrat SemiBold_MSFontService,sans-serif" font-weight="600" font-size="19" transform="matrix(6.12323e-17 -1 1 6.12323e-17 818.595 666)">AGROPECUARIAS<tspan font-size="19" x="66" y="22">6,1%</tspan></text><rect x="648" y="704" width="156" height="147" fill="#A0326E"/><text fill="#FFFFFF" font-family="Montserrat SemiBold,Montserrat SemiBold_MSFontService,sans-serif" font-weight="600" font-size="19" transform="translate(670.318 773)">PROVISIÓN<tspan font-size="19" x="34.4194" y="22">5,2%</tspan></text><rect x="807" y="704" width="72" height="69" fill="#3A1228"/><text fill="#FFFFFF" font-family="Montserrat SemiBold,Montserrat SemiBold_MSFontService,sans-serif" font-weight="600" font-size="11" transform="translate(818.091 722)">CREDITO <tspan font-size="11" x="21.7505" y="13">Y </tspan><tspan font-size="9" x="1.66693" y="24">SEGUROS</tspan><tspan font-size="13" x="11.4153" y="40">1,3%</tspan></text><rect x="807" y="778" width="72" height="72.9999" fill="#6C224B"/><text fill="#FFFFFF" font-family="Montserrat SemiBold,Montserrat SemiBold_MSFontService,sans-serif" font-weight="600" font-size="9" transform="translate(817.341 809)">CONSUMO<tspan font-size="13" x="13.5891" y="15">1,1%</tspan><tspan fill="#404040" font-size="37" x="-773.68" y="-722">De acuerdo a su objeto social, en </tspan><tspan fill="#404040" font-size="37" x="-773.68" y="-678">Argentina prevalecen las Cooperativas de </tspan><tspan fill="#404040" font-size="37" x="-773.68" y="-633">Trabajo, cuyas actividades se ramifican en </tspan><tspan fill="#404040" font-size="37" x="-773.68" y="-588">todos los rubros productivos</tspan></text></g></svg>