<?xml version="1.0" encoding="UTF-8" standalone="no"?>
<svg
   xmlns:dc="http://purl.org/dc/elements/1.1/"
   xmlns:cc="http://creativecommons.org/ns#"
   xmlns:rdf="http://www.w3.org/1999/02/22-rdf-syntax-ns#"
   xmlns:svg="http://www.w3.org/2000/svg"
   xmlns="http://www.w3.org/2000/svg"
   xmlns:sodipodi="http://sodipodi.sourceforge.net/DTD/sodipodi-0.dtd"
   xmlns:inkscape="http://www.inkscape.org/namespaces/inkscape"
   width="16"
   height="16"
   fill="currentColor"
   class="bi bi-instagram"
   viewBox="0 0 16 16"
   version="1.1"
   id="svg4"
   sodipodi:docname="instagram.svg"
   inkscape:version="1.0.1 (3bc2e813f5, 2020-09-07)">
  <metadata
     id="metadata10">
    <rdf:RDF>
      <cc:Work
         rdf:about="">
        <dc:format>image/svg+xml</dc:format>
        <dc:type
           rdf:resource="http://purl.org/dc/dcmitype/StillImage" />
        <dc:title />
      </cc:Work>
    </rdf:RDF>
  </metadata>
  <defs
     id="defs8" />
  <sodipodi:namedview
     pagecolor="#ffffff"
     bordercolor="#666666"
     borderopacity="1"
     objecttolerance="10"
     gridtolerance="10"
     guidetolerance="10"
     inkscape:pageopacity="0"
     inkscape:pageshadow="2"
     inkscape:window-width="1366"
     inkscape:window-height="705"
     id="namedview6"
     showgrid="false"
     inkscape:zoom="21.92031"
     inkscape:cx="12.195583"
     inkscape:cy="8.440937"
     inkscape:window-x="-8"
     inkscape:window-y="-8"
     inkscape:window-maximized="1"
     inkscape:current-layer="svg4"
     inkscape:pagecheckerboard="true"
     inkscape:document-rotation="0" />
  <path
     d="m 8,0.68429689 c -1.9605388,0 -2.2070736,0.009145 -2.977382,0.0438942 C 4.2523095,0.76476963 3.7276329,0.88730765 3.2679764,1.0683713 A 3.537278,3.5819511 0 0 0 1.9883433,1.9124206 3.5463085,3.5910958 0 0 0 1.1548208,3.2082145 C 0.97601534,3.6727616 0.85410252,4.204979 0.81888326,4.9822725 c -0.0343162,0.7818657 -0.0433468,1.0305996 -0.0433468,3.018642 0,1.9862134 0.009031,2.2349475 0.0433468,3.0149845 0.0361223,0.779122 0.15713208,1.310425 0.33593754,1.775887 0.1851269,0.481007 0.4316617,0.888857 0.8335225,1.295793 0.4009577,0.406936 0.8037216,0.657499 1.27873,0.84405 0.4605596,0.181063 0.9843332,0.304516 1.7537386,0.34018 0.7712114,0.03475 1.0168432,0.04389 2.9791881,0.04389 1.9623449,0 2.207074,-0.0091 2.978285,-0.04389 0.768502,-0.03658 1.294985,-0.159117 1.754642,-0.34018 a 3.5363749,3.5810367 0 0 0 1.27873,-0.84405 c 0.40186,-0.406936 0.648395,-0.814786 0.833522,-1.295793 0.177903,-0.465462 0.299815,-0.996765 0.335938,-1.775887 0.03432,-0.780037 0.04335,-1.0287711 0.04335,-3.015899 0,-1.9871279 -0.009,-2.2358618 -0.04335,-3.0168131 C 15.144994,4.204979 15.023082,3.6727616 14.845179,3.2082145 A 3.5454055,3.5901813 0 0 0 14.011657,1.9124206 3.5318596,3.5764644 0 0 0 12.732024,1.0683713 C 12.271464,0.88730765 11.745884,0.76385516 10.977382,0.72819111 10.206171,0.69344152 9.9614418,0.68429689 7.9981939,0.68429689 h 0.00271 z M 7.3525075,2.0029524 h 0.6483956 c 1.9289317,0 2.1574049,0.0064 2.9186829,0.042065 0.704386,0.032006 1.087282,0.1518008 1.341944,0.2514773 0.336841,0.1325971 0.577958,0.2917136 0.830814,0.5477632 0.252856,0.2560496 0.409085,0.4992968 0.540028,0.8413059 0.09934,0.2569641 0.216734,0.6446963 0.248341,1.3579774 0.03522,0.7708922 0.04244,1.0022513 0.04244,2.9546296 0,1.9523782 -0.0072,2.1846522 -0.04244,2.9555442 -0.03161,0.713281 -0.149907,1.100099 -0.248341,1.357978 a 2.2305531,2.2587233 0 0 1 -0.540931,0.840391 c -0.252857,0.25605 -0.49307,0.414252 -0.830814,0.546849 -0.252856,0.100591 -0.635752,0.219471 -1.341041,0.252391 -0.761278,0.03475 -0.9897512,0.04298 -2.9186829,0.04298 -1.9289318,0 -2.1583085,-0.0082 -2.9195864,-0.04298 -0.7043852,-0.03292 -1.0863787,-0.1518 -1.341041,-0.252391 A 2.2377776,2.266039 0 0 1 2.9094624,13.152084 2.2395837,2.267868 0 0 1 2.3676276,12.310778 C 2.2691943,12.053814 2.1508937,11.666082 2.1192867,10.952801 2.0849705,10.181908 2.077746,9.9505493 2.077746,7.9963421 c 0,-1.9532927 0.00722,-2.1837373 0.041541,-2.9546295 C 2.1517968,4.3284315 2.2691943,3.9406992 2.3685307,3.6828207 2.4994741,3.341726 2.6566062,3.0975645 2.9094624,2.8415148 3.1623186,2.5854652 3.402532,2.4272632 3.7402757,2.294666 3.994938,2.1940751 4.3769315,2.0751949 5.0813167,2.0422743 5.7477735,2.0111825 6.0060481,2.0020379 7.3525075,2.0011235 Z M 11.85696,3.2173591 a 0.86693562,0.87788437 0 1 0 0,1.7557687 0.86693562,0.87788437 0 0 0 0,-1.7557687 z M 8.0009031,4.2433865 a 3.7106651,3.757528 0 1 0 0,7.5141415 3.7106651,3.757528 0 0 0 0,-7.5141415 z m 0,1.317741 a 2.4084557,2.4388728 0 1 1 0,4.8777455 2.4084557,2.4388728 0 0 1 0,-4.8777455 z"
     id="path2"
     style="fill:#ffffff;fill-opacity:1;stroke-width:0.908743" />
</svg>
