<svg width="720" height="720" xmlns="http://www.w3.org/2000/svg" xmlns:xlink="http://www.w3.org/1999/xlink" overflow="hidden"><defs><clipPath id="clip0"><rect x="0" y="0" width="720" height="720"/></clipPath><clipPath id="clip1"><rect x="38" y="43" width="90" height="90"/></clipPath><clipPath id="clip2"><rect x="38" y="43" width="90" height="90"/></clipPath><clipPath id="clip3"><rect x="38" y="43" width="90" height="90"/></clipPath><clipPath id="clip4"><rect x="403" y="497" width="156" height="156"/></clipPath><clipPath id="clip5"><rect x="403" y="497" width="156" height="156"/></clipPath><clipPath id="clip6"><rect x="403" y="497" width="156" height="156"/></clipPath></defs><g clip-path="url(#clip0)"><rect x="0" y="0" width="720" height="720" fill="#4472C4"/><g clip-path="url(#clip1)"><g clip-path="url(#clip2)"><g clip-path="url(#clip3)"><path d="M77.375 133 47.375 133C46.34 133 45.5 132.16 45.5 131.125L45.5 104.875C45.5 103.84 46.34 103 47.375 103L77.375 103C78.41 103 79.25 103.84 79.25 104.875L79.25 131.125C79.25 132.16 78.41 133 77.375 133ZM49.25 129.25 75.5 129.25 75.5 106.75 49.25 106.75Z" fill="#5780C9"/><path d="M56.75 125.5C55.715 125.5 54.875 124.66 54.875 123.625L54.875 112.375C54.875 111.34 55.715 110.5 56.75 110.5 57.785 110.5 58.625 111.34 58.625 112.375L58.625 123.625C58.625 124.66 57.785 125.5 56.75 125.5Z" fill="#5780C9"/><path d="M77.375 133 47.375 133C46.34 133 45.5 132.16 45.5 131.125L45.5 104.875C45.5 103.84 46.34 103 47.375 103L77.375 103C78.41 103 79.25 103.84 79.25 104.875L79.25 131.125C79.25 132.16 78.41 133 77.375 133ZM49.25 129.25 75.5 129.25 75.5 106.75 49.25 106.75Z" fill="#5780C9"/><path d="M68 125.5C66.965 125.5 66.125 124.66 66.125 123.625L66.125 112.375C66.125 111.34 66.965 110.5 68 110.5 69.035 110.5 69.875 111.34 69.875 112.375L69.875 123.625C69.875 124.66 69.035 125.5 68 125.5Z" fill="#5780C9"/><path d="M56.75 125.5C55.715 125.5 54.875 124.66 54.875 123.625L54.875 112.375C54.875 111.34 55.715 110.5 56.75 110.5 57.785 110.5 58.625 111.34 58.625 112.375L58.625 123.625C58.625 124.66 57.785 125.5 56.75 125.5Z" fill="#5780C9"/><path d="M118.625 133 88.625 133C87.59 133 86.75 132.16 86.75 131.125L86.75 104.875C86.75 103.84 87.59 103 88.625 103L118.625 103C119.66 103 120.5 103.84 120.5 104.875L120.5 131.125C120.5 132.16 119.66 133 118.625 133ZM90.5 129.25 116.75 129.25 116.75 106.75 90.5 106.75Z" fill="#5780C9"/><path d="M98 125.5C96.965 125.5 96.125 124.66 96.125 123.625L96.125 112.375C96.125 111.34 96.965 110.5 98 110.5 99.035 110.5 99.875 111.34 99.875 112.375L99.875 123.625C99.875 124.66 99.035 125.5 98 125.5Z" fill="#5780C9"/><path d="M118.625 133 88.625 133C87.59 133 86.75 132.16 86.75 131.125L86.75 104.875C86.75 103.84 87.59 103 88.625 103L118.625 103C119.66 103 120.5 103.84 120.5 104.875L120.5 131.125C120.5 132.16 119.66 133 118.625 133ZM90.5 129.25 116.75 129.25 116.75 106.75 90.5 106.75Z" fill="#5780C9"/><path d="M109.25 125.5C108.215 125.5 107.375 124.66 107.375 123.625L107.375 112.375C107.375 111.34 108.215 110.5 109.25 110.5 110.285 110.5 111.125 111.34 111.125 112.375L111.125 123.625C111.125 124.66 110.285 125.5 109.25 125.5Z" fill="#5780C9"/><path d="M98 125.5C96.965 125.5 96.125 124.66 96.125 123.625L96.125 112.375C96.125 111.34 96.965 110.5 98 110.5 99.035 110.5 99.875 111.34 99.875 112.375L99.875 123.625C99.875 124.66 99.035 125.5 98 125.5Z" fill="#5780C9"/><path d="M118.625 106.75 88.625 106.75C87.59 106.75 86.75 105.91 86.75 104.875L86.75 78.625C86.75 77.59 87.59 76.75 88.625 76.75L118.625 76.75C119.66 76.75 120.5 77.59 120.5 78.625L120.5 104.875C120.5 105.91 119.66 106.75 118.625 106.75ZM90.5 103 116.75 103 116.75 80.5 90.5 80.5Z" fill="#5780C9"/><path d="M98 99.25C96.965 99.25 96.125 98.41 96.125 97.375L96.125 86.125C96.125 85.09 96.965 84.25 98 84.25 99.035 84.25 99.875 85.09 99.875 86.125L99.875 97.375C99.875 98.41 99.035 99.25 98 99.25Z" fill="#5780C9"/><path d="M118.625 106.75 88.625 106.75C87.59 106.75 86.75 105.91 86.75 104.875L86.75 78.625C86.75 77.59 87.59 76.75 88.625 76.75L118.625 76.75C119.66 76.75 120.5 77.59 120.5 78.625L120.5 104.875C120.5 105.91 119.66 106.75 118.625 106.75ZM90.5 103 116.75 103 116.75 80.5 90.5 80.5Z" fill="#5780C9"/><path d="M109.25 99.25C108.215 99.25 107.375 98.41 107.375 97.375L107.375 86.125C107.375 85.09 108.215 84.25 109.25 84.25 110.285 84.25 111.125 85.09 111.125 86.125L111.125 97.375C111.125 98.41 110.285 99.25 109.25 99.25Z" fill="#5780C9"/><path d="M98 99.25C96.965 99.25 96.125 98.41 96.125 97.375L96.125 86.125C96.125 85.09 96.965 84.25 98 84.25 99.035 84.25 99.875 85.09 99.875 86.125L99.875 97.375C99.875 98.41 99.035 99.25 98 99.25Z" fill="#5780C9"/><path d="M118.625 80.5 88.625 80.5C87.59 80.5 86.75 79.66 86.75 78.625L86.75 52.375C86.75 51.34 87.59 50.5 88.625 50.5L118.625 50.5C119.66 50.5 120.5 51.34 120.5 52.375L120.5 78.625C120.5 79.66 119.66 80.5 118.625 80.5ZM90.5 76.75 116.75 76.75 116.75 54.25 90.5 54.25Z" fill="#5780C9"/><path d="M98 73C96.965 73 96.125 72.16 96.125 71.125L96.125 59.875C96.125 58.84 96.965 58 98 58 99.035 58 99.875 58.84 99.875 59.875L99.875 71.125C99.875 72.16 99.035 73 98 73Z" fill="#5780C9"/><path d="M118.625 80.5 88.625 80.5C87.59 80.5 86.75 79.66 86.75 78.625L86.75 52.375C86.75 51.34 87.59 50.5 88.625 50.5L118.625 50.5C119.66 50.5 120.5 51.34 120.5 52.375L120.5 78.625C120.5 79.66 119.66 80.5 118.625 80.5ZM90.5 76.75 116.75 76.75 116.75 54.25 90.5 54.25Z" fill="#5780C9"/><path d="M109.25 73C108.215 73 107.375 72.16 107.375 71.125L107.375 59.875C107.375 58.84 108.215 58 109.25 58 110.285 58 111.125 58.84 111.125 59.875L111.125 71.125C111.125 72.16 110.285 73 109.25 73Z" fill="#5780C9"/><path d="M98 73C96.965 73 96.125 72.16 96.125 71.125L96.125 59.875C96.125 58.84 96.965 58 98 58 99.035 58 99.875 58.84 99.875 59.875L99.875 71.125C99.875 72.16 99.035 73 98 73Z" fill="#5780C9"/><path d="M77.375 95.5 47.375 95.5C46.34 95.5 45.5 94.66 45.5 93.625L45.5 67.375C45.5 66.34 46.34 65.5 47.375 65.5L77.375 65.5C78.41 65.5 79.25 66.34 79.25 67.375L79.25 93.625C79.25 94.66 78.41 95.5 77.375 95.5ZM49.25 91.75 75.5 91.75 75.5 69.25 49.25 69.25Z" fill="#5780C9"/><path d="M56.75 88C55.715 88 54.875 87.16 54.875 86.125L54.875 74.875C54.875 73.84 55.715 73 56.75 73 57.785 73 58.625 73.84 58.625 74.875L58.625 86.125C58.625 87.16 57.785 88 56.75 88Z" fill="#5780C9"/><path d="M77.375 95.5 47.375 95.5C46.34 95.5 45.5 94.66 45.5 93.625L45.5 67.375C45.5 66.34 46.34 65.5 47.375 65.5L77.375 65.5C78.41 65.5 79.25 66.34 79.25 67.375L79.25 93.625C79.25 94.66 78.41 95.5 77.375 95.5ZM49.25 91.75 75.5 91.75 75.5 69.25 49.25 69.25Z" fill="#5780C9"/><path d="M68 88C66.965 88 66.125 87.16 66.125 86.125L66.125 74.875C66.125 73.84 66.965 73 68 73 69.035 73 69.875 73.84 69.875 74.875L69.875 86.125C69.875 87.16 69.035 88 68 88Z" fill="#5780C9"/><path d="M56.75 88C55.715 88 54.875 87.16 54.875 86.125L54.875 74.875C54.875 73.84 55.715 73 56.75 73 57.785 73 58.625 73.84 58.625 74.875L58.625 86.125C58.625 87.16 57.785 88 56.75 88Z" fill="#5780C9"/><path d="M62.375 59.875C59.2738 59.875 56.75 57.3512 56.75 54.25 56.75 51.805 58.3175 49.72 60.5 48.9475L60.5 44.875C60.5 43.84 61.34 43 62.375 43 63.41 43 64.25 43.84 64.25 44.875L64.25 50.5C64.25 51.535 63.41 52.375 62.375 52.375 61.34 52.375 60.5 53.2188 60.5 54.25 60.5 55.2812 61.34 56.125 62.375 56.125 63.41 56.125 64.25 55.2812 64.25 54.25 64.25 53.215 65.09 52.375 66.125 52.375 67.16 52.375 68 53.215 68 54.25 68 57.3512 65.4762 59.875 62.375 59.875Z" fill="#5780C9"/><path d="M47.375 69.25C46.8538 69.25 46.3363 69.0325 45.965 68.6087 45.2825 67.8288 45.3613 66.6475 46.1413 65.965L52.5687 60.34C53.345 59.6575 54.5263 59.7325 55.2162 60.5163 55.8988 61.2962 55.82 62.4775 55.04 63.16L48.6125 68.785C48.2525 69.0963 47.8138 69.25 47.375 69.25Z" fill="#5780C9"/><path d="M77.375 69.25C76.9362 69.25 76.4975 69.0963 76.1413 68.785L69.7137 63.16C68.9337 62.4775 68.855 61.2962 69.5338 60.5163 70.2162 59.7325 71.4012 59.6575 72.1812 60.34L78.6087 65.965C79.3887 66.6475 79.4675 67.8288 78.785 68.6087 78.4137 69.0325 77.8962 69.25 77.375 69.25Z" fill="#5780C9"/></g></g></g><g clip-path="url(#clip4)"><g clip-path="url(#clip5)"><g clip-path="url(#clip6)"><path d="M490.804 606.701 496.269 606.701C500.691 606.701 504.288 603.103 504.288 598.681 504.288 594.259 500.691 590.662 496.269 590.662L490.804 590.662C486.382 590.662 482.785 594.259 482.785 598.681 482.785 603.103 486.382 606.701 490.804 606.701ZM490.804 595.232 496.269 595.232C498.171 595.232 499.718 596.779 499.718 598.681 499.718 600.583 498.171 602.13 496.269 602.13L490.804 602.13C488.902 602.13 487.355 600.583 487.355 598.681 487.355 596.779 488.902 595.232 490.804 595.232Z" fill="#5780C9"/><path d="M457.553 563.217 459.706 563.217C460.968 563.217 461.991 562.194 461.991 560.932 461.991 559.67 460.968 558.646 459.706 558.646L457.553 558.646C456.291 558.646 455.268 559.67 455.268 560.932 455.268 562.194 456.291 563.217 457.553 563.217Z" fill="#5780C9"/><path d="M450.507 567.117 448.354 567.117C447.092 567.117 446.069 568.14 446.069 569.402 446.069 570.664 447.092 571.687 448.354 571.687L450.507 571.687C451.77 571.687 452.793 570.664 452.793 569.402 452.793 568.14 451.77 567.117 450.507 567.117Z" fill="#5780C9"/><path d="M455.4 591.986 457.552 591.986C458.814 591.986 459.838 590.963 459.838 589.701 459.838 588.439 458.814 587.416 457.552 587.416L455.4 587.416C454.138 587.416 453.114 588.439 453.114 589.701 453.114 590.963 454.138 591.986 455.4 591.986Z" fill="#5780C9"/><path d="M512.295 547.394C516.54 550.809 521.883 552.69 527.341 552.69 540.592 552.69 551.373 541.909 551.373 528.658 551.373 515.407 540.592 504.626 527.341 504.626 516.533 504.626 507.001 511.904 504.159 522.324 503.827 523.542 504.545 524.798 505.763 525.13 506.98 525.462 508.237 524.744 508.569 523.526 510.869 515.089 518.589 509.196 527.341 509.196 538.072 509.196 546.802 517.926 546.802 528.658 546.802 539.389 538.072 548.119 527.341 548.119 518.243 548.119 510.451 541.936 508.392 533.084 508.106 531.855 506.877 531.09 505.649 531.376 504.419 531.662 503.655 532.89 503.941 534.119 505.15 539.318 508.117 544.032 512.295 547.394Z" fill="#5780C9"/><path d="M527.341 536.049C524.735 536.049 522.534 534.564 522.534 532.806 522.534 531.544 521.511 530.521 520.249 530.521 518.987 530.521 517.964 531.544 517.964 532.806 517.964 536.457 520.986 539.531 525.056 540.384L525.056 541.701C525.056 542.963 526.079 543.986 527.341 543.986 528.603 543.986 529.626 542.963 529.626 541.701L529.626 540.384C533.696 539.531 536.719 536.457 536.719 532.805 536.719 527.256 531.566 525.908 528.157 525.016 525.174 524.235 523.927 523.759 523.927 522.835 523.927 521.814 525.33 520.678 527.341 520.678 529.353 520.678 530.755 521.814 530.755 522.835 530.755 524.097 531.778 525.12 533.04 525.12 534.302 525.12 535.325 524.097 535.325 522.835 535.325 519.794 532.918 517.22 529.626 516.39L529.626 515.026C529.626 513.764 528.603 512.74 527.341 512.74 526.079 512.74 525.056 513.764 525.056 515.026L525.056 516.39C521.764 517.22 519.357 519.794 519.357 522.835 519.357 527.437 523.774 528.593 527 529.437 530.863 530.448 532.148 531.077 532.148 532.805 532.148 534.564 529.947 536.049 527.341 536.049Z" fill="#5780C9"/><path d="M434.657 597.31C421.406 597.31 410.626 608.091 410.626 621.342 410.626 634.594 421.406 645.374 434.657 645.374 447.909 645.374 458.689 634.594 458.689 621.342 458.689 608.091 447.909 597.31 434.657 597.31ZM434.657 640.803C423.927 640.803 415.196 632.073 415.196 621.342 415.196 610.61 423.926 601.88 434.657 601.88 445.388 601.88 454.119 610.61 454.119 621.342 454.119 632.073 445.388 640.803 434.657 640.803Z" fill="#5780C9"/><path d="M541.763 566.565C538.754 563.557 533.86 563.557 530.852 566.565L525.142 572.275C524.887 568.043 524.037 563.921 522.602 559.961 524.148 560.194 525.731 560.316 527.341 560.316 544.797 560.316 558.999 546.114 558.999 528.658 558.999 511.201 544.797 497 527.341 497 509.885 497 495.684 511.201 495.684 528.658 495.684 530.267 495.805 531.849 496.038 533.395 491.234 531.654 486.19 530.772 481 530.772 480.658 530.772 427.573 530.772 427.573 530.772 427.572 530.772 427.572 530.772 427.572 530.772 424.956 530.772 422.496 531.791 420.646 533.641 418.796 535.491 417.776 537.952 417.776 540.568L417.776 560.258C415.076 559.332 411.96 559.944 409.808 562.095 406.8 565.103 406.8 569.998 409.808 573.005L411.017 574.214C411.909 575.106 413.356 575.106 414.248 574.214 415.141 573.321 415.141 571.875 414.248 570.982L413.04 569.774C411.814 568.548 411.814 566.553 413.04 565.327 414.266 564.101 416.261 564.101 417.487 565.327L424.077 571.918C424.505 572.346 425.086 572.587 425.693 572.587 426.299 572.587 426.88 572.346 427.308 571.918L433.899 565.327C435.124 564.102 437.12 564.101 438.345 565.327 439.571 566.553 439.571 568.548 438.345 569.774L427.916 580.204C426.69 581.43 424.695 581.43 423.469 580.204L421.798 578.532C420.905 577.64 419.458 577.64 418.566 578.532 417.673 579.425 417.673 580.872 418.566 581.764L420.237 583.436C421.742 584.94 423.717 585.691 425.693 585.691 427.668 585.691 429.644 584.94 431.148 583.436L436.858 577.725C437.113 581.958 437.96 586.08 439.395 590.039 437.849 589.806 436.267 589.684 434.658 589.684 417.201 589.684 403 603.886 403 621.342 403 638.799 417.201 653 434.658 653 452.114 653 466.315 638.799 466.315 621.342 466.315 619.732 466.194 618.15 465.96 616.603 470.766 618.344 475.81 619.227 481 619.227 481.341 619.227 508.648 619.228 508.648 619.228 509.91 619.228 510.933 618.205 510.933 616.943 510.933 615.681 509.91 614.658 508.648 614.658L500.616 614.657C503.006 613.47 505.301 612.058 507.478 610.428 508.285 609.824 509.066 609.187 509.829 608.529L531.241 608.529C532.503 608.529 533.527 607.506 533.527 606.244L533.527 585.903C533.527 585.842 533.522 585.781 533.517 585.721L536.308 582.93 539.654 586.276 539.654 609.432C539.654 610.828 539.11 612.14 538.123 613.127 537.136 614.115 535.824 614.658 534.428 614.658L519.324 614.658C518.062 614.658 517.039 615.681 517.039 616.943 517.039 618.205 518.062 619.228 519.324 619.228L534.428 619.228 534.428 619.228C537.045 619.228 539.505 618.209 541.355 616.359 543.205 614.509 544.224 612.048 544.224 609.432L544.224 589.746C545.022 590.02 545.868 590.164 546.737 590.164 548.798 590.164 550.735 589.362 552.192 587.904 555.2 584.897 555.2 580.002 552.192 576.994ZM527.341 501.57C542.277 501.57 554.428 513.722 554.428 528.658 554.428 543.594 542.277 555.745 527.341 555.745 512.405 555.745 500.254 543.594 500.254 528.658 500.254 513.722 512.405 501.57 527.341 501.57ZM442.877 563.826C448.006 547.053 463.443 535.342 481 535.342 481.122 535.342 481.243 535.346 481.365 535.347 481.561 536.193 481.664 537.067 481.664 537.948 481.664 540.22 480.779 542.356 479.172 543.963 477.567 545.568 475.432 546.452 473.16 546.452 471.505 546.452 469.949 547.096 468.779 548.267 467.609 549.437 466.965 550.993 466.965 552.648 466.965 556.063 469.744 558.841 473.16 558.841L486.654 558.841C488.246 558.841 489.744 559.461 490.87 560.584 491.996 561.713 492.617 563.211 492.617 564.803 492.617 568.091 489.942 570.765 486.654 570.765L464.916 570.765C463.076 570.765 461.346 571.482 460.042 572.786 458.743 574.089 458.028 575.818 458.028 577.654 458.028 581.45 461.118 584.539 464.916 584.539L467.177 584.539C468.761 584.539 470.25 585.155 471.369 586.275 472.489 587.394 473.106 588.883 473.106 590.467 473.106 593.737 470.446 596.396 467.177 596.396L454.127 596.396C451.37 594.24 448.249 592.53 444.872 591.376 442.531 586.22 441.344 580.711 441.344 575 441.344 574.401 441.36 573.796 441.387 573.197 443.868 570.714 444.491 566.758 442.877 563.826ZM428.473 543.756 428.473 564.289 425.692 567.07 422.346 563.724 422.346 540.568C422.346 539.172 422.89 537.86 423.877 536.873 424.864 535.885 426.176 535.342 427.572 535.342L461.383 535.343C458.969 536.542 456.652 537.97 454.455 539.621 453.671 540.21 452.913 540.831 452.171 541.471L430.759 541.471C429.497 541.471 428.473 542.494 428.473 543.756ZM439.213 560.484C437.252 559.629 435.007 559.627 433.044 560.479L433.044 546.041 447.597 546.041C443.927 550.283 441.054 555.201 439.213 560.484ZM434.657 648.429C419.721 648.429 407.57 636.278 407.57 621.342 407.57 606.406 419.721 594.254 434.657 594.254 449.593 594.254 461.745 606.406 461.745 621.342 461.745 636.278 449.593 648.429 434.657 648.429ZM497.372 538.865C500.536 548.129 507.883 555.473 517.149 558.632 519.142 563.101 520.36 568.065 520.605 572.958L504.906 572.958C500.868 572.958 497.583 576.243 497.583 580.281 497.583 584.319 500.868 587.605 504.906 587.605L518.604 587.605C513.184 603.821 498.188 614.656 481 614.656 475.344 614.656 469.743 613.437 464.628 611.139 463.345 607.381 461.374 603.941 458.866 600.966L467.177 600.966C472.966 600.966 477.676 596.257 477.676 590.467 477.676 587.662 476.584 585.026 474.601 583.043 472.618 581.06 469.982 579.968 467.177 579.968L464.916 579.968C463.638 579.968 462.599 578.93 462.599 577.653 462.599 577.035 462.841 576.452 463.277 576.014 463.715 575.577 464.297 575.336 464.916 575.336L486.655 575.336C492.463 575.336 497.187 570.611 497.187 564.803 497.187 561.992 496.093 559.348 494.102 557.352 492.11 555.365 489.465 554.27 486.655 554.27L473.161 554.27C472.265 554.27 471.535 553.542 471.535 552.648 471.535 552.214 471.705 551.805 472.011 551.499 472.319 551.191 472.727 551.022 473.161 551.022 476.654 551.022 479.936 549.663 482.405 547.195 484.875 544.725 486.235 541.441 486.235 537.948 486.235 537.181 486.174 536.417 486.066 535.663 489.949 536.155 493.78 537.242 497.372 538.865ZM518.187 583.035 504.906 583.035C503.388 583.035 502.153 581.8 502.153 580.281 502.153 578.763 503.388 577.528 504.906 577.528L519.937 577.528C518.789 578.909 518.163 580.631 518.163 582.449 518.163 582.646 518.173 582.841 518.187 583.035ZM528.956 603.959 514.401 603.959C518.071 599.718 520.943 594.799 522.783 589.518 523.746 589.94 524.795 590.164 525.878 590.164 526.955 590.164 527.997 589.943 528.956 589.526ZM548.961 584.673C548.367 585.267 547.577 585.594 546.737 585.594 545.898 585.594 545.108 585.267 544.514 584.673L537.924 578.083C537.478 577.637 536.893 577.413 536.308 577.413 535.723 577.413 535.138 577.636 534.692 578.083L528.102 584.673C526.876 585.899 524.881 585.899 523.655 584.673 523.062 584.079 522.734 583.289 522.734 582.45 522.734 581.61 523.062 580.82 523.655 580.226L534.085 569.797C535.311 568.571 537.305 568.571 538.532 569.797L548.961 580.226C550.186 581.452 550.186 583.447 548.961 584.673Z" fill="#5780C9"/><path d="M441.318 629.76 432.864 629.76C433.729 628.309 434.24 627.015 434.543 625.995L439.056 625.995C440.318 625.995 441.341 624.972 441.341 623.71 441.341 622.448 440.318 621.425 439.056 621.425L433.766 621.425C432.986 620.498 432.545 619.319 432.545 618.097 432.545 615.245 434.865 612.925 437.716 612.925 438.264 612.925 438.803 613.01 439.317 613.177 440.517 613.568 441.807 612.91 442.197 611.71 442.587 610.51 441.93 609.22 440.73 608.83 439.758 608.515 438.744 608.355 437.716 608.355 432.344 608.355 427.974 612.725 427.974 618.097 427.974 619.242 428.178 620.368 428.563 621.425L427.996 621.425C426.734 621.425 425.711 622.448 425.711 623.71 425.711 624.972 426.734 625.995 427.996 625.995L429.676 625.995C429.134 627.216 428.203 628.781 426.594 630.468 425.963 631.13 425.787 632.104 426.147 632.945 426.507 633.785 427.333 634.33 428.248 634.33L441.318 634.33C442.58 634.33 443.603 633.307 443.603 632.045 443.603 630.783 442.58 629.76 441.318 629.76Z" fill="#5780C9"/></g></g></g><text fill="#5780C9" font-family="Webdings,Webdings_MSFontService,sans-serif" font-weight="400" font-size="533" transform="translate(177.6 306)"></text><rect x="38" y="345" width="521" height="42" fill="#203864"/><text fill="#FFC000" font-family="Montserrat SemiBold,Montserrat SemiBold_MSFontService,sans-serif" font-weight="600" font-size="27" transform="translate(48.0974 375)">MEDIDO EN DÓLARES NOMINALES</text><rect x="38" y="402" width="608" height="42" fill="#203864"/><text fill="#FFC000" font-family="Montserrat SemiBold,Montserrat SemiBold_MSFontService,sans-serif" font-weight="600" font-size="27" transform="translate(48.0974 432)">LA CAÍDA DEL INTERCAMBIO COMERCIAL</text><rect x="38" y="460" width="238" height="42" fill="#203864"/><text fill="#FFC000" font-family="Montserrat SemiBold,Montserrat SemiBold_MSFontService,sans-serif" font-weight="600" font-size="27" transform="translate(48.0974 490)">FUE DEL </text><rect x="39" y="173" width="254" height="42" fill="#FFC000"/><text fill="#203864" font-family="Montserrat SemiBold,Montserrat SemiBold_MSFontService,sans-serif" font-weight="600" font-size="27" transform="translate(48.2751 203)">EN EL AÑO 2020</text><rect x="39" y="230" width="584" height="42" fill="#FFC000"/><text fill="#203864" font-family="Montserrat SemiBold,Montserrat SemiBold_MSFontService,sans-serif" font-weight="600" font-size="27" transform="translate(48.2751 260)">EL VOLUMEN DEL COMERCIO MUNDIAL</text><rect x="38" y="288" width="510" height="42" fill="#FFC000"/><text fill="#203864" font-family="Montserrat SemiBold,Montserrat SemiBold_MSFontService,sans-serif" font-weight="600" font-size="27" transform="translate(48.0974 318)">DE MERCANCÍAS SE REDUJO UN</text><rect x="509" y="288" width="100" height="42" fill="#C00000"/><text fill="#F2F2F2" font-family="Montserrat SemiBold,Montserrat SemiBold_MSFontService,sans-serif" font-weight="600" font-size="27" transform="translate(518.813 318)">-<tspan font-size="27" x="10.3333" y="0">5,3%</tspan></text><rect x="176" y="460" width="100" height="42" fill="#C00000"/><text fill="#F2F2F2" font-family="Montserrat SemiBold,Montserrat SemiBold_MSFontService,sans-serif" font-weight="600" font-size="27" transform="translate(185.431 490)">-<tspan font-size="27" x="10.3333" y="0">7,5%</tspan></text></g></svg>