<svg width="945" height="945" xmlns="http://www.w3.org/2000/svg" xmlns:xlink="http://www.w3.org/1999/xlink" overflow="hidden"><defs><clipPath id="clip0"><rect x="0" y="0" width="945" height="945"/></clipPath><clipPath id="clip1"><rect x="166" y="99" width="226" height="226"/></clipPath><clipPath id="clip2"><rect x="166" y="99" width="226" height="226"/></clipPath><clipPath id="clip3"><rect x="166" y="99" width="226" height="226"/></clipPath></defs><g clip-path="url(#clip0)"><rect x="0" y="0" width="945" height="945" fill="#F4B183"/><path d="M107.22 379.805 115.668 383.069 115.668 376.541ZM107.22 525.805 115.668 529.068 115.668 522.541ZM104.82 172.989 112.692 172.989 112.692 168.861C112.692 167.325 112.348 166.173 111.66 165.405 110.972 164.637 110.004 164.253 108.756 164.253 107.508 164.253 106.54 164.637 105.852 165.405 105.164 166.173 104.82 167.325 104.82 168.861ZM104.82 240.989 112.692 240.989 112.692 236.861C112.692 235.325 112.348 234.173 111.66 233.405 110.972 232.637 110.004 232.253 108.756 232.253 107.508 232.253 106.54 232.637 105.852 233.405 105.164 234.173 104.82 235.325 104.82 236.861ZM104.82 689.989 112.692 689.989 112.692 685.861C112.692 684.325 112.348 683.173 111.66 682.405 110.972 681.637 110.004 681.253 108.756 681.253 107.508 681.253 106.54 681.637 105.852 682.405 105.164 683.173 104.82 684.325 104.82 685.861ZM104.484 130.701C104.484 132.109 104.828 133.381 105.516 134.517 106.204 135.653 107.18 136.557 108.444 137.229 109.708 137.901 111.188 138.237 112.884 138.237 114.58 138.237 116.06 137.901 117.324 137.229 118.588 136.557 119.564 135.653 120.252 134.517 120.94 133.381 121.284 132.109 121.284 130.701 121.284 129.293 120.94 128.021 120.252 126.885 119.564 125.749 118.588 124.845 117.324 124.173 116.06 123.501 114.58 123.165 112.884 123.165 111.188 123.165 109.708 123.501 108.444 124.173 107.18 124.845 106.204 125.749 105.516 126.885 104.828 128.021 104.484 129.293 104.484 130.701ZM104.484 724.701C104.484 726.109 104.828 727.381 105.516 728.517 106.204 729.653 107.18 730.557 108.444 731.229 109.708 731.901 111.188 732.237 112.884 732.237 114.58 732.237 116.06 731.901 117.324 731.229 118.588 730.557 119.564 729.653 120.252 728.517 120.94 727.381 121.284 726.109 121.284 724.701 121.284 723.293 120.94 722.021 120.252 720.885 119.564 719.749 118.588 718.845 117.324 718.173 116.06 717.501 114.58 717.165 112.884 717.165 111.188 717.165 109.708 717.501 108.444 718.173 107.18 718.845 106.204 719.749 105.516 720.885 104.828 722.021 104.484 723.293 104.484 724.701ZM96.0837 184.317 96.0837 168.141C96.0837 165.037 96.5957 162.333 97.6197 160.029 98.6437 157.725 100.116 155.949 102.036 154.701 103.956 153.453 106.196 152.829 108.756 152.829 111.156 152.829 113.252 153.373 115.044 154.461 116.836 155.549 118.26 157.117 119.316 159.165L129.684 152.109 129.684 164.205 121.236 169.917 121.236 172.989 129.684 172.989 129.684 184.317ZM96.0837 217.317 96.0837 190.005 104.628 190.005 104.628 206.181 108.564 206.181 108.564 191.973 116.724 191.973 116.724 206.181 121.14 206.181 121.14 189.381 129.684 189.381 129.684 217.317ZM96.0837 252.317 96.0837 236.141C96.0837 233.037 96.5957 230.333 97.6197 228.029 98.6437 225.725 100.116 223.949 102.036 222.701 103.956 221.453 106.196 220.829 108.756 220.829 111.156 220.829 113.252 221.373 115.044 222.461 116.836 223.549 118.26 225.117 119.316 227.165L129.684 220.109 129.684 232.205 121.236 237.917 121.236 240.989 129.684 240.989 129.684 252.317ZM96.0837 290.605 96.0837 279.277 114.228 279.277C116.692 279.277 118.484 278.837 119.604 277.957 120.724 277.077 121.284 275.805 121.284 274.141 121.284 272.477 120.724 271.205 119.604 270.325 118.484 269.445 116.692 269.005 114.228 269.005L96.0837 269.005 96.0837 257.869 114.564 257.869C119.588 257.869 123.492 259.309 126.276 262.189 129.06 265.069 130.452 269.085 130.452 274.237 130.452 279.389 129.06 283.405 126.276 286.285 123.492 289.165 119.588 290.605 114.564 290.605ZM96.0837 323.861 96.0837 292.853 104.868 292.853 104.868 302.693 129.684 302.693 129.684 314.021 104.868 314.021 104.868 323.861ZM96.0837 385.277 96.0837 374.141 129.684 359.453 129.684 371.165 123.828 373.421 123.828 386.189 129.684 388.445 129.684 399.965ZM96.0837 427.317 96.0837 400.005 104.628 400.005 104.628 415.989 110.388 415.989 110.388 401.973 118.932 401.973 118.932 415.989 129.684 415.989 129.684 427.317ZM96.0837 464.605 96.0837 453.277 114.228 453.277C116.692 453.277 118.484 452.837 119.604 451.957 120.724 451.077 121.284 449.805 121.284 448.141 121.284 446.477 120.724 445.205 119.604 444.325 118.484 443.445 116.692 443.005 114.228 443.005L96.0837 443.005 96.0837 431.869 114.564 431.869C119.588 431.869 123.492 433.309 126.276 436.189 129.06 439.069 130.452 443.085 130.452 448.237 130.452 453.389 129.06 457.405 126.276 460.285 123.492 463.165 119.588 464.605 114.564 464.605ZM96.0837 503.317 96.0837 494.005 111.348 481.237 96.0837 481.237 96.0837 470.197 129.684 470.197 129.684 479.509 114.42 492.277 129.684 492.277 129.684 503.317ZM96.0837 531.277 96.0837 520.141 129.684 505.453 129.684 517.165 123.828 519.421 123.828 532.188 129.684 534.445 129.684 545.965ZM96.0837 587.317 96.0837 578.005 113.988 567.061 96.0837 556.405 96.0837 547.093 129.684 546.997 129.684 557.317 114.372 557.412 126.66 564.708 126.66 569.701 114.9 576.997 129.684 576.997 129.684 587.317ZM96.0837 666.317 96.0837 639.005 104.628 639.005 104.628 655.181 108.564 655.181 108.564 640.973 116.724 640.973 116.724 655.181 121.14 655.181 121.14 638.381 129.684 638.381 129.684 666.317ZM96.0837 701.317 96.0837 685.141C96.0837 682.036 96.5957 679.333 97.6197 677.029 98.6437 674.725 100.116 672.949 102.036 671.701 103.956 670.453 106.196 669.828 108.756 669.828 111.156 669.828 113.252 670.373 115.044 671.461 116.836 672.549 118.26 674.117 119.316 676.165L129.684 669.109 129.684 681.205 121.236 686.917 121.236 689.989 129.684 689.989 129.684 701.317ZM96.0837 775.861 96.0837 744.853 104.868 744.853 104.868 754.693 129.684 754.693 129.684 766.021 104.868 766.021 104.868 775.861ZM96.0837 841.317 96.0837 814.005 104.628 814.005 104.628 830.181 108.564 830.181 108.564 815.973 116.724 815.973 116.724 830.181 121.14 830.181 121.14 813.381 129.684 813.381 129.684 841.317ZM95.3157 94.2526C95.3157 91.9485 95.5637 89.6845 96.0597 87.4606 96.5557 85.2365 97.2837 83.2766 98.2437 81.5806L106.452 84.9885C104.788 88.2845 103.956 91.4045 103.956 94.3486 103.956 97.2606 104.66 98.7166 106.068 98.7166 106.74 98.7166 107.244 98.2845 107.58 97.4205 107.916 96.5566 108.276 95.1325 108.66 93.1486 109.14 90.5886 109.692 88.4285 110.316 86.6686 110.94 84.9086 111.956 83.3806 113.364 82.0845 114.772 80.7886 116.692 80.1406 119.124 80.1406 121.236 80.1406 123.148 80.7326 124.86 81.9166 126.572 83.1005 127.932 84.8685 128.94 87.2206 129.948 89.5726 130.452 92.4285 130.452 95.7886 130.452 98.5726 130.14 101.285 129.516 103.925 128.892 106.565 128.052 108.733 126.996 110.429L118.74 106.781C119.668 105.181 120.412 103.389 120.972 101.405 121.532 99.4206 121.812 97.5165 121.812 95.6926 121.812 94.1245 121.66 93.0046 121.356 92.3326 121.052 91.6605 120.596 91.3245 119.988 91.3245 119.284 91.3245 118.756 91.7646 118.404 92.6445 118.052 93.5245 117.668 94.9725 117.252 96.9885 116.708 99.5806 116.124 101.741 115.5 103.469 114.876 105.197 113.852 106.701 112.428 107.981 111.004 109.261 109.076 109.901 106.644 109.901 104.532 109.901 102.612 109.309 100.884 108.125 99.1557 106.941 97.7957 105.173 96.8037 102.821 95.8117 100.469 95.3157 97.6125 95.3157 94.2526ZM95.3157 130.701C95.3157 127.085 96.0677 123.837 97.5717 120.957 99.0757 118.077 101.164 115.821 103.836 114.189 106.508 112.557 109.524 111.741 112.884 111.741 116.244 111.741 119.26 112.557 121.932 114.189 124.604 115.821 126.692 118.077 128.196 120.957 129.7 123.837 130.452 127.085 130.452 130.701 130.452 134.317 129.7 137.565 128.196 140.445 126.692 143.325 124.604 145.581 121.932 147.213 119.26 148.845 116.244 149.661 112.884 149.661 109.524 149.661 106.508 148.845 103.836 147.213 101.164 145.581 99.0757 143.325 97.5717 140.445 96.0677 137.565 95.3157 134.317 95.3157 130.701ZM95.3157 339.941C95.3157 336.677 95.8917 333.765 97.0437 331.205 98.1957 328.645 99.8597 326.533 102.036 324.869L108.42 332.021C105.796 334.101 104.484 336.549 104.484 339.365 104.484 341.733 105.244 343.637 106.764 345.077 108.284 346.517 110.324 347.237 112.884 347.237 115.444 347.237 117.484 346.517 119.004 345.077 120.524 343.637 121.284 341.733 121.284 339.365 121.284 336.549 119.972 334.101 117.348 332.021L123.732 324.869C125.908 326.533 127.572 328.645 128.724 331.205 129.876 333.765 130.452 336.677 130.452 339.941 130.452 343.493 129.708 346.693 128.22 349.541 126.732 352.389 124.652 354.621 121.98 356.237 119.308 357.853 116.276 358.661 112.884 358.661 109.492 358.661 106.46 357.853 103.788 356.237 101.116 354.621 99.0357 352.389 97.5477 349.541 96.0597 346.693 95.3157 343.493 95.3157 339.941ZM95.3157 619.253C95.3157 616.949 95.5637 614.685 96.0597 612.461 96.5557 610.237 97.2837 608.277 98.2437 606.581L106.452 609.989C104.788 613.285 103.956 616.405 103.956 619.349 103.956 622.26 104.66 623.717 106.068 623.717 106.74 623.717 107.244 623.285 107.58 622.421 107.916 621.557 108.276 620.133 108.66 618.149 109.14 615.589 109.692 613.429 110.316 611.669 110.94 609.909 111.956 608.381 113.364 607.085 114.772 605.789 116.692 605.141 119.124 605.141 121.236 605.141 123.148 605.733 124.86 606.917 126.572 608.101 127.932 609.869 128.94 612.221 129.948 614.573 130.452 617.429 130.452 620.789 130.452 623.573 130.14 626.285 129.516 628.925 128.892 631.565 128.052 633.733 126.996 635.429L118.74 631.781C119.668 630.181 120.412 628.389 120.972 626.405 121.532 624.421 121.812 622.517 121.812 620.693 121.812 619.125 121.66 618.005 121.356 617.333 121.052 616.661 120.596 616.325 119.988 616.325 119.284 616.325 118.756 616.765 118.404 617.645 118.052 618.525 117.668 619.973 117.252 621.989 116.708 624.581 116.124 626.741 115.5 628.469 114.876 630.197 113.852 631.701 112.428 632.981 111.004 634.26 109.076 634.901 106.644 634.901 104.532 634.901 102.612 634.309 100.884 633.125 99.1557 631.941 97.7957 630.173 96.8037 627.821 95.8117 625.469 95.3157 622.613 95.3157 619.253ZM95.3157 724.701C95.3157 721.085 96.0677 717.837 97.5717 714.957 99.0757 712.077 101.164 709.821 103.836 708.189 106.508 706.557 109.524 705.741 112.884 705.741 116.244 705.741 119.26 706.557 121.932 708.189 124.604 709.821 126.692 712.077 128.196 714.957 129.7 717.837 130.452 721.085 130.452 724.701 130.452 728.317 129.7 731.565 128.196 734.445 126.692 737.325 124.604 739.581 121.932 741.213 119.26 742.845 116.244 743.661 112.884 743.661 109.524 743.661 106.508 742.845 103.836 741.213 101.164 739.581 99.0757 737.325 97.5717 734.445 96.0677 731.565 95.3157 728.317 95.3157 724.701ZM95.3157 791.941C95.3157 788.677 95.8917 785.765 97.0437 783.205 98.1957 780.645 99.8597 778.533 102.036 776.869L108.42 784.021C105.796 786.101 104.484 788.549 104.484 791.365 104.484 793.733 105.244 795.637 106.764 797.077 108.284 798.517 110.324 799.237 112.884 799.237 115.444 799.237 117.484 798.517 119.004 797.077 120.524 795.637 121.284 793.733 121.284 791.365 121.284 788.549 119.972 786.101 117.348 784.021L123.732 776.869C125.908 778.533 127.572 780.645 128.724 783.205 129.876 785.765 130.452 788.677 130.452 791.941 130.452 795.493 129.708 798.693 128.22 801.541 126.732 804.389 124.652 806.621 121.98 808.237 119.308 809.853 116.276 810.661 112.884 810.661 109.492 810.661 106.46 809.853 103.788 808.237 101.116 806.621 99.0357 804.389 97.5477 801.541 96.0597 798.693 95.3157 795.493 95.3157 791.941ZM95.3157 859.253C95.3157 856.949 95.5637 854.685 96.0597 852.461 96.5557 850.237 97.2837 848.277 98.2437 846.581L106.452 849.989C104.788 853.285 103.956 856.405 103.956 859.349 103.956 862.261 104.66 863.717 106.068 863.717 106.74 863.717 107.244 863.285 107.58 862.421 107.916 861.557 108.276 860.133 108.66 858.149 109.14 855.589 109.692 853.429 110.316 851.669 110.94 849.909 111.956 848.381 113.364 847.085 114.772 845.789 116.692 845.141 119.124 845.141 121.236 845.141 123.148 845.733 124.86 846.917 126.572 848.101 127.932 849.869 128.94 852.221 129.948 854.573 130.452 857.429 130.452 860.789 130.452 863.573 130.14 866.285 129.516 868.925 128.892 871.565 128.052 873.733 126.996 875.429L118.74 871.781C119.668 870.181 120.412 868.389 120.972 866.405 121.532 864.421 121.812 862.517 121.812 860.693 121.812 859.125 121.66 858.005 121.356 857.333 121.052 856.661 120.596 856.325 119.988 856.325 119.284 856.325 118.756 856.765 118.404 857.645 118.052 858.525 117.668 859.973 117.252 861.989 116.708 864.581 116.124 866.741 115.5 868.469 114.876 870.197 113.852 871.701 112.428 872.981 111.004 874.261 109.076 874.901 106.644 874.901 104.532 874.901 102.612 874.309 100.884 873.125 99.1557 871.941 97.7957 870.173 96.8037 867.821 95.8117 865.469 95.3157 862.613 95.3157 859.253Z" stroke="#44546A" stroke-width="3" stroke-linejoin="round" stroke-miterlimit="10" fill="none" fill-rule="evenodd"/><text fill="#000000" fill-opacity="0" font-family="Arial,Arial_MSFontService,sans-serif" font-size="795.288" x="95.3157" y="776.018">SECTORES MANUFACTUREROS</text><rect x="167" y="350" width="598" height="345" fill="#44546A"/><text fill="#F8CBAD" font-family="Montserrat,Montserrat_MSFontService,sans-serif" font-weight="700" font-size="69" transform="translate(176.273 420)">Utilización de la <tspan font-size="69" x="0" y="83">Capacidad </tspan><tspan font-size="69" x="0" y="166">Instalada en la </tspan><tspan font-size="69" x="0" y="250">industria</tspan></text><path d="M848.5 823.5 874 823.5 899.5 853.5 874 883.5 848.5 883.5 874 853.5Z" stroke="#333F50" stroke-width="3.33392" stroke-miterlimit="8" fill="none" fill-rule="evenodd"/><path d="M805.5 823.5 831 823.5 856.5 853.5 831 883.5 805.5 883.5 831 853.5Z" stroke="#333F50" stroke-width="3.33392" stroke-miterlimit="8" fill="none" fill-rule="evenodd"/><g clip-path="url(#clip1)"><g clip-path="url(#clip2)"><g clip-path="url(#clip3)"><path d="M126.562 214.453 126.562 203.906C126.562 201.965 124.988 200.391 123.047 200.391L116.016 200.391 116.016 180.361 121.415 172.263C128.207 172.196 133.659 166.637 133.593 159.845 133.576 158.06 133.17 156.3 132.404 154.688L133.594 154.688C135.535 154.688 137.109 153.113 137.109 151.172L137.109 120.988 146.627 111.47 141.655 106.498 132.137 116.016 92.8626 116.016 83.3454 106.498 78.3734 111.47 87.8906 120.988 87.8906 147.656 73.8281 147.656 73.8281 119.531C73.8281 117.59 72.254 116.016 70.3125 116.016L28.125 116.016C26.1834 116.016 24.6094 117.59 24.6094 119.531L24.6094 147.656 7.03125 147.656 7.03125 154.688 121.289 154.688C124.201 154.688 126.562 157.049 126.562 159.961 126.562 162.873 124.201 165.234 121.289 165.234L7.03125 165.234 7.03125 172.266 8.66549 172.266 14.0625 180.361 14.0625 200.391 7.03125 200.391 7.03125 207.422 119.531 207.422 119.531 210.938 7.03125 210.938 7.03125 217.969 123.047 217.969C124.988 217.969 126.562 216.395 126.562 214.453ZM45.7031 123.047 52.7344 123.047 52.7344 127.905 50.7911 126.934C49.8015 126.439 48.636 126.439 47.6464 126.934L45.7031 127.905ZM31.6406 147.656 31.6406 123.047 38.6719 123.047 38.6719 133.594C38.6719 135.535 40.2459 137.109 42.1875 137.109 42.7333 137.109 43.2717 136.982 43.7599 136.738L49.2188 134.009 54.6776 136.738C56.4144 137.606 58.5259 136.903 59.3943 135.166 59.6386 134.678 59.7656 134.14 59.7656 133.594L59.7656 123.047 66.7969 123.047 66.7969 147.656ZM94.9219 147.656 94.9219 123.047 130.078 123.047 130.078 147.656ZM103.834 175.781 101.491 172.266 112.962 172.266 110.619 175.781ZM82.4937 175.781 75.7094 175.781 73.3658 172.266 84.8373 172.266ZM54.3687 175.781 47.5844 175.781 45.2408 172.266 56.7123 172.266ZM31.6406 180.361 36.9141 172.451 42.1875 180.361 42.1875 200.391 31.6406 200.391ZM49.2188 182.812 52.7344 182.812 52.7344 200.391 49.2188 200.391ZM59.7656 180.361 65.0391 172.451 70.3125 180.361 70.3125 200.391 59.7656 200.391ZM77.3438 182.812 80.8594 182.812 80.8594 200.391 77.3438 200.391ZM87.8906 180.361 93.1641 172.451 98.4375 180.361 98.4375 200.391 87.8906 200.391ZM105.469 182.812 108.984 182.812 108.984 200.391 105.469 200.391ZM28.5873 172.266 26.2436 175.781 19.4595 175.781 17.1158 172.266ZM21.0938 182.812 24.6094 182.812 24.6094 200.391 21.0938 200.391Z" fill="#333F50" transform="matrix(1 0 0 1.00444 167 99)"/><path d="M91.4062 59.7656 91.4062 77.3438C91.4062 79.2853 92.9804 80.8594 94.9219 80.8594L101.953 80.8594 101.953 82.9191 99.4671 85.4046C98.808 86.0643 98.4375 86.9581 98.4375 87.8906L98.4375 105.469C98.4375 107.41 100.012 108.984 101.953 108.984L123.047 108.984C124.988 108.984 126.562 107.41 126.562 105.469L126.562 87.8906C126.562 86.9581 126.192 86.0643 125.533 85.4046L123.047 82.9191 123.047 80.8594 130.078 80.8594C132.02 80.8594 133.594 79.2853 133.594 77.3438L133.594 59.7656C133.594 58.5901 133.006 57.4923 132.028 56.8406L122.931 50.7757C123.222 48.8338 122.963 46.8488 122.185 45.0461L142.149 27.9338C143.464 28.1888 144.817 28.1888 146.133 27.9338L166.097 45.0461C164.891 47.8393 164.952 51.0179 166.265 53.7631L162.748 57.2796C162.089 57.9393 161.719 58.8331 161.719 59.7656L161.719 182.812 151.172 182.812C149.706 182.812 148.395 183.721 147.88 185.094L137.333 213.219C136.651 215.037 137.573 217.063 139.391 217.745 139.785 217.893 140.204 217.969 140.625 217.969L210.938 217.969C212.879 217.969 214.453 216.395 214.453 214.453L214.453 108.984C214.452 108.719 214.421 108.454 214.361 108.194L214.363 108.194 203.816 62.4907C203.602 61.5608 203.018 60.7579 202.199 60.2666L186.224 50.6817C186.717 47.2012 185.437 43.7048 182.812 41.366L182.812 35.1562C182.812 34.1299 182.364 33.1548 181.585 32.4869L156.975 11.3932C156.338 10.847 155.527 10.5468 154.688 10.5469L151.993 10.5469C148.121 6.20996 141.465 5.8337 137.128 9.70642 136.833 9.97053 136.552 10.2511 136.288 10.5469L133.594 10.5469C132.754 10.5468 131.943 10.847 131.306 11.3932L106.697 32.4869C105.917 33.1548 105.469 34.1299 105.469 35.1562L105.469 41.366C102.822 43.7294 101.544 47.2667 102.069 50.7757L92.9716 56.8406C91.9938 57.4923 91.4062 58.5901 91.4062 59.7656ZM119.531 101.953 105.469 101.953 105.469 89.3465 106.925 87.8906 118.075 87.8906 119.531 89.3465ZM116.016 49.2188C116.016 51.1603 114.442 52.7344 112.5 52.7344 110.558 52.7344 108.984 51.1603 108.984 49.2188 108.984 47.2772 110.558 45.7031 112.5 45.7031 114.441 45.7053 116.013 47.2781 116.016 49.2188ZM116.016 80.8594 108.984 80.8594 108.984 73.8281 116.016 73.8281ZM126.562 73.8281 123.047 73.8281 123.047 70.3125C123.047 68.371 121.473 66.7969 119.531 66.7969L116.016 66.7969 116.016 59.1609C117.343 58.6898 118.563 57.9577 119.603 57.0076L126.562 61.6469ZM179.297 49.2188C179.297 51.1603 177.723 52.7344 175.781 52.7344 173.84 52.7344 172.266 51.1603 172.266 49.2188 172.266 47.2772 173.84 45.7031 175.781 45.7031 177.722 45.7053 179.295 47.2781 179.297 49.2188ZM168.75 112.5 207.422 112.5 207.422 182.812 168.75 182.812ZM207.422 210.938 145.698 210.938 153.608 189.844 207.422 189.844ZM206.518 105.469 168.75 105.469 168.75 61.2215 171.237 58.7351C175.147 60.6054 179.803 59.8882 182.968 56.9276L197.301 65.5273ZM175.781 36.7733 175.781 38.6719C174.073 38.6705 172.39 39.0868 170.879 39.8845L152.438 24.0774C153.671 22.5124 154.432 20.6286 154.633 18.6465ZM144.141 14.0625C146.082 14.0625 147.656 15.6365 147.656 17.5781 147.656 19.5198 146.082 21.0938 144.141 21.0938 142.199 21.0938 140.625 19.5198 140.625 17.5781 140.627 15.6374 142.2 14.0647 144.141 14.0625ZM112.5 36.7733 133.648 18.6465C133.849 20.6286 134.611 22.5124 135.844 24.0774L117.402 39.8846C115.891 39.0868 114.209 38.6705 112.5 38.6719ZM98.4375 61.6469 105.397 57.0076C106.437 57.9577 107.657 58.6898 108.984 59.1609L108.984 66.7969 105.469 66.7969C103.527 66.7969 101.953 68.371 101.953 70.3125L101.953 73.8281 98.4375 73.8281Z" fill="#333F50" transform="matrix(1 0 0 1.00444 167 99)"/><path d="M182.812 168.75 189.844 168.75 189.844 175.781 182.812 175.781Z" fill="#333F50" transform="matrix(1 0 0 1.00444 167 99)"/><path d="M193.359 168.75 200.391 168.75 200.391 175.781 193.359 175.781Z" fill="#333F50" transform="matrix(1 0 0 1.00444 167 99)"/></g></g></g></g></svg>