<svg width="945" height="945" xmlns="http://www.w3.org/2000/svg" xmlns:xlink="http://www.w3.org/1999/xlink" overflow="hidden"><defs><clipPath id="clip0"><rect x="0" y="0" width="945" height="945"/></clipPath><clipPath id="clip1"><rect x="153" y="77" width="276" height="276"/></clipPath><clipPath id="clip2"><rect x="153" y="77" width="276" height="276"/></clipPath><clipPath id="clip3"><rect x="153" y="77" width="276" height="276"/></clipPath></defs><g clip-path="url(#clip0)"><rect x="0" y="0" width="945" height="945" fill="#FFFFFF"/><path d="M102.876 85.614 110.796 88.674 110.796 82.554ZM102.876 302.614 110.796 305.674 110.796 299.554ZM102.876 706.614 110.796 709.674 110.796 703.554ZM100.716 661.474 115.656 661.474 115.656 657.019C115.656 654.739 115.003 652.916 113.698 651.551 112.393 650.186 110.556 649.504 108.186 649.504 105.816 649.504 103.978 650.186 102.673 651.551 101.368 652.916 100.716 654.739 100.716 657.019ZM100.626 199.474 108.006 199.474 108.006 195.604C108.006 194.164 107.683 193.084 107.038 192.364 106.393 191.644 105.486 191.284 104.316 191.284 103.146 191.284 102.238 191.644 101.593 192.364 100.948 193.084 100.626 194.164 100.626 195.604ZM100.626 546.474 108.006 546.474 108.006 542.604C108.006 541.164 107.683 540.084 107.038 539.364 106.393 538.644 105.486 538.284 104.316 538.284 103.146 538.284 102.238 538.644 101.593 539.364 100.948 540.084 100.626 541.164 100.626 542.604ZM100.626 579.474 108.006 579.474 108.006 575.604C108.006 574.164 107.683 573.084 107.038 572.364 106.393 571.644 105.486 571.284 104.316 571.284 103.146 571.284 102.238 571.644 101.593 572.364 100.948 573.084 100.626 574.164 100.626 575.604ZM100.311 232.579C100.311 233.899 100.633 235.091 101.278 236.156 101.923 237.221 102.838 238.069 104.023 238.699 105.208 239.329 106.596 239.644 108.186 239.644 109.776 239.644 111.163 239.329 112.348 238.699 113.533 238.069 114.448 237.221 115.093 236.156 115.738 235.091 116.061 233.899 116.061 232.579 116.061 231.259 115.738 230.066 115.093 229.001 114.448 227.936 113.533 227.089 112.348 226.459 111.163 225.829 109.776 225.514 108.186 225.514 106.596 225.514 105.208 225.829 104.023 226.459 102.838 227.089 101.923 227.936 101.278 229.001 100.633 230.066 100.311 231.259 100.311 232.579ZM100.311 426.579C100.311 427.899 100.633 429.091 101.278 430.156 101.923 431.221 102.838 432.069 104.023 432.699 105.208 433.329 106.596 433.644 108.186 433.644 109.776 433.644 111.163 433.329 112.348 432.699 113.533 432.069 114.448 431.221 115.093 430.156 115.738 429.091 116.061 427.899 116.061 426.579 116.061 425.259 115.738 424.066 115.093 423.001 114.448 421.936 113.533 421.089 112.348 420.459 111.163 419.829 109.776 419.514 108.186 419.514 106.596 419.514 105.208 419.829 104.023 420.459 102.838 421.089 101.923 421.936 101.278 423.001 100.633 424.066 100.311 425.259 100.311 426.579ZM92.436 90.744 92.436 80.304 123.936 66.5339 123.936 77.514 118.446 79.629 118.446 91.5989 123.936 93.7139 123.936 104.514ZM92.436 133.479 92.436 104.409 100.671 104.409 100.671 113.634 123.936 113.634 123.936 124.254 100.671 124.254 100.671 133.479ZM92.436 177.094 92.436 166.474 123.936 166.474 123.936 177.094ZM92.436 210.094 92.436 194.929C92.436 192.019 92.916 189.484 93.876 187.324 94.836 185.164 96.216 183.499 98.016 182.329 99.816 181.159 101.916 180.574 104.316 180.574 106.566 180.574 108.531 181.084 110.211 182.104 111.891 183.124 113.226 184.594 114.216 186.514L123.936 179.899 123.936 191.239 116.016 196.594 116.016 199.474 123.936 199.474 123.936 210.094ZM92.436 284.874 92.436 273.669 103.326 267.234 92.436 260.754 92.436 250.494 112.506 262.374 123.936 262.374 123.936 272.994 112.371 272.994ZM92.436 307.744 92.436 297.304 123.936 283.534 123.936 294.514 118.446 296.629 118.446 308.599 123.936 310.714 123.936 321.514ZM92.436 361.094 92.436 352.364 109.221 342.104 92.436 332.114 92.436 323.384 123.936 323.294 123.936 332.969 109.581 333.059 121.101 339.899 121.101 344.579 110.076 351.419 123.936 351.419 123.936 361.094ZM92.436 459.094 92.436 448.474 123.936 448.474 123.936 459.094ZM92.436 523.094 92.436 497.489 100.446 497.489 100.446 512.654 104.136 512.654 104.136 499.334 111.786 499.334 111.786 512.654 115.926 512.654 115.926 496.904 123.936 496.904 123.936 523.094ZM92.436 557.094 92.436 541.929C92.436 539.019 92.916 536.484 93.876 534.324 94.836 532.164 96.216 530.499 98.016 529.329 99.816 528.159 101.916 527.574 104.316 527.574 106.566 527.574 108.531 528.084 110.211 529.104 111.891 530.124 113.226 531.594 114.216 533.514L123.936 526.899 123.936 538.239 116.016 543.594 116.016 546.474 123.936 546.474 123.936 557.094ZM92.436 590.094 92.436 574.929C92.436 572.019 92.916 569.484 93.876 567.324 94.836 565.164 96.216 563.499 98.016 562.329 99.816 561.159 101.916 560.574 104.316 560.574 106.716 560.574 108.816 561.159 110.616 562.329 112.416 563.499 113.796 565.164 114.756 567.324 115.716 569.484 116.196 572.019 116.196 574.929L116.196 579.474 123.936 579.474 123.936 590.094ZM92.436 634.094 92.436 608.489 100.446 608.489 100.446 623.654 104.136 623.654 104.136 610.334 111.786 610.334 111.786 623.654 115.926 623.654 115.926 607.904 123.936 607.904 123.936 634.094ZM92.436 672.094 92.436 656.569C92.436 653.059 93.0735 649.961 94.3485 647.276 95.6235 644.591 97.446 642.506 99.816 641.021 102.186 639.536 104.976 638.794 108.186 638.794 111.396 638.794 114.186 639.536 116.556 641.021 118.926 642.506 120.748 644.591 122.023 647.276 123.298 649.961 123.936 653.059 123.936 656.569L123.936 672.094ZM92.436 711.744 92.436 701.304 123.936 687.534 123.936 698.514 118.446 700.629 118.446 712.599 123.936 714.714 123.936 725.514ZM92.436 765.094 92.436 756.364 109.221 746.104 92.436 736.114 92.436 727.384 123.936 727.294 123.936 736.969 109.581 737.059 121.101 743.899 121.101 748.579 110.076 755.419 123.936 755.419 123.936 765.094ZM92.436 796.094 92.436 770.489 100.446 770.489 100.446 785.654 104.136 785.654 104.136 772.334 111.786 772.334 111.786 785.654 115.926 785.654 115.926 769.904 123.936 769.904 123.936 796.094ZM92.436 827.479 92.436 798.409 100.671 798.409 100.671 807.634 123.936 807.634 123.936 818.254 100.671 818.254 100.671 827.479ZM92.436 871.094 92.436 860.474 123.936 860.474 123.936 871.094ZM91.716 51.9089C91.716 49.749 91.9485 47.6264 92.4135 45.5414 92.8785 43.4564 93.561 41.6189 94.461 40.0289L102.156 43.2239C100.596 46.3139 99.816 49.239 99.816 51.999 99.816 54.7289 100.476 56.0939 101.796 56.0939 102.426 56.0939 102.898 55.689 103.213 54.879 103.528 54.069 103.866 52.7339 104.226 50.874 104.676 48.4739 105.193 46.4489 105.778 44.799 106.363 43.1489 107.316 41.7164 108.636 40.5015 109.956 39.2864 111.756 38.679 114.036 38.679 116.016 38.679 117.808 39.2339 119.413 40.3439 121.018 41.4539 122.293 43.1115 123.238 45.3165 124.183 47.5215 124.656 50.199 124.656 53.3489 124.656 55.959 124.363 58.5015 123.778 60.9764 123.193 63.4515 122.406 65.4839 121.416 67.074L113.676 63.6539C114.546 62.1539 115.243 60.4739 115.768 58.614 116.293 56.7539 116.556 54.9689 116.556 53.259 116.556 51.7889 116.413 50.739 116.128 50.1089 115.843 49.4789 115.416 49.1639 114.846 49.1639 114.186 49.1639 113.691 49.5764 113.361 50.4014 113.031 51.2264 112.671 52.584 112.281 54.4739 111.771 56.9039 111.223 58.929 110.638 60.549 110.053 62.1689 109.093 63.5789 107.758 64.7789 106.423 65.9789 104.616 66.579 102.336 66.579 100.356 66.579 98.556 66.0239 96.936 64.9139 95.316 63.8039 94.041 62.1465 93.111 59.9415 92.181 57.7365 91.716 55.059 91.716 51.9089ZM91.716 147.909C91.716 145.749 91.9485 143.626 92.4135 141.541 92.8785 139.456 93.561 137.619 94.461 136.029L102.156 139.224C100.596 142.314 99.816 145.239 99.816 147.999 99.816 150.729 100.476 152.094 101.796 152.094 102.426 152.094 102.898 151.689 103.213 150.879 103.528 150.069 103.866 148.734 104.226 146.874 104.676 144.474 105.193 142.449 105.778 140.799 106.363 139.149 107.316 137.716 108.636 136.501 109.956 135.286 111.756 134.679 114.036 134.679 116.016 134.679 117.808 135.234 119.413 136.344 121.018 137.454 122.293 139.111 123.238 141.316 124.183 143.521 124.656 146.199 124.656 149.349 124.656 151.959 124.363 154.501 123.778 156.976 123.193 159.451 122.406 161.484 121.416 163.074L113.676 159.654C114.546 158.154 115.243 156.474 115.768 154.614 116.293 152.754 116.556 150.969 116.556 149.259 116.556 147.789 116.413 146.739 116.128 146.109 115.843 145.479 115.416 145.164 114.846 145.164 114.186 145.164 113.691 145.576 113.361 146.401 113.031 147.226 112.671 148.584 112.281 150.474 111.771 152.904 111.223 154.929 110.638 156.549 110.053 158.169 109.093 159.579 107.758 160.779 106.423 161.979 104.616 162.579 102.336 162.579 100.356 162.579 98.556 162.024 96.936 160.914 95.316 159.804 94.041 158.146 93.111 155.941 92.181 153.736 91.716 151.059 91.716 147.909ZM91.716 232.579C91.716 229.189 92.421 226.144 93.831 223.444 95.241 220.744 97.1985 218.629 99.7035 217.099 102.208 215.569 105.036 214.804 108.186 214.804 111.336 214.804 114.163 215.569 116.668 217.099 119.173 218.629 121.131 220.744 122.541 223.444 123.951 226.144 124.656 229.189 124.656 232.579 124.656 235.969 123.951 239.014 122.541 241.714 121.131 244.414 119.173 246.529 116.668 248.059 114.163 249.589 111.336 250.354 108.186 250.354 105.036 250.354 102.208 249.589 99.7035 248.059 97.1985 246.529 95.241 244.414 93.831 241.714 92.421 239.014 91.716 235.969 91.716 232.579ZM91.716 390.909C91.716 388.749 91.9485 386.626 92.4135 384.541 92.8785 382.456 93.561 380.619 94.461 379.029L102.156 382.224C100.596 385.314 99.816 388.239 99.816 390.999 99.816 393.729 100.476 395.094 101.796 395.094 102.426 395.094 102.898 394.689 103.213 393.879 103.528 393.069 103.866 391.734 104.226 389.874 104.676 387.474 105.193 385.449 105.778 383.799 106.363 382.149 107.316 380.716 108.636 379.501 109.956 378.286 111.756 377.679 114.036 377.679 116.016 377.679 117.808 378.234 119.413 379.344 121.018 380.454 122.293 382.111 123.238 384.316 124.183 386.521 124.656 389.199 124.656 392.349 124.656 394.959 124.363 397.501 123.778 399.976 123.193 402.451 122.406 404.484 121.416 406.074L113.676 402.654C114.546 401.154 115.243 399.474 115.768 397.614 116.293 395.754 116.556 393.969 116.556 392.259 116.556 390.789 116.413 389.739 116.128 389.109 115.843 388.479 115.416 388.164 114.846 388.164 114.186 388.164 113.691 388.576 113.361 389.401 113.031 390.226 112.671 391.584 112.281 393.474 111.771 395.904 111.223 397.929 110.638 399.549 110.053 401.169 109.093 402.579 107.758 403.779 106.423 404.979 104.616 405.579 102.336 405.579 100.356 405.579 98.556 405.024 96.936 403.914 95.316 402.804 94.041 401.146 93.111 398.941 92.181 396.736 91.716 394.059 91.716 390.909ZM91.716 426.579C91.716 423.189 92.421 420.144 93.831 417.444 95.241 414.744 97.1985 412.629 99.7035 411.099 102.208 409.569 105.036 408.804 108.186 408.804 111.336 408.804 114.163 409.569 116.668 411.099 119.173 412.629 121.131 414.744 122.541 417.444 123.951 420.144 124.656 423.189 124.656 426.579 124.656 429.969 123.951 433.014 122.541 435.714 121.131 438.414 119.173 440.529 116.668 442.059 114.163 443.589 111.336 444.354 108.186 444.354 105.036 444.354 102.208 443.589 99.7035 442.059 97.1985 440.529 95.241 438.414 93.831 435.714 92.421 433.014 91.716 429.969 91.716 426.579ZM91.716 475.804C91.716 472.744 92.256 470.014 93.336 467.614 94.416 465.214 95.976 463.234 98.016 461.674L104.001 468.379C101.541 470.329 100.311 472.624 100.311 475.264 100.311 477.484 101.023 479.269 102.448 480.619 103.873 481.969 105.786 482.644 108.186 482.644 110.586 482.644 112.498 481.969 113.923 480.619 115.348 479.269 116.061 477.484 116.061 475.264 116.061 472.624 114.831 470.329 112.371 468.379L118.356 461.674C120.396 463.234 121.956 465.214 123.036 467.614 124.116 470.014 124.656 472.744 124.656 475.804 124.656 479.134 123.958 482.134 122.563 484.804 121.168 487.474 119.218 489.566 116.713 491.081 114.208 492.596 111.366 493.354 108.186 493.354 105.006 493.354 102.163 492.596 99.6585 491.081 97.1535 489.566 95.2035 487.474 93.8085 484.804 92.4135 482.134 91.716 479.134 91.716 475.804ZM91.716 841.909C91.716 839.749 91.9485 837.626 92.4135 835.541 92.8785 833.456 93.561 831.619 94.461 830.029L102.156 833.224C100.596 836.314 99.816 839.239 99.816 841.999 99.816 844.729 100.476 846.094 101.796 846.094 102.426 846.094 102.898 845.689 103.213 844.879 103.528 844.069 103.866 842.734 104.226 840.874 104.676 838.474 105.193 836.449 105.778 834.799 106.363 833.149 107.316 831.716 108.636 830.501 109.956 829.286 111.756 828.679 114.036 828.679 116.016 828.679 117.808 829.234 119.413 830.344 121.018 831.454 122.293 833.111 123.238 835.316 124.183 837.521 124.656 840.199 124.656 843.349 124.656 845.959 124.363 848.501 123.778 850.976 123.193 853.451 122.406 855.484 121.416 857.074L113.676 853.654C114.546 852.154 115.243 850.474 115.768 848.614 116.293 846.754 116.556 844.969 116.556 843.259 116.556 841.789 116.413 840.739 116.128 840.109 115.843 839.479 115.416 839.164 114.846 839.164 114.186 839.164 113.691 839.576 113.361 840.401 113.031 841.226 112.671 842.584 112.281 844.474 111.771 846.904 111.223 848.929 110.638 850.549 110.053 852.169 109.093 853.579 107.758 854.779 106.423 855.979 104.616 856.579 102.336 856.579 100.356 856.579 98.556 856.024 96.936 854.914 95.316 853.804 94.041 852.146 93.111 849.941 92.181 847.736 91.716 845.059 91.716 841.909ZM91.716 887.909C91.716 885.749 91.9485 883.626 92.4135 881.541 92.8785 879.456 93.561 877.619 94.461 876.029L102.156 879.224C100.596 882.314 99.816 885.239 99.816 887.999 99.816 890.729 100.476 892.094 101.796 892.094 102.426 892.094 102.898 891.689 103.213 890.879 103.528 890.069 103.866 888.734 104.226 886.874 104.676 884.474 105.193 882.449 105.778 880.799 106.363 879.149 107.316 877.716 108.636 876.501 109.956 875.286 111.756 874.679 114.036 874.679 116.016 874.679 117.808 875.234 119.413 876.344 121.018 877.454 122.293 879.111 123.238 881.316 124.183 883.521 124.656 886.199 124.656 889.349 124.656 891.959 124.363 894.501 123.778 896.976 123.193 899.451 122.406 901.484 121.416 903.074L113.676 899.654C114.546 898.154 115.243 896.474 115.768 894.614 116.293 892.754 116.556 890.969 116.556 889.259 116.556 887.789 116.413 886.739 116.128 886.109 115.843 885.479 115.416 885.164 114.846 885.164 114.186 885.164 113.691 885.576 113.361 886.401 113.031 887.226 112.671 888.584 112.281 890.474 111.771 892.904 111.223 894.929 110.638 896.549 110.053 898.169 109.093 899.579 107.758 900.779 106.423 901.979 104.616 902.579 102.336 902.579 100.356 902.579 98.556 902.024 96.936 900.914 95.316 899.804 94.041 898.146 93.111 895.941 92.181 893.736 91.716 891.059 91.716 887.909Z" stroke="#262626" stroke-width="3" stroke-linejoin="round" stroke-miterlimit="10" fill="none" fill-rule="evenodd"/><text fill="#000000" fill-opacity="0" font-family="Arial,Arial_MSFontService,sans-serif" font-size="864.395" x="91.716" y="795.025">SISTEMA DE PRECIOS MAYORISTAS</text><rect x="173" y="380" width="482" height="185" fill="#262626"/><text fill="#FFFFFF" font-family="Montserrat,Montserrat_MSFontService,sans-serif" font-weight="700" font-size="72" transform="translate(182.918 454)">Precios <tspan font-size="72" x="0" y="86">Mayoristas</tspan></text><path d="M848.5 823.5 874 823.5 899.5 853.5 874 883.5 848.5 883.5 874 853.5Z" stroke="#262626" stroke-width="3.33392" stroke-miterlimit="8" fill="none" fill-rule="evenodd"/><path d="M805.5 823.5 831 823.5 856.5 853.5 831 883.5 805.5 883.5 831 853.5Z" stroke="#262626" stroke-width="3.33392" stroke-miterlimit="8" fill="none" fill-rule="evenodd"/><g clip-path="url(#clip1)"><g clip-path="url(#clip2)"><g clip-path="url(#clip3)"><path d="M347.472 240.611C316.762 240.611 291.778 265.595 291.778 296.306 291.778 327.016 316.762 352 347.472 352 378.182 352 403.167 327.015 403.167 296.306 403.167 265.596 378.182 240.611 347.472 240.611ZM347.472 343.943C321.205 343.943 299.834 322.573 299.834 296.306 299.834 270.038 321.205 248.667 347.472 248.667 373.739 248.667 395.11 270.038 395.11 296.306 395.11 322.573 373.739 343.943 347.472 343.943Z" fill="#262626"/><path d="M282.889 313.805 188.167 313.805C188.014 313.805 187.889 313.681 187.889 313.527L187.889 123.806 218.305 123.806C222.901 123.806 226.64 120.068 226.64 115.473L226.64 85.0567 351.777 85.0567C351.93 85.0567 352.055 85.1807 352.055 85.3338L352.055 227.416C352.055 229.641 353.858 231.445 356.083 231.445 358.308 231.445 360.111 229.641 360.111 227.416L360.111 85.3338C360.111 80.7383 356.373 77 351.778 77L221.872 77C218.497 77 215.323 78.3149 212.935 80.7023L183.535 110.102C181.148 112.49 179.833 115.663 179.833 119.04L179.833 313.527C179.833 318.123 183.572 321.861 188.167 321.861L282.888 321.861C285.114 321.861 286.917 320.058 286.917 317.833 286.917 315.608 285.114 313.805 282.889 313.805ZM218.583 86.4483 218.583 115.473C218.583 115.626 218.459 115.75 218.305 115.75L189.282 115.75Z" fill="#262626"/><path d="M239.834 240.611 222.612 240.611C215.642 240.611 209.973 246.281 209.973 253.25L209.973 270.472C209.973 277.441 215.643 283.111 222.612 283.111L239.834 283.111C246.803 283.111 252.473 277.441 252.473 270.472L252.473 253.25C252.473 246.28 246.803 240.611 239.834 240.611ZM244.416 270.472C244.416 272.999 242.361 275.054 239.834 275.054L222.612 275.054C220.085 275.054 218.029 272.998 218.029 270.472L218.029 253.25C218.029 250.723 220.085 248.667 222.612 248.667L239.834 248.667C242.361 248.667 244.416 250.723 244.416 253.25Z" fill="#262626"/><path d="M255.599 138.457C254.025 136.883 251.475 136.884 249.901 138.457L248.042 140.317C245.832 138.424 242.965 137.277 239.834 137.277L222.612 137.277C215.642 137.277 209.973 142.947 209.973 149.917L209.973 167.139C209.973 174.108 215.643 179.778 222.612 179.778L239.834 179.778C246.803 179.778 252.473 174.108 252.473 167.139L252.473 149.917C252.473 149.095 252.391 148.291 252.241 147.512L255.599 144.154C257.172 142.581 257.172 140.03 255.599 138.457ZM244.416 167.139C244.416 169.666 242.361 171.722 239.834 171.722L222.612 171.722C220.085 171.722 218.029 169.666 218.029 167.139L218.029 149.917C218.029 147.39 220.085 145.334 222.612 145.334L239.834 145.334C240.742 145.334 241.586 145.603 242.299 146.06L232.326 156.034 230.52 152.421C229.525 150.431 227.106 149.625 225.115 150.619 223.126 151.615 222.319 154.034 223.314 156.024L227.62 164.635C228.199 165.793 229.299 166.602 230.578 166.81 230.793 166.844 231.009 166.862 231.223 166.862 232.283 166.862 233.31 166.443 234.072 165.682L244.417 155.336 244.417 167.139Z" fill="#262626"/><path d="M255.599 190.124C254.025 188.551 251.475 188.551 249.901 190.124L248.042 191.983C245.832 190.091 242.965 188.944 239.834 188.944L222.612 188.944C215.642 188.944 209.973 194.614 209.973 201.583L209.973 218.805C209.973 225.775 215.643 231.444 222.612 231.444L239.834 231.444C246.803 231.444 252.473 225.774 252.473 218.805L252.473 201.583C252.473 200.761 252.391 199.957 252.241 199.178L255.599 195.82C257.172 194.248 257.172 191.697 255.599 190.124ZM244.416 218.806C244.416 221.333 242.361 223.388 239.834 223.388L222.612 223.388C220.085 223.388 218.029 221.332 218.029 218.806L218.029 201.584C218.029 199.057 220.085 197.001 222.612 197.001L239.834 197.001C240.742 197.001 241.586 197.27 242.299 197.727L232.326 207.7 230.52 204.087C229.525 202.098 227.106 201.29 225.115 202.286 223.126 203.281 222.319 205.7 223.314 207.69L227.62 216.301C228.199 217.459 229.299 218.268 230.578 218.476 230.793 218.511 231.009 218.528 231.223 218.528 232.283 218.528 233.31 218.109 234.072 217.348L244.417 207.003 244.417 218.806Z" fill="#262626"/><path d="M269.972 153.945 300.111 153.945C302.336 153.945 304.139 152.142 304.139 149.917 304.139 147.692 302.336 145.889 300.111 145.889L269.972 145.889C267.747 145.889 265.944 147.692 265.944 149.917 265.944 152.142 267.747 153.945 269.972 153.945Z" fill="#262626"/><path d="M330.25 163.111 269.972 163.111C267.747 163.111 265.944 164.915 265.944 167.139 265.944 169.364 267.747 171.168 269.972 171.168L330.25 171.168C332.476 171.168 334.279 169.364 334.279 167.139 334.279 164.915 332.475 163.111 330.25 163.111Z" fill="#262626"/><path d="M269.972 205.612 300.111 205.612C302.336 205.612 304.139 203.808 304.139 201.584 304.139 199.359 302.336 197.555 300.111 197.555L269.972 197.555C267.747 197.555 265.944 199.359 265.944 201.584 265.944 203.808 267.747 205.612 269.972 205.612Z" fill="#262626"/><path d="M334.279 218.806C334.279 216.581 332.476 214.777 330.25 214.777L269.972 214.777C267.747 214.777 265.944 216.581 265.944 218.806 265.944 221.03 267.747 222.834 269.972 222.834L330.25 222.834C332.475 222.834 334.279 221.03 334.279 218.806Z" fill="#262626"/><path d="M269.972 249.221C267.747 249.221 265.944 251.025 265.944 253.25 265.944 255.474 267.747 257.278 269.972 257.278L295.806 257.278C298.031 257.278 299.834 255.474 299.834 253.25 299.834 251.025 298.031 249.221 295.806 249.221Z" fill="#262626"/><path d="M282.889 266.443 269.972 266.443C267.747 266.443 265.944 268.247 265.944 270.472 265.944 272.696 267.747 274.5 269.972 274.5L282.889 274.5C285.114 274.5 286.917 272.696 286.917 270.472 286.917 268.247 285.114 266.443 282.889 266.443Z" fill="#262626"/><path d="M353.948 292.237C353.138 291.951 352.312 291.653 351.486 291.345L351.486 277.078C352.121 277.29 352.915 277.71 353.678 278.165 355.317 279.143 357.417 278.836 358.702 277.424 360.436 275.518 359.945 272.507 357.706 271.231 355.9 270.203 353.691 269.188 351.486 268.779L351.486 266.335C351.486 264.129 349.787 262.206 347.582 262.139 345.3 262.071 343.43 263.9 343.43 266.166L343.43 269.063C343.1 269.146 342.767 269.236 342.43 269.338 337.426 270.845 333.688 275.12 332.675 280.494 331.748 285.416 333.34 290.175 336.831 292.913 338.534 294.248 340.619 295.472 343.43 296.749L343.43 315.419C341.327 315.169 339.8 314.529 337.407 312.975 335.566 311.781 333.042 312.141 331.777 313.934 330.455 315.806 330.959 318.386 332.862 319.63 336.992 322.332 339.882 323.239 343.43 323.514L343.43 326.275C343.43 328.481 345.13 330.404 347.335 330.47 349.617 330.538 351.487 328.709 351.487 326.443L351.487 323.14C358.645 321.42 363.237 315.35 364.243 309.363 365.542 301.629 361.501 294.907 353.948 292.237ZM343.429 287.682C342.835 287.322 342.286 286.952 341.803 286.574 340.705 285.713 340.229 283.911 340.592 281.986 340.879 280.464 341.769 278.681 343.429 277.65ZM356.297 308.028C355.87 310.566 354.236 313.243 351.486 314.621L351.486 299.919C356.865 301.951 356.532 306.627 356.297 308.028Z" fill="#262626"/></g></g></g></g></svg>