<?xml version="1.0" encoding="UTF-8" standalone="no"?>
<svg
   xmlns:dc="http://purl.org/dc/elements/1.1/"
   xmlns:cc="http://creativecommons.org/ns#"
   xmlns:rdf="http://www.w3.org/1999/02/22-rdf-syntax-ns#"
   xmlns:svg="http://www.w3.org/2000/svg"
   xmlns="http://www.w3.org/2000/svg"
   xmlns:sodipodi="http://sodipodi.sourceforge.net/DTD/sodipodi-0.dtd"
   xmlns:inkscape="http://www.inkscape.org/namespaces/inkscape"
   width="11.566192mm"
   height="7.0238795mm"
   viewBox="0 0 11.566192 7.0238792"
   version="1.1"
   id="svg56"
   inkscape:version="1.0.1 (3bc2e813f5, 2020-09-07)"
   sodipodi:docname="avatar_ces_letrasNegras.svg"
   inkscape:export-filename="C:\Users\fedem\Desktop\web\pruebas\panel\img\avatar_ces.png"
   inkscape:export-xdpi="298"
   inkscape:export-ydpi="298">
  <defs
     id="defs50" />
  <sodipodi:namedview
     id="base"
     pagecolor="#ffffff"
     bordercolor="#666666"
     borderopacity="1.0"
     inkscape:pageopacity="0.0"
     inkscape:pageshadow="2"
     inkscape:zoom="5.6"
     inkscape:cx="33.854383"
     inkscape:cy="11.831969"
     inkscape:document-units="mm"
     inkscape:current-layer="layer1"
     inkscape:document-rotation="0"
     showgrid="false"
     fit-margin-top="0.2"
     fit-margin-left="0.2"
     fit-margin-right="0.2"
     fit-margin-bottom="0.2"
     inkscape:pagecheckerboard="true"
     inkscape:window-width="1366"
     inkscape:window-height="705"
     inkscape:window-x="-8"
     inkscape:window-y="-8"
     inkscape:window-maximized="1"
     lock-margins="true"
     showguides="false" />
  <metadata
     id="metadata53">
    <rdf:RDF>
      <cc:Work
         rdf:about="">
        <dc:format>image/svg+xml</dc:format>
        <dc:type
           rdf:resource="http://purl.org/dc/dcmitype/StillImage" />
        <dc:title></dc:title>
      </cc:Work>
    </rdf:RDF>
  </metadata>
  <g
     inkscape:label="Capa 1"
     inkscape:groupmode="layer"
     id="layer1"
     transform="translate(-86.725362,-92.338346)">
    <path
       d="m 88.127095,99.091632 q -0.501854,0 -0.781743,-0.273442 -0.276672,-0.273451 -0.276672,-0.775313 v -1.24822 h 0.636985 v 1.228916 q 0,0.540463 0.427862,0.540463 0.424663,0 0.424663,-0.540463 v -1.228916 h 0.627319 v 1.24822 q 0,0.501862 -0.27989,0.775313 -0.276663,0.273442 -0.778524,0.273442 z"
       style="font-style:normal;font-variant:normal;font-weight:normal;font-stretch:normal;font-size:5.64444px;line-height:1.25;font-family:'Montserrat ExtraBold';-inkscape-font-specification:'Montserrat ExtraBold, Normal';font-variant-ligatures:normal;font-variant-caps:normal;font-variant-numeric:normal;font-variant-east-asian:normal;letter-spacing:0px;word-spacing:0px;white-space:pre;display:inline;fill:#0f0f0f;fill-opacity:1;stroke:#0f0f0f;stroke-width:0.0973738;stroke-miterlimit:4;stroke-dasharray:none;stroke-opacity:1"
       id="path283-3" />
    <path
       d="m 91.756438,96.794657 v 2.251942 H 91.23206 l -0.994072,-1.199967 v 1.199967 h -0.624111 v -2.251942 h 0.524379 l 0.99408,1.199959 v -1.199959 z"
       style="font-style:normal;font-variant:normal;font-weight:normal;font-stretch:normal;font-size:5.64444px;line-height:1.25;font-family:'Montserrat ExtraBold';-inkscape-font-specification:'Montserrat ExtraBold, Normal';font-variant-ligatures:normal;font-variant-caps:normal;font-variant-numeric:normal;font-variant-east-asian:normal;letter-spacing:0px;word-spacing:0px;white-space:pre;display:inline;fill:#0f0f0f;fill-opacity:1;stroke:#0f0f0f;stroke-width:0.0973738;stroke-miterlimit:4;stroke-dasharray:none;stroke-opacity:1"
       id="path285-7" />
    <path
       d="m 93.19331,98.448222 h -0.347446 v 0.598377 h -0.636977 v -2.251942 h 1.029455 q 0.305623,0 0.53082,0.102948 0.225198,0.09973 0.347439,0.289537 0.122248,0.186587 0.122248,0.440733 0,0.244495 -0.115816,0.427869 -0.11259,0.180154 -0.324914,0.283103 l 0.485771,0.707752 h -0.682018 z m 0.40213,-0.820347 q 0,-0.157636 -0.09973,-0.244494 -0.09972,-0.08687 -0.295963,-0.08687 h -0.353879 v 0.659497 h 0.353879 q 0.19624,0 0.295963,-0.08365 0.09973,-0.08686 0.09973,-0.244495 z"
       style="font-style:normal;font-variant:normal;font-weight:normal;font-stretch:normal;font-size:5.64444px;line-height:1.25;font-family:'Montserrat ExtraBold';-inkscape-font-specification:'Montserrat ExtraBold, Normal';font-variant-ligatures:normal;font-variant-caps:normal;font-variant-numeric:normal;font-variant-east-asian:normal;letter-spacing:0px;word-spacing:0px;white-space:pre;display:inline;fill:#0f0f0f;fill-opacity:1;stroke:#0f0f0f;stroke-width:0.0973738;stroke-miterlimit:4;stroke-dasharray:none;stroke-opacity:1"
       id="path287-1" />
    <g
       style="font-style:normal;font-variant:normal;font-weight:normal;font-stretch:normal;font-size:5.64444px;line-height:1.25;font-family:'Montserrat ExtraBold';-inkscape-font-specification:'Montserrat ExtraBold, Normal';font-variant-ligatures:normal;font-variant-caps:normal;font-variant-numeric:normal;font-variant-east-asian:normal;letter-spacing:0px;word-spacing:0px;white-space:pre;shape-inside:url(#rect12-1-8-2);display:inline;fill:#0f0f0f;fill-opacity:1;stroke:#0f0f0f;stroke-width:0.168115;stroke-miterlimit:4;stroke-dasharray:none;stroke-opacity:1"
       id="text10-2-9-9-7"
       transform="matrix(0.57921119,0,0,0.57921119,72.181265,67.152878)"
       aria-label="O">
      <path
         id="path290-2"
         style="font-style:normal;font-variant:normal;font-weight:normal;font-stretch:normal;font-size:5.64444px;font-family:'Montserrat ExtraBold';-inkscape-font-specification:'Montserrat ExtraBold, Normal';font-variant-ligatures:normal;font-variant-caps:normal;font-variant-numeric:normal;font-variant-east-asian:normal;fill:#0f0f0f;fill-opacity:1;stroke:#0f0f0f;stroke-width:0.168115;stroke-miterlimit:4;stroke-dasharray:none;stroke-opacity:1"
         d="m 42.454004,55.179633 q -0.626532,0 -1.128888,-0.265289 -0.49671,-0.265289 -0.784577,-0.733777 -0.282222,-0.468489 -0.282222,-1.055511 0,-0.587021 0.282222,-1.05551 0.287867,-0.468488 0.784577,-0.733777 0.502356,-0.265289 1.128888,-0.265289 0.626533,0 1.123244,0.265289 0.502355,0.265289 0.784577,0.733777 0.287867,0.468489 0.287867,1.05551 0,0.587022 -0.287867,1.055511 -0.282222,0.468488 -0.784577,0.733777 -0.496711,0.265289 -1.123244,0.265289 z m 0,-0.925689 q 0.299156,0 0.541867,-0.141111 0.242711,-0.141111 0.383822,-0.39511 0.141111,-0.259645 0.141111,-0.592667 0,-0.333022 -0.141111,-0.587021 -0.141111,-0.259645 -0.383822,-0.400756 -0.242711,-0.141111 -0.541867,-0.141111 -0.299155,0 -0.541866,0.141111 -0.242711,0.141111 -0.383822,0.400756 -0.141111,0.253999 -0.141111,0.587021 0,0.333022 0.141111,0.592667 0.141111,0.253999 0.383822,0.39511 0.242711,0.141111 0.541866,0.141111 z" />
    </g>
    <g
       style="font-style:normal;font-variant:normal;font-weight:normal;font-stretch:normal;font-size:19.7556px;line-height:1.25;font-family:Baloo;-inkscape-font-specification:'Baloo, Normal';font-variant-ligatures:normal;font-variant-caps:normal;font-variant-numeric:normal;font-variant-east-asian:normal;letter-spacing:0px;word-spacing:0px;white-space:pre;shape-inside:url(#rect99-0);display:inline;fill:#0f0f0f;fill-opacity:1;stroke:#0f0f0f;stroke-width:0.499726;stroke-miterlimit:4;stroke-dasharray:none;stroke-opacity:1"
       id="text97-2-0"
       transform="matrix(0.19720325,0,0,0.19253516,84.340843,69.508444)"
       aria-label="I">
      <path
         id="path293-2"
         style="font-style:normal;font-variant:normal;font-weight:normal;font-stretch:normal;font-size:19.7556px;font-family:Baloo;-inkscape-font-specification:'Baloo, Normal';font-variant-ligatures:normal;font-variant-caps:normal;font-variant-numeric:normal;font-variant-east-asian:normal;fill:#0f0f0f;fill-opacity:1;stroke:#0f0f0f;stroke-width:0.499726;stroke-miterlimit:4;stroke-dasharray:none;stroke-opacity:1"
         d="m 55.389781,153.53013 q -0.217311,0.0593 -0.691446,0.11854 -0.454378,0.0593 -0.908757,0.0593 -0.454379,0 -0.80998,-0.079 -0.335845,-0.0593 -0.572912,-0.23707 -0.237067,-0.1778 -0.355601,-0.49389 -0.118534,-0.31609 -0.118534,-0.82973 v -10.43096 q 0.217312,-0.0395 0.691446,-0.0988 0.474135,-0.079 0.908758,-0.079 0.454379,0 0.790224,0.079 0.355601,0.0593 0.592668,0.23707 0.237067,0.1778 0.355601,0.49389 0.118533,0.31609 0.118533,0.82974 z" />
    </g>
    <text
       xml:space="preserve"
       style="font-size:5.83415px;line-height:1.25;font-family:'Montserrat Light';-inkscape-font-specification:'Montserrat Light, Normal';letter-spacing:0px;word-spacing:0px;fill:none;fill-opacity:1;stroke:#0f0f00;stroke-width:0.223;stroke-miterlimit:4;stroke-dasharray:none;stroke-opacity:1"
       x="89.126823"
       y="93.575974"
       id="text876-1-1"
       transform="scale(0.97314575,1.0275953)"><tspan
         sodipodi:role="line"
         id="tspan874-0-4"
         x="89.126823"
         y="93.575974"
         style="font-style:normal;font-variant:normal;font-weight:normal;font-stretch:normal;font-family:Baloo;-inkscape-font-specification:Baloo;fill:none;fill-opacity:1;stroke:#0f0f00;stroke-width:0.223;stroke-miterlimit:4;stroke-dasharray:none;stroke-opacity:1"
         dy="0"><tspan
           style="font-size:5.63628px;fill:none;fill-opacity:1;stroke:#0f0f00;stroke-width:0.223;stroke-miterlimit:4;stroke-dasharray:none;stroke-opacity:1"
           id="tspan906-5-4">CES</tspan></tspan></text>
  </g>
</svg>
