<?xml version="1.0" encoding="UTF-8" standalone="no"?>
<svg
   xmlns:dc="http://purl.org/dc/elements/1.1/"
   xmlns:cc="http://creativecommons.org/ns#"
   xmlns:rdf="http://www.w3.org/1999/02/22-rdf-syntax-ns#"
   xmlns:svg="http://www.w3.org/2000/svg"
   xmlns="http://www.w3.org/2000/svg"
   xmlns:sodipodi="http://sodipodi.sourceforge.net/DTD/sodipodi-0.dtd"
   xmlns:inkscape="http://www.inkscape.org/namespaces/inkscape"
   width="13.890624mm"
   height="13.890624mm"
   viewBox="0 0 13.890624 13.890624"
   version="1.1"
   id="svg56"
   inkscape:version="1.0.1 (3bc2e813f5, 2020-09-07)"
   sodipodi:docname="avatar.svg">
  <defs
     id="defs50" />
  <sodipodi:namedview
     id="base"
     pagecolor="#ffffff"
     bordercolor="#666666"
     borderopacity="1.0"
     inkscape:pageopacity="0.0"
     inkscape:pageshadow="2"
     inkscape:zoom="3.959798"
     inkscape:cx="39.133041"
     inkscape:cy="25.814498"
     inkscape:document-units="mm"
     inkscape:current-layer="layer1"
     inkscape:document-rotation="0"
     showgrid="false"
     fit-margin-top="0"
     fit-margin-left="0"
     fit-margin-right="0"
     fit-margin-bottom="0"
     inkscape:pagecheckerboard="true"
     inkscape:window-width="1366"
     inkscape:window-height="705"
     inkscape:window-x="-8"
     inkscape:window-y="-8"
     inkscape:window-maximized="1" />
  <metadata
     id="metadata53">
    <rdf:RDF>
      <cc:Work
         rdf:about="">
        <dc:format>image/svg+xml</dc:format>
        <dc:type
           rdf:resource="http://purl.org/dc/dcmitype/StillImage" />
        <dc:title></dc:title>
      </cc:Work>
    </rdf:RDF>
  </metadata>
  <g
     inkscape:label="Capa 1"
     inkscape:groupmode="layer"
     id="layer1"
     transform="translate(-85.186379,-89.391373)">
    <circle
       style="fill:#0f0f0f;fill-rule:evenodd;stroke-width:0.867114;stroke-linecap:round;paint-order:fill markers stroke"
       id="path76"
       cx="92.131691"
       cy="96.336685"
       r="6.945312" />
    <g
       id="g905">
      <path
         d="m 89.552349,95.723649 q -0.773015,0 -1.20412,-0.421188 -0.426156,-0.421197 -0.426156,-1.194213 v -1.922635 h 0.981139 v 1.892901 q 0,0.832475 0.659046,0.832475 0.654096,0 0.654096,-0.832475 v -1.892901 h 0.966262 v 1.922635 q 0,0.773016 -0.431105,1.194213 -0.426146,0.421188 -1.199162,0.421188 z"
         style="font-style:normal;font-variant:normal;font-weight:normal;font-stretch:normal;font-size:5.64444px;line-height:1.25;font-family:'Montserrat ExtraBold';-inkscape-font-specification:'Montserrat ExtraBold, Normal';font-variant-ligatures:normal;font-variant-caps:normal;font-variant-numeric:normal;font-variant-east-asian:normal;letter-spacing:0px;word-spacing:0px;white-space:pre;display:inline;fill:#ffffff;fill-opacity:1;stroke-width:0.0656226;stroke-miterlimit:4;stroke-dasharray:none"
         id="path283" />
      <path
         d="m 95.142626,92.185613 v 3.468668 h -0.807709 l -1.531164,-1.84831 v 1.84831 H 91.84244 v -3.468668 h 0.807699 l 1.531174,1.848299 v -1.848299 z"
         style="font-style:normal;font-variant:normal;font-weight:normal;font-stretch:normal;font-size:5.64444px;line-height:1.25;font-family:'Montserrat ExtraBold';-inkscape-font-specification:'Montserrat ExtraBold, Normal';font-variant-ligatures:normal;font-variant-caps:normal;font-variant-numeric:normal;font-variant-east-asian:normal;letter-spacing:0px;word-spacing:0px;white-space:pre;display:inline;fill:#ffffff;fill-opacity:1;stroke-width:0.0656226;stroke-miterlimit:4;stroke-dasharray:none"
         id="path285" />
    </g>
    <g
       id="g912"
       transform="translate(0.020562)">
      <path
         d="m 89.519051,99.135999 h -0.5709 v 0.983221 h -1.04664 v -3.700271 h 1.69154 q 0.50218,0 0.87221,0.16916 0.37003,0.16387 0.5709,0.47575 0.20087,0.30659 0.20087,0.72419 0,0.40174 -0.1903,0.70305 -0.18501,0.29602 -0.53389,0.46518 l 0.79819,1.162941 h -1.12065 z m 0.66076,-1.34795 q 0,-0.25902 -0.16387,-0.40174 -0.16387,-0.14273 -0.48632,-0.14273 h -0.58147 v 1.08365 h 0.58147 q 0.32245,0 0.48632,-0.13744 0.16387,-0.14272 0.16387,-0.40174 z"
         style="font-style:normal;font-variant:normal;font-weight:normal;font-stretch:normal;font-size:5.64444px;line-height:1.25;font-family:'Montserrat ExtraBold';-inkscape-font-specification:'Montserrat ExtraBold, Normal';font-variant-ligatures:normal;font-variant-caps:normal;font-variant-numeric:normal;font-variant-east-asian:normal;letter-spacing:0px;word-spacing:0px;white-space:pre;display:inline;fill:#ffffff;fill-opacity:1;stroke-width:0.0700042;stroke-miterlimit:4;stroke-dasharray:none"
         id="path287" />
      <g
         style="font-style:normal;font-variant:normal;font-weight:normal;font-stretch:normal;font-size:5.64444px;line-height:1.25;font-family:'Montserrat ExtraBold';-inkscape-font-specification:'Montserrat ExtraBold, Normal';font-variant-ligatures:normal;font-variant-caps:normal;font-variant-numeric:normal;font-variant-east-asian:normal;letter-spacing:0px;word-spacing:0px;white-space:pre;shape-inside:url(#rect12-1-8-2);display:inline;fill:#ffffff;fill-opacity:1"
         id="text10-2-9-9"
         transform="matrix(0.93651282,0,0,0.93651282,55.622448,48.535763)"
         aria-label="O">
        <path
           id="path290"
           style="font-style:normal;font-variant:normal;font-weight:normal;font-stretch:normal;font-size:5.64444px;font-family:'Montserrat ExtraBold';-inkscape-font-specification:'Montserrat ExtraBold, Normal';font-variant-ligatures:normal;font-variant-caps:normal;font-variant-numeric:normal;font-variant-east-asian:normal;fill:#ffffff;fill-opacity:1"
           d="m 42.454004,55.159369 q -0.626532,0 -1.128888,-0.265289 -0.49671,-0.265289 -0.784577,-0.733777 -0.282222,-0.468489 -0.282222,-1.055511 0,-0.587021 0.282222,-1.05551 0.287867,-0.468488 0.784577,-0.733777 0.502356,-0.265289 1.128888,-0.265289 0.626533,0 1.123244,0.265289 0.502355,0.265289 0.784577,0.733777 0.287867,0.468489 0.287867,1.05551 0,0.587022 -0.287867,1.055511 -0.282222,0.468488 -0.784577,0.733777 -0.496711,0.265289 -1.123244,0.265289 z m 0,-0.925689 q 0.299156,0 0.541867,-0.141111 0.242711,-0.141111 0.383822,-0.39511 0.141111,-0.259645 0.141111,-0.592667 0,-0.333022 -0.141111,-0.587021 -0.141111,-0.259645 -0.383822,-0.400756 -0.242711,-0.141111 -0.541867,-0.141111 -0.299155,0 -0.541866,0.141111 -0.242711,0.141111 -0.383822,0.400756 -0.141111,0.253999 -0.141111,0.587021 0,0.333022 0.141111,0.592667 0.141111,0.253999 0.383822,0.39511 0.242711,0.141111 0.541866,0.141111 z" />
      </g>
      <g
         style="font-style:normal;font-variant:normal;font-weight:normal;font-stretch:normal;font-size:19.7556px;line-height:1.25;font-family:Baloo;-inkscape-font-specification:'Baloo, Normal';font-variant-ligatures:normal;font-variant-caps:normal;font-variant-numeric:normal;font-variant-east-asian:normal;letter-spacing:0px;word-spacing:0px;white-space:pre;shape-inside:url(#rect99-0);display:inline;fill:#ffffff;fill-opacity:1"
         id="text97-2"
         transform="matrix(0.32403367,0,0,0.31636332,74.973157,51.583726)"
         aria-label="I">
        <path
           id="path293"
           style="font-style:normal;font-variant:normal;font-weight:normal;font-stretch:normal;font-size:19.7556px;font-family:Baloo;-inkscape-font-specification:'Baloo, Normal';font-variant-ligatures:normal;font-variant-caps:normal;font-variant-numeric:normal;font-variant-east-asian:normal;fill:#ffffff;fill-opacity:1"
           d="m 55.389781,153.53013 q -0.217311,0.0593 -0.691446,0.11854 -0.454378,0.0593 -0.908757,0.0593 -0.454379,0 -0.80998,-0.079 -0.335845,-0.0593 -0.572912,-0.23707 -0.237067,-0.1778 -0.355601,-0.49389 -0.118534,-0.31609 -0.118534,-0.82973 v -10.43096 q 0.217312,-0.0395 0.691446,-0.0988 0.474135,-0.079 0.908758,-0.079 0.454379,0 0.790224,0.079 0.355601,0.0593 0.592668,0.23707 0.237067,0.1778 0.355601,0.49389 0.118533,0.31609 0.118533,0.82974 z" />
      </g>
    </g>
  </g>
</svg>
