<?xml version="1.0" encoding="UTF-8" standalone="no"?>
<svg
   xmlns:dc="http://purl.org/dc/elements/1.1/"
   xmlns:cc="http://creativecommons.org/ns#"
   xmlns:rdf="http://www.w3.org/1999/02/22-rdf-syntax-ns#"
   xmlns:svg="http://www.w3.org/2000/svg"
   xmlns="http://www.w3.org/2000/svg"
   xmlns:sodipodi="http://sodipodi.sourceforge.net/DTD/sodipodi-0.dtd"
   xmlns:inkscape="http://www.inkscape.org/namespaces/inkscape"
   width="18.23218mm"
   height="8.2620363mm"
   viewBox="0 0 18.23218 8.2620365"
   version="1.1"
   id="svg280"
   inkscape:version="1.0.1 (3bc2e813f5, 2020-09-07)"
   sodipodi:docname="CES-vrt-lineasNegras-fondoDamerot.svg">
  <defs
     id="defs274">
    <rect
       x="124.74079"
       y="152.74927"
       width="27.78125"
       height="6.4255953"
       id="rect30" />
    <rect
       x="127.11935"
       y="128.1125"
       width="27.395126"
       height="6.6817379"
       id="rect29" />
    <rect
       x="129.05705"
       y="144.88368"
       width="62.808338"
       height="6.7485552"
       id="rect23" />
  </defs>
  <sodipodi:namedview
     id="base"
     pagecolor="#ffffff"
     bordercolor="#666666"
     borderopacity="1.0"
     inkscape:pageopacity="0.0"
     inkscape:pageshadow="2"
     inkscape:zoom="7.919596"
     inkscape:cx="31.358632"
     inkscape:cy="22.138795"
     inkscape:document-units="mm"
     inkscape:current-layer="layer1"
     inkscape:document-rotation="0"
     showgrid="false"
     fit-margin-top="0.2"
     fit-margin-left="0.1"
     fit-margin-right="0.1"
     fit-margin-bottom="0.2"
     inkscape:window-width="1366"
     inkscape:window-height="705"
     inkscape:window-x="-8"
     inkscape:window-y="-8"
     inkscape:window-maximized="1"
     inkscape:pagecheckerboard="true"
     inkscape:snap-global="false"
     lock-margins="true"
     showguides="true"
     inkscape:guide-bbox="true" />
  <metadata
     id="metadata277">
    <rdf:RDF>
      <cc:Work
         rdf:about="">
        <dc:format>image/svg+xml</dc:format>
        <dc:type
           rdf:resource="http://purl.org/dc/dcmitype/StillImage" />
        <dc:title></dc:title>
      </cc:Work>
    </rdf:RDF>
  </metadata>
  <g
     inkscape:label="Capa 1"
     inkscape:groupmode="layer"
     id="layer1"
     transform="translate(-149.35275,-134.50051)">
    <path
       d="m 151.19188,142.52655 q -0.82463,0 -1.28452,-0.44931 -0.45461,-0.44932 -0.45461,-1.27395 v -2.05101 h 1.04665 v 2.01929 q 0,0.88806 0.70305,0.88806 0.69777,0 0.69777,-0.88806 v -2.01929 h 1.03078 v 2.05101 q 0,0.82463 -0.45989,1.27395 -0.4546,0.44931 -1.27923,0.44931 z"
       style="font-style:normal;font-variant:normal;font-weight:normal;font-stretch:normal;font-size:5.64444px;line-height:1.25;font-family:'Montserrat ExtraBold';-inkscape-font-specification:'Montserrat ExtraBold, Normal';font-variant-ligatures:normal;font-variant-caps:normal;font-variant-numeric:normal;font-variant-east-asian:normal;letter-spacing:0px;word-spacing:0px;white-space:pre;display:inline;fill:#000000;fill-opacity:1;stroke:#0f0f0f;stroke-width:0.16;stroke-miterlimit:4;stroke-dasharray:none;stroke-opacity:1"
       id="path283" />
    <path
       d="m 157.15542,138.75228 v 3.70027 h -0.86164 l -1.6334,-1.97172 v 1.97172 h -1.0255 v -3.70027 h 0.86163 l 1.63341,1.97171 v -1.97171 z"
       style="font-style:normal;font-variant:normal;font-weight:normal;font-stretch:normal;font-size:5.64444px;line-height:1.25;font-family:'Montserrat ExtraBold';-inkscape-font-specification:'Montserrat ExtraBold, Normal';font-variant-ligatures:normal;font-variant-caps:normal;font-variant-numeric:normal;font-variant-east-asian:normal;letter-spacing:0px;word-spacing:0px;white-space:pre;display:inline;fill:#000000;fill-opacity:1;stroke:#0f0f0f;stroke-width:0.16;stroke-miterlimit:4;stroke-dasharray:none;stroke-opacity:1"
       id="path285" />
    <path
       d="m 159.5164,141.46933 h -0.5709 v 0.98322 h -1.04664 v -3.70027 h 1.69154 q 0.50218,0 0.87221,0.16916 0.37003,0.16387 0.5709,0.47575 0.20087,0.30659 0.20087,0.72419 0,0.40174 -0.1903,0.70305 -0.18501,0.29602 -0.53389,0.46518 l 0.79819,1.16294 h -1.12065 z m 0.66076,-1.34795 q 0,-0.25902 -0.16387,-0.40174 -0.16387,-0.14273 -0.48632,-0.14273 h -0.58147 v 1.08365 h 0.58147 q 0.32245,0 0.48632,-0.13744 0.16387,-0.14272 0.16387,-0.40174 z"
       style="font-style:normal;font-variant:normal;font-weight:normal;font-stretch:normal;font-size:5.64444px;line-height:1.25;font-family:'Montserrat ExtraBold';-inkscape-font-specification:'Montserrat ExtraBold, Normal';font-variant-ligatures:normal;font-variant-caps:normal;font-variant-numeric:normal;font-variant-east-asian:normal;letter-spacing:0px;word-spacing:0px;white-space:pre;display:inline;fill:#000000;fill-opacity:1;stroke:#0f0f0f;stroke-width:0.16;stroke-miterlimit:4;stroke-dasharray:none;stroke-opacity:1"
       id="path287" />
    <g
       style="font-style:normal;font-variant:normal;font-weight:normal;font-stretch:normal;font-size:5.64444px;line-height:1.25;font-family:'Montserrat ExtraBold';-inkscape-font-specification:'Montserrat ExtraBold, Normal';font-variant-ligatures:normal;font-variant-caps:normal;font-variant-numeric:normal;font-variant-east-asian:normal;letter-spacing:0px;word-spacing:0px;white-space:pre;shape-inside:url(#rect12-1-8-2);display:inline;fill:#000000;fill-opacity:1;stroke:#0f0f0f;stroke-width:0.168115;stroke-miterlimit:4;stroke-dasharray:none;stroke-opacity:1"
       id="text10-2-9-9"
       transform="matrix(0.95172841,0,0,0.95172841,124.99055,90.046517)"
       aria-label="O">
      <path
         id="path290"
         style="font-style:normal;font-variant:normal;font-weight:normal;font-stretch:normal;font-size:5.64444px;font-family:'Montserrat ExtraBold';-inkscape-font-specification:'Montserrat ExtraBold, Normal';font-variant-ligatures:normal;font-variant-caps:normal;font-variant-numeric:normal;font-variant-east-asian:normal;fill:#000000;fill-opacity:1;stroke:#0f0f0f;stroke-width:0.168115;stroke-miterlimit:4;stroke-dasharray:none;stroke-opacity:1"
         d="m 42.454004,55.179633 q -0.626532,0 -1.128888,-0.265289 -0.49671,-0.265289 -0.784577,-0.733777 -0.282222,-0.468489 -0.282222,-1.055511 0,-0.587021 0.282222,-1.05551 0.287867,-0.468488 0.784577,-0.733777 0.502356,-0.265289 1.128888,-0.265289 0.626533,0 1.123244,0.265289 0.502355,0.265289 0.784577,0.733777 0.287867,0.468489 0.287867,1.05551 0,0.587022 -0.287867,1.055511 -0.282222,0.468488 -0.784577,0.733777 -0.496711,0.265289 -1.123244,0.265289 z m 0,-0.925689 q 0.299156,0 0.541867,-0.141111 0.242711,-0.141111 0.383822,-0.39511 0.141111,-0.259645 0.141111,-0.592667 0,-0.333022 -0.141111,-0.587021 -0.141111,-0.259645 -0.383822,-0.400756 -0.242711,-0.141111 -0.541867,-0.141111 -0.299155,0 -0.541866,0.141111 -0.242711,0.141111 -0.383822,0.400756 -0.141111,0.253999 -0.141111,0.587021 0,0.333022 0.141111,0.592667 0.141111,0.253999 0.383822,0.39511 0.242711,0.141111 0.541866,0.141111 z" />
    </g>
    <g
       style="font-style:normal;font-variant:normal;font-weight:normal;font-stretch:normal;font-size:19.7556px;line-height:1.25;font-family:Baloo;-inkscape-font-specification:'Baloo, Normal';font-variant-ligatures:normal;font-variant-caps:normal;font-variant-numeric:normal;font-variant-east-asian:normal;letter-spacing:0px;word-spacing:0px;white-space:pre;shape-inside:url(#rect99-0);display:inline;fill:#000000;fill-opacity:1;stroke:#0f0f0f;stroke-width:0.499726;stroke-miterlimit:4;stroke-dasharray:none;stroke-opacity:1"
       id="text97-2"
       transform="matrix(0.32403367,0,0,0.31636332,144.97051,93.917059)"
       aria-label="I">
      <path
         id="path293"
         style="font-style:normal;font-variant:normal;font-weight:normal;font-stretch:normal;font-size:19.7556px;font-family:Baloo;-inkscape-font-specification:'Baloo, Normal';font-variant-ligatures:normal;font-variant-caps:normal;font-variant-numeric:normal;font-variant-east-asian:normal;fill:#000000;fill-opacity:1;stroke:#0f0f0f;stroke-width:0.499726;stroke-miterlimit:4;stroke-dasharray:none;stroke-opacity:1"
         d="m 55.389781,153.53013 q -0.217311,0.0593 -0.691446,0.11854 -0.454378,0.0593 -0.908757,0.0593 -0.454379,0 -0.80998,-0.079 -0.335845,-0.0593 -0.572912,-0.23707 -0.237067,-0.1778 -0.355601,-0.49389 -0.118534,-0.31609 -0.118534,-0.82973 v -10.43096 q 0.217312,-0.0395 0.691446,-0.0988 0.474135,-0.079 0.908758,-0.079 0.454379,0 0.790224,0.079 0.355601,0.0593 0.592668,0.23707 0.237067,0.1778 0.355601,0.49389 0.118533,0.31609 0.118533,0.82974 z" />
    </g>
    <g
       aria-label="c"
       transform="matrix(0.75109768,0,0,0.88861174,41.739034,21.666262)"
       id="text876-9"
       style="font-style:normal;font-variant:normal;font-weight:normal;font-stretch:normal;font-size:6.27296px;line-height:1.25;font-family:'Montserrat Bold';-inkscape-font-specification:'Montserrat Bold, ';letter-spacing:0px;word-spacing:0px;fill:#000000;fill-opacity:1;stroke:#0f0f0f;stroke-width:0.19584647;stroke-miterlimit:4;stroke-dasharray:none;stroke-opacity:1">
      <path
         d="m 145.48495,131.17771 c -0.35331,-0.003 -0.71956,-0.0839 -1.02163,-0.23885 -0.33222,-0.17039 -0.62068,-0.42734 -0.79452,-0.7211 -0.1786,-0.30181 -0.21755,-0.659 -0.21179,-0.99643 0.006,-0.33464 0.0632,-0.68478 0.24369,-0.98267 0.17386,-0.28698 0.44341,-0.54996 0.77155,-0.71436 0.31302,-0.15682 0.69667,-0.22008 1.06054,-0.21863 0.31658,10e-4 0.65169,0.0563 0.92052,0.19758 0.29615,0.15568 0.53903,0.39185 0.67937,0.67253 l -0.77836,0.44275 c -0.10759,-0.17309 -0.16629,-0.236 -0.29771,-0.30934 -0.14953,-0.0834 -0.33872,-0.14098 -0.51718,-0.12567 -0.24972,0.0214 -0.50722,0.13165 -0.66712,0.29519 -0.18303,0.1872 -0.24274,0.45476 -0.24877,0.69756 -0.006,0.25202 0.0395,0.53326 0.22205,0.73258 0.15214,0.16609 0.40654,0.27644 0.65286,0.30429 0.16499,0.0187 0.34245,-0.0275 0.4853,-0.0995 0.15398,-0.0776 0.25179,-0.16416 0.35938,-0.33725 l 0.78955,0.49046 c -0.0632,0.12239 -0.1385,0.20629 -0.22902,0.29598 -0.16397,0.16246 -0.33847,0.32967 -0.56102,0.43075 -0.25984,0.11802 -0.56274,0.18676 -0.85769,0.18413 z"
         style="font-style:normal;font-variant:normal;font-weight:normal;font-stretch:normal;font-size:7.01709px;font-family:'Montserrat SemiBold';-inkscape-font-specification:'Montserrat SemiBold, ';fill:#000000;fill-opacity:1;stroke:#0f0f0f;stroke-width:0.19584647;stroke-miterlimit:4;stroke-dasharray:none;stroke-opacity:1"
         id="path1000-5"
         sodipodi:nodetypes="aaaaaaaaccaaaaaaaccaaa" />
    </g>
    <text
       xml:space="preserve"
       style="font-size:5.44819px;line-height:1.25;font-family:'Montserrat Light';-inkscape-font-specification:'Montserrat Light, Normal';letter-spacing:0px;word-spacing:0px;fill:#000000;fill-opacity:1;stroke:#0f0f0f;stroke-width:0.16;stroke-miterlimit:4;stroke-dasharray:none;stroke-opacity:1;"
       x="156.58023"
       y="134.44348"
       id="text876-1-1"
       transform="scale(0.97314575,1.0275953)"><tspan
         sodipodi:role="line"
         id="tspan874-0-4"
         x="156.58023"
         y="134.44348"
         style="font-style:normal;font-variant:normal;font-weight:normal;font-stretch:normal;font-family:Baloo;-inkscape-font-specification:Baloo;fill:#000000;fill-opacity:1;stroke:#0f0f0f;stroke-width:0.16;stroke-miterlimit:4;stroke-dasharray:none;stroke-opacity:1;"
         dy="0"><tspan
           style="font-size:5.26342px;fill:#000000;fill-opacity:1;stroke:#0f0f0f;stroke-width:0.16;stroke-miterlimit:4;stroke-dasharray:none;stroke-opacity:1;"
           id="tspan906-5-4">ES</tspan></tspan></text>
  </g>
</svg>
