<?xml version="1.0" encoding="UTF-8" standalone="no"?>
<svg
   xmlns:dc="http://purl.org/dc/elements/1.1/"
   xmlns:cc="http://creativecommons.org/ns#"
   xmlns:rdf="http://www.w3.org/1999/02/22-rdf-syntax-ns#"
   xmlns:svg="http://www.w3.org/2000/svg"
   xmlns="http://www.w3.org/2000/svg"
   xmlns:sodipodi="http://sodipodi.sourceforge.net/DTD/sodipodi-0.dtd"
   xmlns:inkscape="http://www.inkscape.org/namespaces/inkscape"
   width="18.407284mm"
   height="10.345766mm"
   viewBox="0 0 18.407285 10.345766"
   version="1.1"
   id="svg280"
   inkscape:version="1.0.1 (3bc2e813f5, 2020-09-07)"
   sodipodi:docname="CES-vrt-lineasNegras-fondoDamerot.svg">
  <defs
     id="defs274">
    <rect
       x="124.74079"
       y="152.74927"
       width="27.78125"
       height="6.4255953"
       id="rect30" />
    <rect
       x="127.11935"
       y="128.1125"
       width="27.395126"
       height="6.6817379"
       id="rect29" />
    <rect
       x="129.05705"
       y="144.88368"
       width="62.808338"
       height="6.7485552"
       id="rect23" />
  </defs>
  <sodipodi:namedview
     id="base"
     pagecolor="#ffffff"
     bordercolor="#666666"
     borderopacity="1.0"
     inkscape:pageopacity="0.0"
     inkscape:pageshadow="2"
     inkscape:zoom="3.959798"
     inkscape:cx="86.396544"
     inkscape:cy="50.243704"
     inkscape:document-units="mm"
     inkscape:current-layer="layer1"
     inkscape:document-rotation="0"
     showgrid="false"
     fit-margin-top="0.2"
     fit-margin-left="0.1"
     fit-margin-right="0.1"
     fit-margin-bottom="0.2"
     inkscape:window-width="1366"
     inkscape:window-height="705"
     inkscape:window-x="-8"
     inkscape:window-y="-8"
     inkscape:window-maximized="1"
     inkscape:pagecheckerboard="true"
     inkscape:snap-global="false"
     lock-margins="true"
     showguides="true"
     inkscape:guide-bbox="true" />
  <metadata
     id="metadata277">
    <rdf:RDF>
      <cc:Work
         rdf:about="">
        <dc:format>image/svg+xml</dc:format>
        <dc:type
           rdf:resource="http://purl.org/dc/dcmitype/StillImage" />
        <dc:title />
      </cc:Work>
    </rdf:RDF>
  </metadata>
  <g
     inkscape:label="Capa 1"
     inkscape:groupmode="layer"
     id="layer1"
     transform="translate(-149.25765,-132.49678)">
    <path
       d="m 151.19188,142.52655 q -0.82463,0 -1.28452,-0.44931 -0.45461,-0.44932 -0.45461,-1.27395 v -2.05101 h 1.04665 v 2.01929 q 0,0.88806 0.70305,0.88806 0.69777,0 0.69777,-0.88806 v -2.01929 h 1.03078 v 2.05101 q 0,0.82463 -0.45989,1.27395 -0.4546,0.44931 -1.27923,0.44931 z"
       style="font-style:normal;font-variant:normal;font-weight:normal;font-stretch:normal;font-size:5.64444px;line-height:1.25;font-family:'Montserrat ExtraBold';-inkscape-font-specification:'Montserrat ExtraBold, Normal';font-variant-ligatures:normal;font-variant-caps:normal;font-variant-numeric:normal;font-variant-east-asian:normal;letter-spacing:0px;word-spacing:0px;white-space:pre;display:inline;fill:#0f0f0f;fill-opacity:1;stroke:#0f0f0f;stroke-width:0.16;stroke-miterlimit:4;stroke-dasharray:none;stroke-opacity:1"
       id="path283" />
    <path
       d="m 157.15542,138.75228 v 3.70027 h -0.86164 l -1.6334,-1.97172 v 1.97172 h -1.0255 v -3.70027 h 0.86163 l 1.63341,1.97171 v -1.97171 z"
       style="font-style:normal;font-variant:normal;font-weight:normal;font-stretch:normal;font-size:5.64444px;line-height:1.25;font-family:'Montserrat ExtraBold';-inkscape-font-specification:'Montserrat ExtraBold, Normal';font-variant-ligatures:normal;font-variant-caps:normal;font-variant-numeric:normal;font-variant-east-asian:normal;letter-spacing:0px;word-spacing:0px;white-space:pre;display:inline;fill:#0f0f0f;fill-opacity:1;stroke:#0f0f0f;stroke-width:0.16;stroke-miterlimit:4;stroke-dasharray:none;stroke-opacity:1"
       id="path285" />
    <path
       d="m 159.5164,141.46933 h -0.5709 v 0.98322 h -1.04664 v -3.70027 h 1.69154 q 0.50218,0 0.87221,0.16916 0.37003,0.16387 0.5709,0.47575 0.20087,0.30659 0.20087,0.72419 0,0.40174 -0.1903,0.70305 -0.18501,0.29602 -0.53389,0.46518 l 0.79819,1.16294 h -1.12065 z m 0.66076,-1.34795 q 0,-0.25902 -0.16387,-0.40174 -0.16387,-0.14273 -0.48632,-0.14273 h -0.58147 v 1.08365 h 0.58147 q 0.32245,0 0.48632,-0.13744 0.16387,-0.14272 0.16387,-0.40174 z"
       style="font-style:normal;font-variant:normal;font-weight:normal;font-stretch:normal;font-size:5.64444px;line-height:1.25;font-family:'Montserrat ExtraBold';-inkscape-font-specification:'Montserrat ExtraBold, Normal';font-variant-ligatures:normal;font-variant-caps:normal;font-variant-numeric:normal;font-variant-east-asian:normal;letter-spacing:0px;word-spacing:0px;white-space:pre;display:inline;fill:#0f0f0f;fill-opacity:1;stroke:#0f0f0f;stroke-width:0.16;stroke-miterlimit:4;stroke-dasharray:none;stroke-opacity:1"
       id="path287" />
    <g
       style="font-style:normal;font-variant:normal;font-weight:normal;font-stretch:normal;font-size:5.64444px;line-height:1.25;font-family:'Montserrat ExtraBold';-inkscape-font-specification:'Montserrat ExtraBold, Normal';font-variant-ligatures:normal;font-variant-caps:normal;font-variant-numeric:normal;font-variant-east-asian:normal;letter-spacing:0px;word-spacing:0px;white-space:pre;shape-inside:url(#rect12-1-8-2);display:inline;fill:#0f0f0f;fill-opacity:1;stroke:#0f0f0f;stroke-width:0.168115;stroke-miterlimit:4;stroke-dasharray:none;stroke-opacity:1"
       id="text10-2-9-9"
       transform="matrix(0.95172841,0,0,0.95172841,124.99055,90.046517)"
       aria-label="O">
      <path
         id="path290"
         style="font-style:normal;font-variant:normal;font-weight:normal;font-stretch:normal;font-size:5.64444px;font-family:'Montserrat ExtraBold';-inkscape-font-specification:'Montserrat ExtraBold, Normal';font-variant-ligatures:normal;font-variant-caps:normal;font-variant-numeric:normal;font-variant-east-asian:normal;fill:#0f0f0f;fill-opacity:1;stroke:#0f0f0f;stroke-width:0.168115;stroke-miterlimit:4;stroke-dasharray:none;stroke-opacity:1"
         d="m 42.454004,55.179633 q -0.626532,0 -1.128888,-0.265289 -0.49671,-0.265289 -0.784577,-0.733777 -0.282222,-0.468489 -0.282222,-1.055511 0,-0.587021 0.282222,-1.05551 0.287867,-0.468488 0.784577,-0.733777 0.502356,-0.265289 1.128888,-0.265289 0.626533,0 1.123244,0.265289 0.502355,0.265289 0.784577,0.733777 0.287867,0.468489 0.287867,1.05551 0,0.587022 -0.287867,1.055511 -0.282222,0.468488 -0.784577,0.733777 -0.496711,0.265289 -1.123244,0.265289 z m 0,-0.925689 q 0.299156,0 0.541867,-0.141111 0.242711,-0.141111 0.383822,-0.39511 0.141111,-0.259645 0.141111,-0.592667 0,-0.333022 -0.141111,-0.587021 -0.141111,-0.259645 -0.383822,-0.400756 -0.242711,-0.141111 -0.541867,-0.141111 -0.299155,0 -0.541866,0.141111 -0.242711,0.141111 -0.383822,0.400756 -0.141111,0.253999 -0.141111,0.587021 0,0.333022 0.141111,0.592667 0.141111,0.253999 0.383822,0.39511 0.242711,0.141111 0.541866,0.141111 z" />
    </g>
    <g
       style="font-style:normal;font-variant:normal;font-weight:normal;font-stretch:normal;font-size:19.7556px;line-height:1.25;font-family:Baloo;-inkscape-font-specification:'Baloo, Normal';font-variant-ligatures:normal;font-variant-caps:normal;font-variant-numeric:normal;font-variant-east-asian:normal;letter-spacing:0px;word-spacing:0px;white-space:pre;shape-inside:url(#rect99-0);display:inline;fill:#0f0f0f;fill-opacity:1;stroke:#0f0f0f;stroke-width:0.499726;stroke-miterlimit:4;stroke-dasharray:none;stroke-opacity:1"
       id="text97-2"
       transform="matrix(0.32403367,0,0,0.31636332,144.97051,93.917059)"
       aria-label="I">
      <path
         id="path293"
         style="font-style:normal;font-variant:normal;font-weight:normal;font-stretch:normal;font-size:19.7556px;font-family:Baloo;-inkscape-font-specification:'Baloo, Normal';font-variant-ligatures:normal;font-variant-caps:normal;font-variant-numeric:normal;font-variant-east-asian:normal;fill:#0f0f0f;fill-opacity:1;stroke:#0f0f0f;stroke-width:0.499726;stroke-miterlimit:4;stroke-dasharray:none;stroke-opacity:1"
         d="m 55.389781,153.53013 q -0.217311,0.0593 -0.691446,0.11854 -0.454378,0.0593 -0.908757,0.0593 -0.454379,0 -0.80998,-0.079 -0.335845,-0.0593 -0.572912,-0.23707 -0.237067,-0.1778 -0.355601,-0.49389 -0.118534,-0.31609 -0.118534,-0.82973 v -10.43096 q 0.217312,-0.0395 0.691446,-0.0988 0.474135,-0.079 0.908758,-0.079 0.454379,0 0.790224,0.079 0.355601,0.0593 0.592668,0.23707 0.237067,0.1778 0.355601,0.49389 0.118533,0.31609 0.118533,0.82974 z" />
    </g>
    <text
       xml:space="preserve"
       style="font-size:7.85573px;line-height:1.25;font-family:'Montserrat Light';-inkscape-font-specification:'Montserrat Light, Normal';letter-spacing:0px;word-spacing:0px;fill:none;fill-opacity:1;stroke:#0f0f0f;stroke-width:0.3;stroke-miterlimit:4;stroke-dasharray:none;stroke-opacity:1"
       x="153.33212"
       y="133.98888"
       id="text876-1-1"
       transform="scale(0.97314576,1.0275953)"><tspan
         sodipodi:role="line"
         id="tspan874-0-4"
         x="153.33212"
         y="133.98888"
         style="font-style:normal;font-variant:normal;font-weight:normal;font-stretch:normal;font-family:Baloo;-inkscape-font-specification:Baloo;fill:none;fill-opacity:1;stroke:#0f0f0f;stroke-width:0.3;stroke-miterlimit:4;stroke-dasharray:none;stroke-opacity:1"
         dy="0"><tspan
           style="font-size:7.58931px;fill:none;fill-opacity:1;stroke:#0f0f0f;stroke-width:0.3;stroke-miterlimit:4;stroke-dasharray:none;stroke-opacity:1"
           id="tspan906-5-4">CES</tspan></tspan></text>
  </g>
</svg>
