<?xml version="1.0" encoding="UTF-8" standalone="no"?>
<svg
   xmlns:dc="http://purl.org/dc/elements/1.1/"
   xmlns:cc="http://creativecommons.org/ns#"
   xmlns:rdf="http://www.w3.org/1999/02/22-rdf-syntax-ns#"
   xmlns:svg="http://www.w3.org/2000/svg"
   xmlns="http://www.w3.org/2000/svg"
   xmlns:sodipodi="http://sodipodi.sourceforge.net/DTD/sodipodi-0.dtd"
   xmlns:inkscape="http://www.inkscape.org/namespaces/inkscape"
   width="18.26796mm"
   height="16.303034mm"
   viewBox="0 0 18.26796 16.303034"
   version="1.1"
   id="svg280"
   inkscape:version="1.0.1 (3bc2e813f5, 2020-09-07)"
   sodipodi:docname="vrt-letrasNegras-fondoDamero.svg"
   inkscape:export-filename="C:\xampp\htdocs\ces\docs\img\vrt-letrasNegras-fondoDamero.png"
   inkscape:export-xdpi="298"
   inkscape:export-ydpi="298">
  <defs
     id="defs274">
    <rect
       x="138.92924"
       y="131.43124"
       width="41.426777"
       height="18.775684"
       id="rect31" />
    <rect
       x="124.74079"
       y="152.74927"
       width="27.78125"
       height="6.4255953"
       id="rect30" />
    <rect
       x="127.11935"
       y="128.1125"
       width="27.395126"
       height="6.6817379"
       id="rect29" />
    <rect
       x="129.05705"
       y="144.88368"
       width="62.808338"
       height="6.7485552"
       id="rect23" />
    <rect
       x="138.92924"
       y="131.43124"
       width="41.426777"
       height="18.775684"
       id="rect31-8" />
    <rect
       x="138.92924"
       y="131.43124"
       width="41.426777"
       height="18.775684"
       id="rect44" />
  </defs>
  <sodipodi:namedview
     id="base"
     pagecolor="#ffffff"
     bordercolor="#666666"
     borderopacity="1.0"
     inkscape:pageopacity="0.0"
     inkscape:pageshadow="2"
     inkscape:zoom="3.959798"
     inkscape:cx="-39.912854"
     inkscape:cy="52.244558"
     inkscape:document-units="mm"
     inkscape:current-layer="layer1"
     inkscape:document-rotation="0"
     showgrid="false"
     fit-margin-top="0.2"
     fit-margin-left="0.1"
     fit-margin-right="0.1"
     fit-margin-bottom="0.2"
     inkscape:window-width="1366"
     inkscape:window-height="705"
     inkscape:window-x="-8"
     inkscape:window-y="-8"
     inkscape:window-maximized="1"
     inkscape:pagecheckerboard="true"
     inkscape:snap-global="false"
     lock-margins="true"
     showguides="true"
     inkscape:guide-bbox="true">
    <sodipodi:guide
       position="0.14352276,-0.77062355"
       orientation="1,0"
       id="guide39" />
    <sodipodi:guide
       position="18.14842,5.6057576"
       orientation="1,0"
       id="guide41" />
  </sodipodi:namedview>
  <metadata
     id="metadata277">
    <rdf:RDF>
      <cc:Work
         rdf:about="">
        <dc:format>image/svg+xml</dc:format>
        <dc:type
           rdf:resource="http://purl.org/dc/dcmitype/StillImage" />
        <dc:title></dc:title>
      </cc:Work>
    </rdf:RDF>
  </metadata>
  <g
     inkscape:label="Capa 1"
     inkscape:groupmode="layer"
     id="layer1"
     transform="translate(-149.31697,-128.89037)">
    <path
       d="m 151.19188,142.52655 q -0.82463,0 -1.28452,-0.44931 -0.45461,-0.44932 -0.45461,-1.27395 v -2.05101 h 1.04665 v 2.01929 q 0,0.88806 0.70305,0.88806 0.69777,0 0.69777,-0.88806 v -2.01929 h 1.03078 v 2.05101 q 0,0.82463 -0.45989,1.27395 -0.4546,0.44931 -1.27923,0.44931 z"
       style="font-style:normal;font-variant:normal;font-weight:normal;font-stretch:normal;font-size:5.64444px;line-height:1.25;font-family:'Montserrat ExtraBold';-inkscape-font-specification:'Montserrat ExtraBold, Normal';font-variant-ligatures:normal;font-variant-caps:normal;font-variant-numeric:normal;font-variant-east-asian:normal;letter-spacing:0px;word-spacing:0px;white-space:pre;display:inline;fill:#0f0f0f;fill-opacity:1;stroke-width:0.0700042;stroke-miterlimit:4;stroke-dasharray:none"
       id="path283" />
    <path
       d="m 157.15542,138.75228 v 3.70027 h -0.86164 l -1.6334,-1.97172 v 1.97172 h -1.0255 v -3.70027 h 0.86163 l 1.63341,1.97171 v -1.97171 z"
       style="font-style:normal;font-variant:normal;font-weight:normal;font-stretch:normal;font-size:5.64444px;line-height:1.25;font-family:'Montserrat ExtraBold';-inkscape-font-specification:'Montserrat ExtraBold, Normal';font-variant-ligatures:normal;font-variant-caps:normal;font-variant-numeric:normal;font-variant-east-asian:normal;letter-spacing:0px;word-spacing:0px;white-space:pre;display:inline;fill:#0f0f0f;fill-opacity:1;stroke-width:0.0700042;stroke-miterlimit:4;stroke-dasharray:none"
       id="path285" />
    <path
       d="m 159.5164,141.46933 h -0.5709 v 0.98322 h -1.04664 v -3.70027 h 1.69154 q 0.50218,0 0.87221,0.16916 0.37003,0.16387 0.5709,0.47575 0.20087,0.30659 0.20087,0.72419 0,0.40174 -0.1903,0.70305 -0.18501,0.29602 -0.53389,0.46518 l 0.79819,1.16294 h -1.12065 z m 0.66076,-1.34795 q 0,-0.25902 -0.16387,-0.40174 -0.16387,-0.14273 -0.48632,-0.14273 h -0.58147 v 1.08365 h 0.58147 q 0.32245,0 0.48632,-0.13744 0.16387,-0.14272 0.16387,-0.40174 z"
       style="font-style:normal;font-variant:normal;font-weight:normal;font-stretch:normal;font-size:5.64444px;line-height:1.25;font-family:'Montserrat ExtraBold';-inkscape-font-specification:'Montserrat ExtraBold, Normal';font-variant-ligatures:normal;font-variant-caps:normal;font-variant-numeric:normal;font-variant-east-asian:normal;letter-spacing:0px;word-spacing:0px;white-space:pre;display:inline;fill:#0f0f0f;fill-opacity:1;stroke-width:0.0700042;stroke-miterlimit:4;stroke-dasharray:none"
       id="path287" />
    <g
       style="font-style:normal;font-variant:normal;font-weight:normal;font-stretch:normal;font-size:5.64444px;line-height:1.25;font-family:'Montserrat ExtraBold';-inkscape-font-specification:'Montserrat ExtraBold, Normal';font-variant-ligatures:normal;font-variant-caps:normal;font-variant-numeric:normal;font-variant-east-asian:normal;letter-spacing:0px;word-spacing:0px;white-space:pre;shape-inside:url(#rect12-1-8-2);display:inline;fill:#0f0f0f;fill-opacity:1"
       id="text10-2-9-9"
       transform="matrix(0.95172841,0,0,0.95172841,124.99055,90.046517)"
       aria-label="O">
      <path
         id="path290"
         style="font-style:normal;font-variant:normal;font-weight:normal;font-stretch:normal;font-size:5.64444px;font-family:'Montserrat ExtraBold';-inkscape-font-specification:'Montserrat ExtraBold, Normal';font-variant-ligatures:normal;font-variant-caps:normal;font-variant-numeric:normal;font-variant-east-asian:normal;fill:#0f0f0f;fill-opacity:1"
         d="m 42.454004,55.179633 q -0.626532,0 -1.128888,-0.265289 -0.49671,-0.265289 -0.784577,-0.733777 -0.282222,-0.468489 -0.282222,-1.055511 0,-0.587021 0.282222,-1.05551 0.287867,-0.468488 0.784577,-0.733777 0.502356,-0.265289 1.128888,-0.265289 0.626533,0 1.123244,0.265289 0.502355,0.265289 0.784577,0.733777 0.287867,0.468489 0.287867,1.05551 0,0.587022 -0.287867,1.055511 -0.282222,0.468488 -0.784577,0.733777 -0.496711,0.265289 -1.123244,0.265289 z m 0,-0.925689 q 0.299156,0 0.541867,-0.141111 0.242711,-0.141111 0.383822,-0.39511 0.141111,-0.259645 0.141111,-0.592667 0,-0.333022 -0.141111,-0.587021 -0.141111,-0.259645 -0.383822,-0.400756 -0.242711,-0.141111 -0.541867,-0.141111 -0.299155,0 -0.541866,0.141111 -0.242711,0.141111 -0.383822,0.400756 -0.141111,0.253999 -0.141111,0.587021 0,0.333022 0.141111,0.592667 0.141111,0.253999 0.383822,0.39511 0.242711,0.141111 0.541866,0.141111 z" />
    </g>
    <g
       style="font-style:normal;font-variant:normal;font-weight:normal;font-stretch:normal;font-size:19.7556px;line-height:1.25;font-family:Baloo;-inkscape-font-specification:'Baloo, Normal';font-variant-ligatures:normal;font-variant-caps:normal;font-variant-numeric:normal;font-variant-east-asian:normal;letter-spacing:0px;word-spacing:0px;white-space:pre;shape-inside:url(#rect99-0);display:inline;fill:#0f0f0f;fill-opacity:1"
       id="text97-2"
       transform="matrix(0.32403367,0,0,0.31636332,144.97051,93.917059)"
       aria-label="I">
      <path
         id="path293"
         style="font-style:normal;font-variant:normal;font-weight:normal;font-stretch:normal;font-size:19.7556px;font-family:Baloo;-inkscape-font-specification:'Baloo, Normal';font-variant-ligatures:normal;font-variant-caps:normal;font-variant-numeric:normal;font-variant-east-asian:normal;fill:#0f0f0f;fill-opacity:1"
         d="m 55.389781,153.53013 q -0.217311,0.0593 -0.691446,0.11854 -0.454378,0.0593 -0.908757,0.0593 -0.454379,0 -0.80998,-0.079 -0.335845,-0.0593 -0.572912,-0.23707 -0.237067,-0.1778 -0.355601,-0.49389 -0.118534,-0.31609 -0.118534,-0.82973 v -10.43096 q 0.217312,-0.0395 0.691446,-0.0988 0.474135,-0.079 0.908758,-0.079 0.454379,0 0.790224,0.079 0.355601,0.0593 0.592668,0.23707 0.237067,0.1778 0.355601,0.49389 0.118533,0.31609 0.118533,0.82974 z" />
    </g>
    <g
       id="g37"
       transform="matrix(0.82994449,0,0,0.82994449,43.759866,20.031526)">
      <path
         d="m 129.84666,142.14297 v 0.23429 h -2.46004 v -3.56527 h 2.38364 v 0.23429 h -2.12388 v 1.40574 h 1.89977 v 0.22919 h -1.89977 v 1.46176 z"
         style="font-style:normal;font-variant:normal;font-weight:normal;font-stretch:normal;font-size:5.2325px;line-height:1.25;font-family:'Montserrat Light';-inkscape-font-specification:'Montserrat Light, Normal';font-variant-ligatures:normal;font-variant-caps:normal;font-variant-numeric:normal;font-variant-east-asian:normal;letter-spacing:0px;word-spacing:-0.34086px;white-space:pre;display:inline;fill:#0f0f0f;fill-opacity:1;stroke-width:0.973386"
         id="path268" />
      <path
         d="m 131.59257,142.47158 q -0.40711,0 -0.77722,-0.13747 -0.36482,-0.14275 -0.57103,-0.36482 l 0.12161,-0.2009 q 0.19563,0.20618 0.52343,0.33838 0.33311,0.12688 0.69793,0.12688 0.52871,0 0.79837,-0.20091 0.26964,-0.20092 0.26964,-0.52344 0,-0.24849 -0.14276,-0.39654 -0.14274,-0.14804 -0.35423,-0.22736 -0.21149,-0.0793 -0.57102,-0.16389 -0.40712,-0.10049 -0.65563,-0.19562 -0.2432,-0.0952 -0.41768,-0.29081 -0.1692,-0.20092 -0.1692,-0.53401 0,-0.26964 0.14276,-0.49171 0.14275,-0.22736 0.43355,-0.35953 0.29609,-0.13219 0.73492,-0.13219 0.30667,0 0.60275,0.0899 0.29609,0.0899 0.51286,0.24322 l -0.10049,0.21677 q -0.22206,-0.15332 -0.4917,-0.23263 -0.26438,-0.0793 -0.52345,-0.0793 -0.51286,0 -0.77722,0.2062 -0.26437,0.20621 -0.26437,0.53401 0,0.2485 0.14276,0.39654 0.14276,0.14806 0.35424,0.22735 0.21149,0.0793 0.57633,0.16921 0.4071,0.10048 0.65031,0.19562 0.24321,0.0952 0.41241,0.29079 0.17447,0.19035 0.17447,0.51815 0,0.26966 -0.14804,0.49171 -0.14276,0.22207 -0.44413,0.35425 -0.30137,0.13218 -0.7402,0.13218 z"
         style="font-style:normal;font-variant:normal;font-weight:normal;font-stretch:normal;font-size:5.2325px;line-height:1.25;font-family:'Montserrat Light';-inkscape-font-specification:'Montserrat Light, Normal';font-variant-ligatures:normal;font-variant-caps:normal;font-variant-numeric:normal;font-variant-east-asian:normal;letter-spacing:0px;word-spacing:-0.34086px;white-space:pre;display:inline;fill:#0f0f0f;fill-opacity:1;stroke-width:1.01046"
         id="path270" />
      <path
         d="m 134.53514,139.04628 h -1.28349 v -0.23429 h 2.82674 v 0.23429 h -1.28349 v 3.33098 h -0.25976 z"
         style="font-style:normal;font-variant:normal;font-weight:normal;font-stretch:normal;font-size:5.2325px;line-height:1.25;font-family:'Montserrat Light';-inkscape-font-specification:'Montserrat Light, Normal';font-variant-ligatures:normal;font-variant-caps:normal;font-variant-numeric:normal;font-variant-east-asian:normal;letter-spacing:0px;word-spacing:-0.34086px;white-space:pre;display:inline;fill:#0f0f0f;fill-opacity:1;stroke-width:0.973386"
         id="path272" />
      <path
         d="m 138.11314,142.40273 q -0.6774,0 -1.0543,-0.39218 -0.3718,-0.39218 -0.3718,-1.14598 v -2.05258 h 0.25975 v 2.04239 q 0,0.65703 0.3005,0.983 0.3005,0.32597 0.87095,0.32597 0.56535,0 0.86585,-0.32597 0.3005,-0.32597 0.3005,-0.983 v -2.04239 h 0.25975 v 2.05258 q 0,0.7538 -0.3769,1.14598 -0.3769,0.39218 -1.0543,0.39218 z"
         style="font-style:normal;font-variant:normal;font-weight:normal;font-stretch:normal;font-size:5.2325px;line-height:1.25;font-family:'Montserrat Light';-inkscape-font-specification:'Montserrat Light, Normal';font-variant-ligatures:normal;font-variant-caps:normal;font-variant-numeric:normal;font-variant-east-asian:normal;letter-spacing:-0.546423px;word-spacing:-0.34086px;white-space:pre;display:inline;fill:#0f0f0f;fill-opacity:1;stroke-width:0.973386"
         id="path274" />
      <path
         d="m 140.2245,138.81199 h 1.41082 q 0.55517,0 0.983,0.2292 0.43292,0.22919 0.67231,0.63666 0.23938,0.40236 0.23938,0.91678 0,0.51442 -0.23938,0.92188 -0.23939,0.40236 -0.67231,0.63156 -0.42783,0.22919 -0.983,0.22919 h -1.41082 z m 1.39045,3.33098 q 0.49405,0 0.87095,-0.19354 0.3769,-0.19863 0.58062,-0.55007 0.20373,-0.35143 0.20373,-0.80473 0,-0.4533 -0.20373,-0.80473 -0.20372,-0.35144 -0.58062,-0.54498 -0.3769,-0.19864 -0.87095,-0.19864 h -1.1307 v 3.09669 z"
         style="font-style:normal;font-variant:normal;font-weight:normal;font-stretch:normal;font-size:5.2325px;line-height:1.25;font-family:'Montserrat Light';-inkscape-font-specification:'Montserrat Light, Normal';font-variant-ligatures:normal;font-variant-caps:normal;font-variant-numeric:normal;font-variant-east-asian:normal;letter-spacing:-0.267605px;word-spacing:-0.34086px;white-space:pre;display:inline;fill:#0f0f0f;fill-opacity:1;stroke-width:0.973386"
         id="path276" />
      <path
         d="m 144.17191,138.81199 h 0.25975 v 3.56527 h -0.25975 z"
         style="font-style:normal;font-variant:normal;font-weight:normal;font-stretch:normal;font-size:5.2325px;line-height:1.25;font-family:'Montserrat Light';-inkscape-font-specification:'Montserrat Light, Normal';font-variant-ligatures:normal;font-variant-caps:normal;font-variant-numeric:normal;font-variant-east-asian:normal;letter-spacing:-0.28405px;word-spacing:-0.34086px;white-space:pre;display:inline;fill:#0f0f0f;fill-opacity:1;stroke-width:0.973386"
         id="path278" />
      <path
         d="m 147.04639,142.46955 q -0.55368,0 -0.99986,-0.24727 -0.44617,-0.25265 -0.70419,-0.68807 -0.25265,-0.43543 -0.25265,-0.97298 0,-0.53757 0.25265,-0.97299 0.25802,-0.43541 0.70419,-0.68269 0.44618,-0.25265 0.99986,-0.25265 0.55369,0 0.99986,0.24728 0.44617,0.24726 0.69882,0.68269 0.25803,0.43542 0.25803,0.97836 0,0.54293 -0.25803,0.97835 -0.25265,0.43542 -0.69882,0.6827 -0.44617,0.24727 -0.99986,0.24727 z m 0,-0.25265 q 0.47305,0 0.85472,-0.21502 0.38166,-0.21502 0.60206,-0.59132 0.2204,-0.38166 0.2204,-0.84933 0,-0.46768 -0.2204,-0.84397 -0.2204,-0.38166 -0.60206,-0.59669 -0.38167,-0.21502 -0.85472,-0.21502 -0.47305,0 -0.86009,0.21502 -0.38166,0.21503 -0.60207,0.59669 -0.22039,0.37629 -0.22039,0.84397 0,0.46767 0.22039,0.84933 0.22041,0.3763 0.60207,0.59132 0.38704,0.21502 0.86009,0.21502 z"
         style="font-style:normal;font-variant:normal;font-weight:normal;font-stretch:normal;font-size:5.2325px;line-height:1.25;font-family:'Montserrat Light';-inkscape-font-specification:'Montserrat Light, Normal';font-variant-ligatures:normal;font-variant-caps:normal;font-variant-numeric:normal;font-variant-east-asian:normal;letter-spacing:-0.326658px;word-spacing:-0.34086px;white-space:pre;display:inline;fill:#0f0f0f;fill-opacity:1;stroke-width:1.02734"
         id="path280" />
    </g>
    <text
       xml:space="preserve"
       id="text27"
       style="font-size:5.64444px;line-height:1.25;font-family:'Montserrat Light';-inkscape-font-specification:'Montserrat Light, Normal';letter-spacing:0px;word-spacing:0px;white-space:pre;shape-inside:url(#rect31);"
       transform="matrix(0.37724674,0,0,0.37724674,96.780488,79.131115)"><tspan
         x="138.92969"
         y="136.61941"><tspan>El CES es una </tspan></tspan><tspan
         x="138.92969"
         y="143.67497"><tspan>producción de</tspan></tspan></text>
    <text
       xml:space="preserve"
       id="text27-0"
       style="font-size:5.64444px;line-height:1.25;font-family:'Montserrat Light';-inkscape-font-specification:'Montserrat Light, Normal';letter-spacing:0px;word-spacing:0px;white-space:pre;shape-inside:url(#rect31-8);"
       transform="matrix(0.37724675,0,0,0.37724675,104.58046,93.443526)"><tspan
         x="138.92969"
         y="136.61941"><tspan>2018 -2021</tspan></tspan></text>
  </g>
</svg>
